<svg xmlns="http://www.w3.org/2000/svg" width="20px" height="15px" viewBox="0 0 20 15">
    <path  d="M15.000,0.000 C13.812,0.000 12.735,0.432 11.877,1.124 L10.286,5.025 L13.411,6.013 L10.000,11.063 L10.000,7.675 L6.875,6.688 L8.406,1.358 C7.513,0.522 6.321,0.000 5.000,0.000 C2.239,0.000 -0.000,2.239 -0.000,5.000 C-0.000,5.296 0.034,5.588 0.088,5.878 C0.106,5.978 0.129,6.075 0.153,6.173 C0.202,6.371 0.264,6.567 0.336,6.761 C0.367,6.845 0.392,6.930 0.428,7.011 C2.339,11.570 10.000,15.000 10.000,15.000 C10.000,15.000 17.661,11.570 19.572,7.011 C19.608,6.930 19.633,6.845 19.665,6.761 C19.736,6.567 19.798,6.371 19.847,6.173 C19.871,6.075 19.894,5.978 19.912,5.878 C19.966,5.588 20.000,5.296 20.000,5.000 C20.000,2.239 17.761,0.000 15.000,0.000 Z"/>
</svg>