<svg x="0px" y="0px" viewBox="0 0 9.3 15" width="16" height="16">
    <path d="M9.3,4.6C9.3,2.1,7.2,0,4.7,0C2.1,0,0,2.1,0,4.6c0,1.6,0.8,3,2.1,3.8v0.3c0,0.5,0.4,0.9,0.9,0.9h3.4 c0.5,0,0.9-0.4,0.9-0.9V8.5C8.5,7.6,9.3,6.2,9.3,4.6z"/>
    <path d="M6.2,10H3.1c-0.3,0-0.5,0.2-0.5,0.5S2.8,11,3.1,11h3.1c0.3,0,0.5-0.2,0.5-0.5S6.5,10,6.2,10z"/>
    <path d="M6.2,12.7H3.1c-0.3,0-0.5,0.2-0.5,0.5c0,0.3,0.2,0.5,0.5,0.5h3.1c0.3,0,0.5-0.2,0.5-0.5 C6.7,12.9,6.5,12.7,6.2,12.7z"/>
    <path d="M3.1,12.3h3.1c0.3,0,0.5-0.2,0.5-0.5s-0.2-0.5-0.5-0.5H3.1c-0.3,0-0.5,0.2-0.5,0.5S2.8,12.3,3.1,12.3z"/>
    <path d="M5.6,14H3.7c-0.3,0-0.5,0.2-0.5,0.5c0,0.3,0.2,0.5,0.5,0.5h1.9c0.3,0,0.5-0.2,0.5-0.5C6.1,14.2,5.9,14,5.6,14z"/>
</svg>
