<svg xmlns="http://www.w3.org/2000/svg" x="0px" y="0px" viewBox="0 0 30 30" xml:space="preserve">
<path d="M15.016,29.617 M13.297,27.898c0-0.947,0.765-1.72,1.719-1.72c0.947,0,1.72,0.765,1.72,1.72
	c0,0.943-0.765,1.719-1.72,1.719C14.071,29.617,13.297,28.85,13.297,27.898 M7.708,27.674c-0.825-0.474-1.101-1.53-0.636-2.356
	c0.481-0.815,1.531-1.1,2.355-0.627c0.817,0.473,1.102,1.522,0.629,2.348c-0.319,0.549-0.895,0.86-1.489,0.86
	C8.276,27.898,7.975,27.829,7.708,27.674 M19.969,27.03c-0.472-0.825-0.197-1.876,0.629-2.349c0.825-0.48,1.874-0.197,2.347,0.619
	c0.473,0.825,0.198,1.874-0.62,2.355c-0.274,0.155-0.567,0.233-0.867,0.233C20.864,27.89,20.288,27.579,19.969,27.03 M2.351,22.335
	L2.351,22.335c-0.473-0.827-0.197-1.875,0.629-2.356c0.816-0.473,1.874-0.199,2.347,0.627c0.481,0.816,0.198,1.875-0.619,2.348
	c-0.275,0.164-0.568,0.232-0.86,0.232C3.254,23.186,2.669,22.885,2.351,22.335 M25.317,22.937c-0.825-0.473-1.108-1.531-0.627-2.356
	c0.474-0.816,1.521-1.101,2.348-0.628c0.826,0.48,1.1,1.53,0.627,2.356c-0.318,0.551-0.894,0.859-1.486,0.859
	C25.885,23.168,25.583,23.09,25.317,22.937 M0.383,15.026c0-0.947,0.765-1.72,1.72-1.72c0.946,0,1.72,0.764,1.72,1.72
	c0.008,0.944-0.765,1.72-1.711,1.72C1.157,16.746,0.391,15.98,0.383,15.026 M26.179,15.035v-0.087c0-0.946,0.766-1.719,1.71-1.719
	c0.954-0.009,1.729,0.757,1.729,1.711v0.035V15c0,0.945-0.767,1.72-1.72,1.72C26.96,16.72,26.204,15.971,26.179,15.035
	 M0.383,15.026L0.383,15.026v0.008V15.026z M2.953,10.064c-0.826-0.473-1.1-1.522-0.627-2.347C2.799,6.9,3.847,6.607,4.673,7.089
	c0.825,0.473,1.109,1.521,0.636,2.348c-0.326,0.551-0.902,0.859-1.496,0.859C3.52,10.296,3.229,10.219,2.953,10.064 M24.663,9.376
	L24.663,9.376c-0.48-0.826-0.205-1.874,0.62-2.356c0.816-0.481,1.873-0.197,2.347,0.62c0.482,0.817,0.207,1.875-0.617,2.356
	c-0.268,0.155-0.568,0.232-0.86,0.232C25.558,10.228,24.982,9.918,24.663,9.376 M7.038,4.708C6.557,3.891,6.841,2.842,7.657,2.36
	c0.817-0.481,1.875-0.207,2.356,0.62c0.474,0.825,0.198,1.874-0.628,2.355V5.326C9.118,5.49,8.818,5.568,8.526,5.568
	C7.932,5.568,7.355,5.257,7.038,4.708 M20.555,5.3c-0.826-0.481-1.108-1.53-0.637-2.355c0.474-0.817,1.531-1.11,2.347-0.628
	c0.825,0.465,1.11,1.521,0.638,2.348c-0.319,0.549-0.896,0.859-1.488,0.859C21.122,5.524,20.829,5.455,20.555,5.3 M13.246,2.111
	c-0.009-0.955,0.757-1.729,1.71-1.729c0.947,0,1.72,0.765,1.729,1.711c0,0.955-0.766,1.728-1.72,1.728
	C14.02,3.822,13.246,3.057,13.246,2.111"/>
</svg>
