<svg xmlns="http://www.w3.org/2000/svg" x="0px" y="0px" viewBox="0 0 15 15" xml:space="preserve">
    <path d="M7.5,0C3.4,0,0,3.4,0,7.5S3.4,15,7.5,15S15,11.6,15,7.5S11.6,0,7.5,0z M10.4,11.1c-0.8,0.5-1.8,0.7-2.8,0.7 c-0.8,0-1.5-0.2-2.1-0.5C4.8,11,4.4,10.5,4,9.9C3.7,9.2,3.5,8.5,3.5,7.7c0-1.2,0.4-2.3,1.2-3.1c0.8-0.8,1.9-1.2,3.1-1.2 c0.9,0,1.7,0.1,2.3,0.4v1.1C9.5,4.5,8.7,4.3,7.8,4.3c-0.6,0-1.2,0.1-1.7,0.4C5.6,5,5.2,5.4,5,5.9C4.7,6.5,4.6,7,4.6,7.7 c0,1,0.3,1.8,0.8,2.4C5.9,10.7,6.7,11,7.7,11c0.7,0,1.2-0.1,1.7-0.4V8.3H7.5V7.5h2.8V11.1z"/>
</svg>
