<?xml version="1.0" encoding="utf-8"?>
<!-- Generator: Adobe Illustrator 22.1.0, SVG Export Plug-In . SVG Version: 6.00 Build 0)  -->
<svg version="1.1" id="Calque_1" xmlns="http://www.w3.org/2000/svg" xmlns:xlink="http://www.w3.org/1999/xlink" x="0px" y="0px"
	 viewBox="0 0 1524 288" style="enable-background:new 0 0 1524 288;" xml:space="preserve">
<style type="text/css">
	.svglogo0{fill:#FFFFFF;}
	.svglogo1{fill:#5DC21E;}
</style>
<g>
	<g>
		<path class="svglogo0" d="M227.3,236.9c6.4-13.1,19-49.5,19.9-55.2c0.2-1.3-0.4-3.3-1.6-5.5c0.8-1.9,1.9-4.6,1.7-5
			c-0.3-0.7-2.5-7.2-6.1-11.1c-3.6-4-9-9.1-10.4-9.4c-1.3-0.3-6.5-1.1-7.6-1.8c-0.2-0.1-1.5-1.1-3.4-2.5l0,0c-6.1-4.4-5.6-4-12-8.8
			c-6.2-4.6-12-8.9-12-8.9v0.1c-1.9-1.4-3.2-2.4-3.3-2.6c-1-0.9-3.3-5.6-4-6.8c-0.7-1.1-7.2-4.9-12.1-7.1
			c-4.9-2.2-11.6-2.4-12.4-2.5c-0.5-0.1-2.6,1.7-4.3,3.1c-2.5-0.4-4.6-0.4-5.8,0.1c-5.1,2.6-36.1,25.3-46.7,35.4
			c-10.6,10-12.8,16.1-13.2,21.6c-0.3,5.6,2.7,10.2,4.2,11.5c1.5,1.4,31-3.2,35.3-2.7c4.3,0.4,5.7-0.5,16.2,6.9
			c7.6,5.5,12.2,8.9,14.1,10.4l0,0l1.1,0.8l0,0c2,1.4,6.6,4.7,14.1,10.4c10.3,7.8,9.8,9.5,11.5,13.4c1.7,4,6.1,33.5,7.8,34.5
			c1.8,1,7,2.6,12.3,0.6C215.7,254,220.9,250,227.3,236.9 M194.1,156c-3.8-2.8-4.6-8.1-1.8-11.8c2.8-3.8,8.1-4.6,11.8-1.8
			c3.8,2.8,4.6,8.1,1.8,11.8C203.1,157.9,197.8,158.7,194.1,156z"/>
		<path class="svglogo1" d="M255.3,149.6c2,2.5,4.1,4.8,5.8,7.5c0.5,0.8,1,1.7,1.3,2.6c0.1,0.3,0.2,0.6,0.3,0.8c0,0.1,0.1,0.3,0.1,0.4
			c0.1,0.1,0.6,0.1,0.7,0.1c1.3-7.5,2.1-15.2,2.1-23.1C265.7,64.5,206.2,5,132.8,5C59.5,5,0,64.5,0,137.8
			c0,73.4,59.5,132.8,132.8,132.8c17.2,0,33.6-3.3,48.7-9.2c0.7-0.3-1.9-12-4.5-22.1c-1.9-7.3-3.9-13.7-4.7-14.7
			c-4.4-5.1-10.1-10.1-16.4-12.5c-7.2-2.7-15.5,0.7-23,0.7c-41.4,0-75-33.6-75-75c0-41.4,33.6-75,75-75c31,0,57.6,18.8,69,45.6
			c0.7,0.9,1.1,1.5,1.4,2c4.8,7.8,14.1,13.4,21.5,18.5c4.4,3,9.6,4.4,14.3,6.8C245.6,139,250.8,143.9,255.3,149.6z"/>
	</g>
	<g>
		<g>
			<path class="svglogo1" d="M1343.3,224.7h-116.1V60.4h114.9v17.4h-95.7v54.7h89.5v17.4h-89.5v57.4h96.8v17.5H1343.3L1343.3,224.7z"/>
			<path class="svglogo1" d="M1157.7,224.7h-24.9l-58-164.2h20.4l50.2,142.6h0.5l49.9-142.6h20.4L1157.7,224.7z"/>
			<path class="svglogo1" d="M938.7,207.2h89.8v17.4H919.6V60.4h19.3v146.8H938.7z"/>
			<path class="svglogo1" d="M1060.2,224.7H1041V60.4h19.3V224.7z"/>
		</g>
		<path class="svglogo0" d="M677.1,80.3c34.4,0,62.5,28,62.5,62.5c0,34.4-28,62.5-62.5,62.5s-62.5-28-62.5-62.5
			C614.6,108.4,642.7,80.3,677.1,80.3 M677.1,61.1c-45.1,0-81.8,36.6-81.8,81.8c0,45.2,36.6,81.8,81.8,81.8s81.8-36.6,81.8-81.8
			C758.8,97.7,722.2,61.1,677.1,61.1L677.1,61.1z"/>
		<path class="svglogo0" d="M1375.6,226.6c-2.6,0-4.8-0.9-6.5-2.7c-1.7-1.8-2.6-4-2.6-6.6c0-2.7,0.9-4.9,2.6-6.6c1.8-1.7,3.9-2.6,6.5-2.6
			c2.6,0,4.8,0.8,6.6,2.6c1.8,1.7,2.7,3.9,2.7,6.6c0,2.6-0.9,4.8-2.7,6.6C1380.4,225.7,1378.2,226.6,1375.6,226.6z"/>
		<path class="svglogo0" d="M1453.2,62.1c-2.9-2.2-7.1-3.3-12.8-3.3c-14.5,0-21.7,9.7-21.7,29.1v19.5h31v9.6h-31v107.5h-10.5V116.9h-21.1
			v-9.6h21.1V86.9c0-11.8,3-21.1,9-27.8c6-6.7,13.8-10,23.6-10c5,0,9.1,0.7,12.3,2.2v10.8H1453.2L1453.2,62.1z"/>
		<path class="svglogo0" d="M1521.9,118.3c-3.6-2.5-7.7-3.8-12.3-3.8c-6.2,0-11.8,2.2-16.9,6.6c-4.9,4.4-8.8,10.8-11.6,19.3
			c-2.8,8.4-4.2,18.1-4.2,29.1v55.1h-10.2V107.3h10.3v26h0.5c2.7-9,6.9-16,12.7-20.9c5.8-4.9,12.5-7.4,20.2-7.4
			c4.3,0,8.2,0.7,11.6,2.1v11.2L1521.9,118.3L1521.9,118.3z"/>
		<path class="svglogo0" d="M569.2,144.7c-3.4-2.9-7.1-5.2-10.7-6.8c11.9-6.4,19.7-18.7,19.7-32.8c0-10.5-3.9-44.6-53.3-44.6h-66.6v164
			h66.6c36.1,0,58.5-18.4,58.5-47.9C583.4,163.7,578.5,152.6,569.2,144.7z M476.7,77.6c7.4,0,48.2,0,48.2,0c13,0,34.9,3.2,34.9,26.1
			c0,17.3-12.7,27.5-34.9,27.5c0,0-40.7,0-48.2,0V77.6z M524.9,207.3c0,0-40.7,0-48.2,0v-59.7c7.4,0,48.2,0,48.2,0
			c18.3,0,40.1,5,40.1,28.6C565,203.3,539.8,207.3,524.9,207.3z"/>
		<polygon class="svglogo0" points="392.4,153.2 381.5,168 423.2,224.5 444.7,224.5 		"/>
		<polygon class="svglogo0" points="417.7,60.4 370.8,124.1 323.9,60.4 302.4,60.4 360.3,138.3 296.9,224.5 318.4,224.5 439.2,60.4 		"/>
		<g>
			<polygon class="svglogo0" points="845.3,153.2 834.5,168 876.1,224.5 897.7,224.5 			"/>
			<polygon class="svglogo0" points="870.6,60.4 823.8,124 776.8,60.4 755.3,60.4 813.3,138.3 749.8,224.5 771.4,224.5 892.2,60.4 			"/>
		</g>
	</g>
</g>
</svg>
