<svg version="1.1" xmlns="http://www.w3.org/2000/svg" xmlns:xlink="http://www.w3.org/1999/xlink" x="0px" y="0px" viewBox="0 0 1524.2 287.9" xml:space="preserve" preserveAspectRatio="xMinYMin">
	<g fill="#5dc21e">
		<path d="M1343.1,222.4h-115.7V58.7h114.5V76h-95.4v54.5h89.2v17.3h-89.2V205h96.5V222.4z"/>
		<path d="M1158.1,222.4h-24.8l-57.8-163.7h20.3l50,142.1h0.5l49.7-142.1h20.3L1158.1,222.4z"/>
		<path d="M939.8,205h89.5v17.3H920.7V58.7l19.2,0V205z"/>
		<path d="M1060.9,222.4l-19.2,0V58.7h19.2V222.4z"/>
		<path d="M221.2,265.4c-8.4,4.3-25.4,9.7-25.4,9.7c-1.4,0.4-2.5,0.9-4.2,1.3l-5.6,1.4c-3.7,0.8-7.5,1.8-11.1,2.4
			l-10.4,1.2c-3.4,0.5-6.9,0.5-10.4,0.6l-5.2,0.1l-2.6,0l-1.3,0l-1.5,0l-0.1,0l-0.3,0l-0.5-0.1c-6-0.7-10.4-0.7-18.6-2.3
			c-3.6-0.7-7.5-1.3-10.8-2.2l-9.9-2.9c-3.3-0.9-6.4-2.4-9.6-3.6c-3.1-1.3-6.4-2.4-9.3-4.1c-12.3-5.9-23.3-13.8-33.5-22.6
			c-9.9-9.1-18.6-19.3-25.7-30.5c-6.8-11.3-12.8-23.2-16.3-35.9c-3.7-12.6-5.9-25.5-5.8-38.5l0-4.8l0-2.4v-0.3l0-1l0-0.1l0.1-0.5
			l0.1-1.1l0.8-8.5c0.1-2.6,1-6.4,1.5-9.6c0.7-3.3,1.1-6.8,2.1-9.8c3.2-12.4,8.4-24.1,14.6-35.1C29,55.5,36.6,45.5,45.8,36.9
			c9.2-8.4,19-16.1,30-21.6C86.6,9.6,98.2,5.3,110.1,2.9c11.9-2.7,23.8-3.3,36.1-2.7c5.7,0.6,11.2,0.9,17.3,2.4c3,0.6,6,1.1,8.8,2
			l8.4,2.8c5.7,1.7,10.9,4.6,16.2,6.9c5,3.1,10.3,5.5,14.9,9.3c9.7,6.4,17.8,15,25.3,23.5l0.3,0.4l0,0.6l-1.7,0.1l0.3,1
			c-8.3-7.7-16.8-15.1-26.7-20.3c-4.6-3.1-10-4.9-14.9-7.4c-5.3-1.7-10.3-3.9-15.7-4.9l-8-1.8c-2.7-0.5-5.3-0.6-7.9-1
			c-5.1-0.9-11-0.6-16.6-0.7c-10.3,0.5-21.4,2-31.4,5.5c-10.2,3.1-19.7,7.8-28.5,13.6C77.6,37.8,70,45.1,63.1,52.8
			c-6.8,7.8-12.2,16.6-16.7,25.7c-4.1,9.3-7.3,18.9-8.8,28.8c-0.6,2.5-0.5,4.7-0.8,7c-0.1,2.4-0.6,4.2-0.5,7.3l0,8.5v1.1l0,0.5v0.1
			c0-1.6,0-0.4,0-0.7l0,0.2l0.2,1.8l0.4,3.7c0.9,9.8,3.6,19.3,7.2,28.3c3.4,9.1,8.8,17.2,14.4,24.8c5.9,7.5,12.9,14,20.3,19.7
			c7.7,5.3,15.8,10,24.5,13.1c2.1,1,4.4,1.4,6.5,2.1c2.2,0.6,4.3,1.5,6.6,1.7l6.7,1.3c2.2,0.4,4,0.3,6,0.6c3,0.6,10,0.3,15.4,0.4h0.5
			l0.3,0h0.1c0.3,0-2.5-0.1-1.2,0l0.8-0.1l1.7-0.2l3.3-0.4c2.2-0.3,4.4-0.4,6.6-1l6.5-1.4c2-0.5,7.3-2.4,7.3-2.4s17.5-6.8,22.8,1.2
			c4.3,6.5,3.8,27.9,12.7,31.8c4.6,2,13.6,1.9,19.1,1.4C228.7,257.4,229.1,261.3,221.2,265.4z"/>
	</g>
	<g fill="#fff">
		<path d="M679,78.5c34.3,0,62.3,27.9,62.3,62.3c0,34.3-27.9,62.3-62.3,62.3c-34.4,0-62.3-27.9-62.3-62.3
		C616.7,106.5,644.7,78.5,679,78.5 M679,59.4c-45,0-81.5,36.5-81.5,81.5c0,45,36.5,81.5,81.5,81.5c45,0,81.5-36.5,81.5-81.5
		C760.5,95.8,724,59.4,679,59.4L679,59.4z"/>
		<path d="M1375.3,224.3c-2.6,0-4.8-0.9-6.5-2.7c-1.7-1.8-2.6-4-2.6-6.6c0-2.7,0.9-4.9,2.6-6.6c1.8-1.7,3.9-2.6,6.5-2.6
			c2.6,0,4.8,0.8,6.6,2.6c1.8,1.7,2.7,3.9,2.7,6.6c0,2.6-0.9,4.8-2.7,6.6C1380.1,223.4,1377.9,224.3,1375.3,224.3z"/>
		<path d="M1452.6,60.4c-2.9-2.2-7.1-3.3-12.8-3.3c-14.4,0-21.6,9.7-21.6,29v19.4h30.9v9.6h-30.9v107.2h-10.5V115h-21
			v-9.6h21V85.1c0-11.8,3-21,9-27.7c6-6.7,13.8-10,23.5-10c5,0,9.1,0.7,12.3,2.2V60.4z"/>
		<path d="M1521.1,116.4c-3.6-2.5-7.7-3.8-12.3-3.8c-6.2,0-11.8,2.2-16.8,6.6c-4.9,4.4-8.8,10.8-11.6,19.2
			c-2.8,8.4-4.2,18-4.2,29v54.9H1466V105.4h10.3v25.9h0.5c2.7-9,6.9-15.9,12.7-20.8c5.8-4.9,12.5-7.4,20.1-7.4
			c4.3,0,8.2,0.7,11.6,2.1V116.4z"/>
		<path d="M571.5,142.7c-3.4-2.9-7.1-5.2-10.7-6.8c11.9-6.4,19.6-18.6,19.6-32.7c0-10.5-3.9-44.5-53.1-44.5h-66.4v163.5
			l66.4,0c36,0,58.3-18.3,58.3-47.7C585.6,161.6,580.7,150.6,571.5,142.7z M479.3,75.8c7.4,0,48,0,48,0c13,0,34.8,3.2,34.8,26
			c0,17.2-12.7,27.4-34.8,27.4c0,0-40.6,0-48,0V75.8z M527.3,205.1c0,0-40.6,0-48,0v-59.5c7.4,0,48,0,48,0c18.2,0,40,5,40,28.5
			C567.3,201.1,542.2,205.1,527.3,205.1z"/>
		<polygon points="379.1,129.4 326.9,58.7 305.5,58.7 367,141.3 "/>
		<polygon points="395.2,151.2 384.9,165.3 384.4,165.9 425.9,222.2 447.4,222.2 	"/>
		<polygon points="441.9,58.7 420.4,58.7 300,222.2 321.5,222.2 	"/>
		<polygon points="831.5,130.6 778.4,58.7 757,58.7 818.5,141.3 "/>
		<polygon points="846.7,151.2 836.4,165.3 835.9,165.9 877.4,222.2 898.9,222.2 	"/>
		<polygon points="893.4,58.7 871.9,58.7 751.5,222.2 773,222.2 	"/>
		<path d="M245.5,220.9c7.6-16.4,22.3-61.8,23.3-68.8c0.2-1.6-0.6-4.1-2.1-6.8c1-2.4,2.3-5.7,2-6.2
			c-0.4-0.9-3.3-8.8-7.8-13.6c-4.5-4.9-11.4-11.1-13.1-11.4c-1.6-0.3-8.1-1.2-9.5-2c-0.3-0.1-1.9-1.3-4.3-3l0,0
			c0,0-7.3-5.1-15.1-10.6c-7.8-5.5-15.1-10.7-15.1-10.7l0,0.1c-2.4-1.7-4-2.9-4.2-3.1c-1.2-1.1-4.2-6.9-5.1-8.3
			c-0.9-1.4-9-5.9-15.1-8.5c-6.1-2.6-14.4-2.7-15.4-2.8c-0.6-0.1-3.2,2.2-5.2,4c-3.1-0.4-5.7-0.4-7.2,0.3c-6.2,3.3-44.1,32.2-57,44.9
			c-12.9,12.7-15.5,20.2-15.8,27.1c-0.2,6.9,3.6,12.5,5.5,14.1c1.9,1.7,38.3-4.7,43.6-4.2c5.3,0.4,7.1-0.8,20.2,8.2
			c9.6,6.6,15.3,10.7,17.7,12.5l0,0c0,0,0.2,0.2,0.7,0.5c0.5,0.3,0.7,0.5,0.7,0.5l0,0c2.5,1.7,8.3,5.7,17.7,12.5
			c12.9,9.4,12.3,11.5,14.5,16.3c2.2,4.9,8.3,41.3,10.5,42.5c2.2,1.2,8.7,3,15.2,0.5C231.6,242.3,237.9,237.3,245.5,220.9
			 M197.1,129.5c-5-3.5-6.2-10.4-2.6-15.4c3.5-5,10.4-6.2,15.4-2.6c5,3.5,6.2,10.4,2.6,15.4C208.9,131.8,202,133,197.1,129.5"/>
	</g>
</svg>
