<!-- Generator: Adobe Illustrator 22.1.0, SVG Export Plug-In . SVG Version: 6.00 Build 0)  -->
<svg version="1.1" id="Calque_1" xmlns="http://www.w3.org/2000/svg" xmlns:xlink="http://www.w3.org/1999/xlink" x="0px" y="0px" viewBox="-12 -10 50 50" xml:space="preserve">
    <style type="text/css">
	.st0{fill:#FFFFFF;}
	.st0:hover{fill:#5DC21E;}
    </style>
    <path class="st0" d="M16.9,2.8l0,4.2c3.5,1.4,6,4.7,6,8.7c0,5.2-4.2,9.3-9.4,9.3C8.3,25,4,20.8,4,15.7c0-3.9,2.5-7.3,6-8.7l0-4.2 C4.3,4.3,0,9.5,0,15.7C0,23,6,29,13.5,29C21,29,27,23,27,15.7C27,9.5,22.7,4.3,16.9,2.8z M15,0l-3,0l0,11l3,0L15,0z"/>
</svg>