<svg xmlns="http://www.w3.org/2000/svg" xmlns:xlink="http://www.w3.org/1999/xlink" x="0px" y="0px" viewBox="0 0 360 530" xml:space="preserve">
    <path d="M323.310,422.731 L323.310,527.762 L294.235,527.762 L294.235,422.731 L257.711,422.731 L257.711,399.142 L360.013,399.142 L360.013,422.731 L323.310,422.731 ZM272.452,163.912 C259.693,171.308 245.267,175.005 229.174,175.005 C213.471,175.005 199.339,171.406 186.779,164.207 C174.217,157.008 164.481,146.917 157.574,133.935 C150.664,120.953 147.210,106.201 147.210,89.679 C147.210,72.135 150.703,56.557 157.691,42.944 C164.678,29.333 174.629,18.771 187.544,11.256 C200.458,3.744 215.237,-0.014 231.882,-0.014 C247.427,-0.014 261.382,3.567 273.747,10.725 C286.112,17.886 295.690,28.035 302.481,41.174 C309.271,54.314 312.668,69.341 312.668,86.256 C312.668,103.566 309.153,118.988 302.128,132.519 C295.101,146.052 285.209,156.517 272.452,163.912 ZM261.558,47.665 C254.178,37.751 243.933,32.795 230.822,32.795 C217.633,32.795 207.073,37.792 199.144,47.783 C191.213,57.776 187.250,71.073 187.250,87.672 C187.250,104.195 191.136,117.394 198.909,127.267 C206.681,137.142 217.004,142.078 229.880,142.078 C242.991,142.078 253.392,137.299 261.087,127.739 C268.781,118.180 272.628,105.062 272.628,88.381 C272.628,71.150 268.937,57.578 261.558,47.665 ZM39.398,164.797 C26.797,157.992 17.081,148.215 10.251,135.469 C3.421,122.724 0.006,107.933 0.006,91.095 C0.006,73.551 3.813,57.796 11.429,43.829 C19.043,29.865 29.741,19.066 43.519,11.434 C57.298,3.803 72.784,-0.014 89.977,-0.014 C106.228,-0.014 120.124,2.071 131.665,6.241 L131.665,42.944 C120.202,36.178 107.327,32.795 93.039,32.795 C77.100,32.795 64.284,37.869 54.589,48.019 C44.892,58.168 40.045,71.622 40.045,88.381 C40.045,104.826 44.677,117.885 53.941,127.562 C63.204,137.240 75.531,142.078 90.919,142.078 C105.678,142.078 119.259,138.461 131.665,131.221 L131.665,166.036 C119.418,172.016 103.323,175.005 83.382,175.005 C66.660,175.005 51.998,171.603 39.398,164.797 ZM81.211,399.142 L126.977,527.762 L95.389,527.762 L86.236,499.150 L40.470,499.150 L31.406,527.762 L-0.002,527.762 L46.841,399.142 L81.211,399.142 ZM79.595,476.906 L65.776,433.674 C64.699,430.265 63.981,426.409 63.622,422.103 L62.904,422.103 C62.545,425.870 61.796,429.608 60.661,433.315 L46.662,476.906 L79.595,476.906 ZM116.222,200.818 L152.139,200.818 L152.139,370.055 L113.749,370.055 L44.151,263.722 C40.067,257.507 37.241,252.825 35.672,249.677 L35.201,249.677 C35.828,255.973 36.143,265.099 36.143,277.057 L36.143,370.055 L0.225,370.055 L0.225,200.818 L41.207,200.818 L108.214,303.847 L116.693,317.655 L117.164,317.655 C116.535,313.565 116.222,305.815 116.222,294.406 L116.222,200.818 ZM222.680,370.055 L222.680,231.857 L174.750,231.857 L174.750,200.818 L309.000,200.818 L309.000,231.857 L260.835,231.857 L260.835,370.055 L222.680,370.055 ZM172.692,405.689 C183.191,399.890 194.992,396.989 208.093,396.989 C220.477,396.989 231.066,398.574 239.861,401.743 L239.861,429.637 C231.125,424.495 221.314,421.924 210.427,421.924 C198.281,421.924 188.515,425.781 181.127,433.494 C173.738,441.208 170.044,451.433 170.044,464.169 C170.044,476.667 173.574,486.593 180.633,493.947 C187.692,501.302 197.085,504.980 208.811,504.980 C220.058,504.980 230.407,502.230 239.861,496.728 L239.861,523.187 C230.528,527.732 218.263,530.004 203.068,530.004 C190.325,530.004 179.153,527.418 169.551,522.246 C159.949,517.074 152.545,509.644 147.341,499.957 C142.136,490.270 139.533,479.029 139.533,466.232 C139.533,452.899 142.434,440.925 148.238,430.310 C154.040,419.697 162.192,411.490 172.692,405.689 Z"/>
</svg>