<svg xmlns="http://www.w3.org/2000/svg" x="0px" y="0px" viewBox="0 0 30 30" xml:space="preserve">
<path d="M29.195,24.06c-0.367-0.417-0.984-0.829-1.849-1.235c-0.581-0.274-0.965-0.504-1.15-0.689
	c-0.189-0.189-0.29-0.448-0.28-0.715c-0.008-0.271,0.125-0.524,0.35-0.678c0.231-0.168,0.547-0.251,0.948-0.251
	c0.757-0.012,1.501,0.212,2.127,0.641v-1.916c-0.594-0.236-1.34-0.353-2.244-0.353c-1.02,0-1.837,0.247-2.45,0.745
	c-0.615,0.498-0.924,1.16-0.924,1.983c0,1.137,0.706,2.036,2.114,2.694c0.694,0.325,1.152,0.589,1.379,0.795
	c0.214,0.179,0.337,0.444,0.337,0.725c0.008,0.271-0.125,0.524-0.352,0.678c-0.233,0.173-0.564,0.256-0.996,0.256
	c-0.891,0-1.705-0.312-2.443-0.934v2.051c0.639,0.341,1.438,0.512,2.393,0.512c1.12,0,2.002-0.24,2.638-0.718
	c0.635-0.479,0.954-1.155,0.954-2.026C29.746,25.002,29.563,24.478,29.195,24.06z M22.504,26.529h-3.463v-2.103h3.026v-1.681h-3.026
	v-2.045h3.251v-1.687h-5.334v9.192h5.548v-1.678H22.504z M19.164,16.092h-1.813l2.027,2.071h1.462L19.164,16.092z M15.59,25.94
	c-0.678,0.392-1.448,0.595-2.23,0.589c-0.844,0-1.519-0.262-2.026-0.788c-0.507-0.525-0.761-1.235-0.76-2.128
	c0-0.912,0.265-1.643,0.796-2.193s1.233-0.827,2.105-0.825c0.743-0.013,1.474,0.178,2.116,0.549v-1.991
	c-0.632-0.229-1.394-0.342-2.283-0.342c-0.888-0.014-1.765,0.2-2.545,0.621c-0.744,0.404-1.354,1.016-1.758,1.762
	c-0.425,0.787-0.64,1.67-0.625,2.566c0,0.915,0.187,1.719,0.561,2.41c0.361,0.679,0.917,1.234,1.597,1.593
	c0.69,0.369,1.494,0.556,2.409,0.556c1.093,0,1.975-0.162,2.646-0.488L15.59,25.94L15.59,25.94z M7.212,25.94
	c-0.677,0.392-1.448,0.595-2.231,0.589c-0.843,0-1.519-0.262-2.026-0.788c-0.507-0.525-0.761-1.235-0.761-2.128
	c0-0.912,0.266-1.643,0.797-2.193c0.53-0.551,1.232-0.827,2.105-0.825c0.743-0.013,1.474,0.178,2.116,0.549v-1.991
	c-0.632-0.229-1.394-0.342-2.284-0.342c-0.887-0.014-1.763,0.2-2.544,0.621c-0.744,0.404-1.355,1.016-1.758,1.762
	C0.202,21.98-0.014,22.863,0,23.76c0,0.915,0.187,1.719,0.561,2.41c0.361,0.679,0.917,1.234,1.597,1.593
	c0.69,0.369,1.494,0.556,2.409,0.556c1.093,0,1.974-0.162,2.645-0.488V25.94L7.212,25.94z M22.824,2.316h-3.141v8.198
	c0,2.175-0.867,3.263-2.597,3.263c-1.765,0-2.647-1.125-2.647-3.379V2.316h-3.151v8.042c0,4.085,1.893,6.128,5.681,6.128
	c3.901,0,5.854-2.091,5.854-6.274V2.316L22.824,2.316z M8.268,9.96C7.713,9.325,6.783,8.701,5.481,8.086
	C4.605,7.672,4.027,7.323,3.745,7.042C3.459,6.754,3.307,6.362,3.321,5.958C3.312,5.55,3.51,5.164,3.847,4.934
	c0.35-0.256,0.827-0.384,1.43-0.384c1.145-0.017,2.267,0.323,3.21,0.971V2.617C7.591,2.261,6.464,2.083,5.101,2.083
	c-1.536,0-2.769,0.377-3.696,1.132c-0.927,0.754-1.39,1.756-1.39,3.005c0,1.722,1.063,3.083,3.189,4.08
	c1.044,0.492,1.736,0.893,2.076,1.204c0.324,0.273,0.51,0.674,0.511,1.098c0.009,0.411-0.19,0.798-0.53,1.029
	c-0.353,0.26-0.854,0.39-1.502,0.389c-1.342,0-2.571-0.473-3.686-1.418v3.107c0.966,0.519,2.168,0.777,3.608,0.777
	c1.692,0,3.018-0.362,3.978-1.088c0.96-0.725,1.44-1.748,1.44-3.068C9.099,11.385,8.822,10.594,8.268,9.96z"/>
</svg>
