<svg xmlns="http://www.w3.org/2000/svg" x="0px" y="0px" viewBox="0 0 323 378" xml:space="preserve">
    <path d="M322.020,374.972 L275.656,374.972 L245.755,318.310 C244.786,316.611 243.615,312.728 242.244,306.661 L241.760,306.661 C241.194,309.251 239.863,313.295 237.765,318.795 L207.743,374.972 L161.136,374.972 L216.459,287.976 L165.857,200.980 L213.433,200.980 L238.249,253.153 C240.266,257.279 242.002,262.174 243.455,267.835 L243.939,267.835 C244.907,264.276 246.723,259.220 249.386,252.668 L276.987,200.980 L320.568,200.980 L268.513,287.248 L322.020,374.972 ZM122.961,0.980 L222.995,0.980 L222.995,32.891 L162.031,32.891 L162.031,71.596 L218.761,71.596 L218.761,103.385 L162.031,103.385 L162.031,143.183 L226.987,143.183 L226.987,174.972 L122.961,174.972 L122.961,0.980 ZM143.576,200.980 L143.576,299.624 C143.576,351.879 119.284,378.005 70.700,378.005 C23.567,378.005 0.003,352.486 0.003,301.444 L0.003,200.980 L39.225,200.980 L39.225,301.929 C39.225,330.079 50.200,344.153 72.153,344.153 C93.701,344.153 104.475,330.564 104.475,303.386 L104.475,200.980 L143.576,200.980 ZM25.292,178.005 C16.018,178.005 7.590,176.428 0.012,173.273 L0.012,136.509 C6.623,141.605 14.122,144.153 22.510,144.153 C40.331,144.153 49.242,130.888 49.242,104.356 L49.242,0.980 L88.191,0.980 L88.191,105.934 C88.191,129.229 82.767,147.066 71.922,159.441 C61.076,171.817 45.532,178.005 25.292,178.005 Z"/>
</svg>

