<?xml version="1.0" encoding="utf-8"?>
<svg version="1.1" xmlns="http://www.w3.org/2000/svg" xmlns:xlink="http://www.w3.org/1999/xlink" x="0px" y="0px"
	 viewBox="0 0 360 534.1" xml:space="preserve">
	<g>
		<g>
			<path class="st0" d="M47.2,175l30.4-56.5c2.1-5.5,3.5-9.6,4-12.2h0.5c1.4,6.1,2.6,10,3.6,11.7l30.3,57h46.9l-54.2-88.2L161.4,0
				h-44.1L89.3,52c-2.7,6.6-4.5,11.7-5.5,15.3h-0.5c-1.5-5.7-3.2-10.6-5.3-14.8L52.9,0H4.8L56,87.5L0,175H47.2z M285.4,160.9
				c11.5-9.4,17.2-22.1,17.2-38.1c0-11.1-3.8-20.4-11.5-28.1c-7.6-7.6-17.5-12.2-29.7-13.7v-0.5c10.3-2.8,18.6-7.8,24.8-15
				c6.2-7.2,9.4-15.4,9.4-24.5c0-12.9-5.3-23-15.9-30.2C269.2,3.6,254.2,0,234.7,0h-64v175h67.5C258.2,175,274,170.3,285.4,160.9z
				 M210.3,29h14.8c19.3,0,28.9,6.4,28.9,19.3c0,6.9-2.3,12.3-7,16.3c-4.7,3.9-11.1,5.9-19.3,5.9h-17.4V29z M210.3,146V99.8H232
				c9.1,0,16.3,2,21.4,5.9c5.1,3.9,7.7,9.5,7.7,16.5c0,7.4-2.6,13.2-7.9,17.4c-5.3,4.2-12.4,6.3-21.4,6.3H210.3z M161.7,334.1
				c7.3-14,11-29.9,11-47.8c0-17.5-3.5-33-10.6-46.6c-7.1-13.6-17-24.1-29.9-31.5c-12.9-7.4-27.4-11.1-43.6-11.1
				c-17.3,0-32.7,3.9-46.1,11.7c-13.4,7.8-23.8,18.7-31.1,32.8c-7.3,14.1-10.9,30.2-10.9,48.3c0,17.1,3.6,32.3,10.8,45.8
				c7.2,13.4,17.3,23.9,30.4,31.3c13.1,7.4,27.8,11.2,44.1,11.2c16.7,0,31.8-3.8,45-11.5C144.1,359,154.4,348.1,161.7,334.1z
				 M119,329.2c-8,9.9-18.8,14.8-32.5,14.8c-13.4,0-24.1-5.1-32.2-15.3c-8.1-10.2-12.1-23.9-12.1-41c0-17.2,4.1-30.9,12.4-41.3
				c8.2-10.3,19.2-15.5,33-15.5c13.6,0,24.3,5.1,32,15.4c7.7,10.3,11.5,24.3,11.5,42.1C131.1,305.7,127,319.3,119,329.2z
				 M270.3,286.8L323,200h-44.1L251,252c-2.7,6.6-4.5,11.7-5.5,15.3H245c-1.5-5.7-3.2-10.6-5.3-14.8L214.6,200h-48.1l51.2,87.5
				l-56,87.5h47.2l30.4-56.5c2.1-5.5,3.5-9.6,4-12.2h0.5c1.4,6.1,2.6,10,3.6,11.7l30.3,57h46.9L270.3,286.8z M30.4,398.1H0v136h80.5
				v-24.8h-50V398.1z M95.5,534.1h30.4v-136H95.5V534.1z M206.1,492.4c-1.4,4.6-2.4,9.3-2.9,13.9h-0.6c-0.3-3.8-1.2-8.3-2.7-13.6
				l-28.2-94.6h-32.8l46,136h34.5l46.5-136h-31.8L206.1,492.4z M309.4,509.2v-31.1h44.2v-24.8h-44.2V423h47.5v-24.9H279v136h81v-24.8
				H309.4z"/>
		</g>
	</g>
</svg>
