<?xml version="1.0" encoding="utf-8"?>
<svg fill="#5DC21E" version="1.1" xmlns="http://www.w3.org/2000/svg" xmlns:xlink="http://www.w3.org/1999/xlink" x="0px" y="0px"
	 viewBox="0 0 360 353" xml:space="preserve">
	<path d="M114.4,3h-48L1,181.9h43.8l12.7-39.8h63.9l12.8,39.8h44.1L114.4,3z M66.2,111.2l19.5-60.6
		c1.6-5.2,2.6-10.4,3.1-15.6h1c0.5,6,1.5,11.4,3,16.1l19.3,60.1H66.2z"/>
	<path d="M309,138.7c-13.2,7.7-27.6,11.5-43.3,11.5c-16.4,0-29.5-5.1-39.3-15.3c-9.9-10.2-14.8-24-14.8-41.4
		c0-17.7,5.2-31.9,15.5-42.7C237.3,40,251,34.7,267.9,34.7c15.2,0,28.9,3.6,41.1,10.7V6.6C296.7,2.2,282,0,264.7,0
		c-18.3,0-34.8,4-49.4,12.1c-14.7,8.1-26,19.5-34.1,34.2C173,61.1,169,77.8,169,96.3c0,17.8,3.6,33.4,10.9,46.9
		c7.3,13.5,17.6,23.8,31,31c13.4,7.2,29,10.8,46.8,10.8c21.2,0,38.3-3.2,51.4-9.5V138.7z"/>
	<path d="M117.3,203.5H0v27h41.9v120h33.3v-120h42.1V203.5z"/>
	<path d="M251.2,203.5H218V290c0,23-9.2,34.4-27.5,34.4c-18.7,0-28-11.9-28-35.7v-85.3h-33.3v84.9
		c0,43.1,20,64.7,60.1,64.7c41.3,0,61.9-22.1,61.9-66.2V203.5z"/>
	<path d="M351.2,284.1c-5.9-6.7-15.7-13.3-29.5-19.8c-9.3-4.4-15.4-8-18.4-11c-3-3-4.5-6.8-4.5-11.4
		c0-4.5,1.9-8.1,5.6-10.8c3.7-2.7,8.7-4,15.1-4c12.7,0,24,3.4,33.9,10.2v-30.6c-9.5-3.8-21.4-5.6-35.8-5.6c-16.3,0-29.3,4-39.1,11.9
		c-9.8,8-14.7,18.5-14.7,31.7c0,18.2,11.2,32.5,33.7,43c11,5.2,18.4,9.4,22,12.7c3.6,3.3,5.4,7.1,5.4,11.6c0,4.5-1.9,8.1-5.6,10.9
		c-3.7,2.7-9,4.1-15.9,4.1c-14.2,0-27.2-5-39-15v32.8c10.2,5.5,22.9,8.2,38.2,8.2c17.9,0,31.9-3.8,42.1-11.5
		c10.1-7.7,15.2-18.4,15.2-32.4C360,299.1,357.1,290.8,351.2,284.1z"/>
</svg>
