<?xml version="1.0" standalone="no"?>
<!DOCTYPE svg PUBLIC "-//W3C//DTD SVG 1.1//EN" "http://www.w3.org/Graphics/SVG/1.1/DTD/svg11.dtd" >
<svg>
<metadata>
Created by FontForge 20090914 at Mon Dec  7 17:07:11 2015
 By www-data
&#194;&#169; 2012 Microsoft Corporation. All Rights Reserved.
</metadata>
<defs>
<font id="SegoePro-BoldItalic" horiz-adv-x="1225" >
  <font-face 
    font-family="Segoe Pro"
    font-weight="700"
    font-style="italic"
    font-stretch="normal"
    units-per-em="2048"
    panose-1="2 11 8 2 4 5 4 9 2 3"
    ascent="1638"
    descent="-410"
    x-height="1024"
    cap-height="1434"
    bbox="-492 -590.001 2575 2181"
    underline-thickness="119"
    underline-position="-119"
    slope="-12"
    unicode-range="U+000D-U+FB02"
  />
<missing-glyph horiz-adv-x="1024" 
d="M128 0v750h768v-750h-768zM256 128h512v494h-512v-494z" />
    <glyph glyph-name=".notdef" horiz-adv-x="1024" 
d="M128 0v750h768v-750h-768zM256 128h512v494h-512v-494z" />
    <glyph glyph-name="uni000D" unicode="&#xd;" horiz-adv-x="0" 
 />
    <glyph glyph-name="space" unicode=" " horiz-adv-x="479" 
 />
    <glyph glyph-name="exclam" unicode="!" horiz-adv-x="709" 
d="M463 446h-256l172 988h332zM465 150c0 -49.333 -18 -90.5 -54 -123.5s-81.667 -49.5 -137 -49.5c-50 0 -92.167 14.833 -126.5 44.5s-51.5 66.834 -51.5 111.501c0 51.333 18.5 93.166 55.5 125.499s82.833 48.5 137.5 48.5c50 0 91.833 -15 125.5 -45
s50.5 -67.333 50.5 -112z" />
    <glyph glyph-name="quotedbl" unicode="&#x22;" horiz-adv-x="1010" 
d="M930 1008h-201l-31 444h263zM535 1008h-203l-29 444h262z" />
    <glyph glyph-name="numbersign" unicode="#" horiz-adv-x="1171" 
d="M1163 889h-184l-55 -248h206l-45 -180h-198l-78 -346h-201l74 346h-229l-74 -346h-201l72 346h-187l37 180h189l53 248h-203l35 180h205l74 356h204l-73 -356h229l76 356h203l-74 -356h184zM545 889l-56 -248h232l55 248h-231z" />
    <glyph glyph-name="dollar" unicode="$" horiz-adv-x="1180" 
d="M1092 1124c-90.667 46 -184.332 75.999 -280.999 89.999l-84 -395c105.333 -47.333 185.333 -104 240 -170s82 -138.333 82 -217c0 -138.667 -43.5 -246.167 -130.5 -322.5s-209.5 -116.833 -367.5 -121.5l-43 -197h-143l41 201c-53.333 4 -112.833 15 -178.5 33
s-120.5 37 -164.5 57l54 252c44.667 -27.333 99.167 -51.833 163.5 -73.5s122.5 -35.5 174.5 -41.5l82 383c-120 58.667 -205 120.667 -255 186s-75 141.333 -75 228c0 128.667 45.5 231.334 136.5 308.001s214.833 116.667 371.5 120l37 176h145l-39 -182
c49.333 -4 100.666 -13 153.999 -27s97 -28.333 131 -43zM666.002 1212c-56 -1.33301 -101.167 -17.5 -135.5 -48.5s-51.5 -71.5 -51.5 -121.5c0 -38.667 10.167 -70.167 30.5 -94.5s48.5 -47.833 84.5 -70.5zM778.002 394.999c0 31.333 -8.66895 58.333 -26.002 81
s-44.666 45 -81.999 67l-72 -326c54.667 2 98.334 19.833 131.001 53.5s49 75.167 49 124.5z" />
    <glyph glyph-name="percent" unicode="%" horiz-adv-x="1778" 
d="M1686 420c0 -80 -18.166 -155.669 -54.499 -227.002s-84.333 -124.666 -144 -159.999s-126.834 -53 -201.501 -53c-68 0 -126.167 13.333 -174.5 40s-85.166 63.667 -110.499 111s-38 100 -38 158c0 79.333 18.333 154.333 55 225s85.167 123.834 145.5 159.501
s129.166 53.5 206.499 53.5c97.333 0 174.333 -27.333 231 -82s85 -129.667 85 -225zM428.001 -0.00195312h-246l1239 1434h246zM893.001 1149c0 -78 -16.667 -151.332 -50 -219.999s-80 -122.834 -140 -162.501s-130.333 -59.5 -211 -59.5c-68 0 -126.167 13.5 -174.5 40.5
s-85 64.167 -110 111.5s-37.5 100.333 -37.5 159c0 78 18 152.167 54 222.5s84.5 123.5 145.5 159.5s130.5 54 208.5 54c96 0 172.5 -26.833 229.5 -80.5s85.5 -128.5 85.5 -224.5zM1470 415.999c0 42 -9.66797 75.334 -29.001 100.001s-45.666 37 -78.999 37
c-36 0 -67.667 -12.333 -95 -37s-49 -57.5 -65 -98.5s-24 -83.833 -24 -128.5c0 -40.667 10 -73.334 30 -98.001s48 -37 84 -37c51.333 0 93.833 26 127.5 78s50.5 113.333 50.5 184zM678 1143c0 43.333 -9.66699 77.333 -29 102s-46 37 -80 37
c-36 0 -67.667 -12.333 -95 -37s-49 -57.5 -65 -98.5s-24 -83.833 -24 -128.5c0 -41.333 10.167 -74.5 30.5 -99.5s48.5 -37.5 84.5 -37.5c50.667 0 93 26 127 78s51 113.333 51 184z" />
    <glyph glyph-name="ampersand" unicode="&#x26;" horiz-adv-x="1505" 
d="M1440 768c-20 -86.667 -54.499 -172.999 -103.499 -258.999s-106.833 -162 -173.5 -228l203 -281h-342l-78 111c-134 -90.667 -284.667 -136 -452 -136c-94 0 -173.5 15.5 -238.5 46.5s-114.333 74 -148 129s-50.5 118.833 -50.5 191.5c0 100 32.333 186.333 97 259
s172.334 138.667 323.001 198c-61.333 96 -92 189.333 -92 280c0 69.333 18.667 133.166 56 191.499s90.166 104.166 158.499 137.499s147.166 50 236.499 50c116.667 0 210 -28.667 280 -86s105 -132.333 105 -225c0 -86.667 -31.333 -161.667 -94 -225
s-159 -120 -289 -170l25.5 -36.5l34 -49.5l38.5 -55.5l38 -54.5l33.5 -47.5l24.5 -33.5c72 88.667 119.333 186.334 142 293.001h266zM948.001 1133c0 36.667 -12.166 65.168 -36.499 85.501s-55.833 30.5 -94.5 30.5c-46 0 -83.833 -14.5 -113.5 -43.5
s-44.5 -65.5 -44.5 -109.5c0 -58.667 22.667 -119.667 68 -183c65.333 29.333 111.666 54.166 138.999 74.499s47.833 42.5 61.5 66.5s20.5 50.333 20.5 79zM823.002 291.002l-26.999 37l-210 305c-150.667 -66 -226 -150 -226 -252c0 -52 17.667 -95.667 53 -131
s82.666 -53 141.999 -53c96.667 0 186 31.333 268 94z" />
    <glyph glyph-name="quotesingle" unicode="'" horiz-adv-x="600" 
d="M528 1010h-200l-29 442h262z" />
    <glyph glyph-name="parenleft" unicode="(" horiz-adv-x="758" 
d="M956 1434c-184 -192 -317.997 -380.669 -401.997 -566.002s-126 -380.333 -126 -585c0 -106.667 12.167 -213.167 36.5 -319.5s59.166 -199.166 104.499 -278.499h-245c-50.667 78.667 -91.334 175 -122.001 289s-46 227.667 -46 341c0 212 44.167 412.333 132.5 601
s220.166 361.334 395.499 518.001h272z" />
    <glyph glyph-name="parenright" unicode=")" horiz-adv-x="758" 
d="M602 803c0 -428 -175.999 -800.665 -527.999 -1118h-273c183.333 189.333 317.333 376.666 402 561.999s127 381 127 587c0 105.333 -11.833 210.666 -35.5 315.999s-59.167 200 -106.5 284h246c51.333 -79.333 92.166 -176.333 122.499 -291s45.5 -228 45.5 -340z" />
    <glyph glyph-name="asterisk" unicode="*" horiz-adv-x="932" 
d="M682 1016l199 -211l-185 -125l-137 254l-137 -254l-182 125l198 211l-274 37l72 202l249 -108l-43 287h234l-43 -287l252 108l71 -202z" />
    <glyph glyph-name="plus" unicode="+" horiz-adv-x="1450" 
d="M846 485v-385h-203v385h-385v203h385v385h203v-385h385v-203h-385z" />
    <glyph glyph-name="comma" unicode="," horiz-adv-x="555" 
d="M150 -254h-259l232 506h297z" />
    <glyph glyph-name="hyphen" unicode="-" horiz-adv-x="827" 
d="M666 436h-547l47 221h547z" />
    <glyph glyph-name="period" unicode="." horiz-adv-x="555" 
d="M383 145c0 -48 -17.667 -88.334 -53 -121.001s-81 -49 -137 -49c-52 0 -94.833 14.833 -128.5 44.5s-50.5 66.834 -50.5 111.501c0 50 18.333 91.167 55 123.5s82.667 48.5 138 48.5c50.667 0 92.667 -14.833 126 -44.5s50 -67.5 50 -113.5z" />
    <glyph glyph-name="slash" unicode="/" horiz-adv-x="909" 
d="M92 -238h-317l1052 1672h318z" />
    <glyph glyph-name="zero" unicode="0" horiz-adv-x="1180" 
d="M1178 1004c0 -132 -16.166 -263 -48.499 -393s-77 -242.667 -134 -338s-126.167 -168.833 -207.5 -220.5s-176 -77.5 -284 -77.5c-130 0 -233.167 43.5 -309.5 130.5s-114.5 206.833 -114.5 359.5c0 168 28.833 331.333 86.5 490s136 282.167 235 370.5
s219.833 132.5 362.5 132.5c129.333 0 230.666 -41 303.999 -123s110 -192.333 110 -331zM868.001 1016c0 68.667 -11.333 119.331 -34 151.998s-53 49 -91 49c-64 0 -120.833 -36.833 -170.5 -110.5s-92.667 -179.667 -129 -318s-54.5 -257.166 -54.5 -356.499
c0 -70.667 12.833 -123.834 38.5 -159.501s58.5 -53.5 98.5 -53.5c64 0 119.333 38.333 166 115s87.667 182.834 123 318.501s53 256.834 53 363.501z" />
    <glyph glyph-name="one" unicode="1" horiz-adv-x="889" 
d="M222 0l243 1143l-319 -66l55 256l647 125l-309 -1458h-317z" />
    <glyph glyph-name="two" unicode="2" horiz-adv-x="1079" 
d="M1087 1096c0 -77.333 -11.834 -144.168 -35.501 -200.501s-55.667 -106.333 -96 -150s-87.166 -83.5 -140.499 -119.5s-109.666 -72 -168.999 -108c-102.667 -62.667 -176.667 -113.5 -222 -152.5s-71.333 -73.5 -78 -103.5h563l-55 -262h-909l22 108
c21.333 104 69.333 200.833 144 290.5s193.667 184.167 357 283.5c89.333 55.333 153.166 100 191.499 134s66.666 68.667 84.999 104s27.5 75.333 27.5 120c0 51.333 -17.833 91.833 -53.5 121.5s-85.5 44.5 -149.5 44.5c-118 0 -241.333 -42.333 -370 -127l63 289
c51.333 26.667 112.5 48.334 183.5 65.001s140.833 25 209.5 25c136.667 0 242.834 -32.167 318.501 -96.5s113.5 -152.833 113.5 -265.5z" />
    <glyph glyph-name="three" unicode="3" horiz-adv-x="1180" 
d="M1128 1118c0 -99.333 -33.5 -183.668 -100.5 -253.001s-157.5 -113.333 -271.5 -132v-4c84 -16 148.667 -51.167 194 -105.5s68 -122.166 68 -203.499c0 -88.667 -23.333 -166.667 -70 -234s-114.334 -119.333 -203.001 -156s-196.334 -55 -323.001 -55
c-141.333 0 -270.333 27.333 -387 82l55 256c48 -30 100.167 -53.5 156.5 -70.5s112.166 -25.5 167.499 -25.5c90.667 0 161.334 18.333 212.001 55s76 88.667 76 156c0 124 -92.667 186 -278 186h-123l51 242h152c95.333 0 170.333 18.333 225 55s82 88 82 154
c0 49.333 -17.667 87 -53 113s-84.666 39 -147.999 39c-100 0 -201.667 -24 -305 -72l55 256c118.667 38 236.334 57 353.001 57c130 0 231.667 -30.167 305 -90.5s110 -143.5 110 -249.5z" />
    <glyph glyph-name="four" unicode="4" horiz-adv-x="1157" 
d="M945 530h202.001l-50 -236h-202l-62 -294h-288l62 294h-625l52 247c164 148 317.667 300.667 461 458s259.666 302.333 348.999 435h293zM315.001 530h342.001l107 501c-116.667 -154.667 -266.334 -321.667 -449.001 -501z" />
    <glyph glyph-name="five" unicode="5" horiz-adv-x="1055" 
d="M1053 1176l-527 0.00195312l-61 -287c24 2.66699 46.333 4 67 4c137.333 0 244.5 -35.167 321.5 -105.5s115.5 -167.5 115.5 -291.5c0 -98 -27.333 -188.333 -82 -271s-127.834 -145 -219.501 -187s-198.167 -63 -319.5 -63c-68 0 -137.5 6.66699 -208.5 20
s-124.167 30.666 -159.5 51.999l55 256c34.667 -23.333 82.834 -43.5 144.501 -60.5s116.5 -25.5 164.5 -25.5c64.667 0 119.834 10.833 165.501 32.5s81 51 106 88s37.5 77.5 37.5 121.5c0 67.333 -21.333 116.166 -64 146.499s-109.334 45.5 -200.001 45.5
c-88.667 0 -172 -5.33301 -250 -16l172 799h797z" />
    <glyph glyph-name="six" unicode="6" horiz-adv-x="1180" 
d="M1130 1155c-68.667 41.333 -149.005 62.001 -241.005 62.001c-65.333 0 -128.666 -16.167 -189.999 -48.5s-115.666 -84.5 -162.999 -156.5s-82 -153.333 -104 -244h4c36 46.667 81.833 84 137.5 112s113.834 42 174.501 42c108 0 193 -35.333 255 -106s93 -168 93 -292
c0 -97.333 -22.167 -188.333 -66.5 -273s-106.333 -151.5 -186 -200.5s-170.5 -73.5 -272.5 -73.5c-147.333 0 -262.666 47.5 -345.999 142.5s-125 226.5 -125 394.5c0 175.333 35 337.166 105 485.499s166 261.833 288 340.5s259.333 118 412 118
c112.667 0 206.334 -15 281.001 -45zM792.995 496.001c0 61.333 -14.668 108.666 -44.001 141.999s-71.333 50 -126 50c-63.333 0 -115 -24.667 -155 -74s-60 -110 -60 -182c0 -66.667 15.833 -118.167 47.5 -154.5s73.834 -54.5 126.501 -54.5
c60.667 0 111 26.833 151 80.5s60 117.834 60 192.501z" />
    <glyph glyph-name="seven" unicode="7" horiz-adv-x="1067" 
d="M414 0l-330 -0.000976562c73.333 194 168.5 387 285.5 579s261.5 391 433.5 597h-668l55 258h1000l-38 -182c-152.667 -198.667 -270.5 -361.167 -353.5 -487.5s-155.833 -251.666 -218.5 -375.999s-118 -253.833 -166 -388.5z" />
    <glyph glyph-name="eight" unicode="8" horiz-adv-x="1210" 
d="M1213 1101c0 -93.333 -29.001 -172.502 -87.001 -237.502s-138.667 -110.167 -242 -135.5c140.667 -62.667 211 -165 211 -307c0 -83.333 -23.5 -159.166 -70.5 -227.499s-113.5 -121.5 -199.5 -159.5s-185 -57 -297 -57c-100.667 0 -187.5 16.333 -260.5 49
s-128.5 78.167 -166.5 136.5s-57 126.833 -57 205.5c0 104.667 31 192 93 262s152.333 118.667 271 146c-104 66 -156 155.667 -156 269c0 78.667 20.333 149.334 61 212.001s98.834 111.834 174.501 147.501s167.5 53.5 275.5 53.5c138 0 247.5 -31.833 328.5 -95.5
s121.5 -150.834 121.5 -261.501zM552.999 1022c0 -52 14.501 -91.332 43.501 -117.999s65.833 -40 110.5 -40c56.667 0 104 19.667 142 59s57 86.666 57 141.999c0 50 -14.333 89.167 -43 117.5s-68 42.5 -118 42.5c-58.667 0 -105.334 -18.333 -140.001 -55
s-52 -86 -52 -148zM358 389.999c0 -57.333 17.167 -102.669 51.5 -136.002s80.5 -50 138.5 -50c66 0 120 21.333 162 64s63 99.334 63 170.001c0 54 -16.5 97.5 -49.5 130.5s-77.167 49.5 -132.5 49.5c-72.667 0 -129.667 -20.667 -171 -62s-62 -96.666 -62 -165.999z" />
    <glyph glyph-name="nine" unicode="9" horiz-adv-x="1180" 
d="M1155 922c0 -129.333 -19.668 -253.167 -59.001 -371.5s-94.333 -220.5 -165 -306.5s-152.834 -152 -246.501 -198s-206.5 -69 -338.5 -69c-62.667 0 -118 4.83301 -166 14.5s-84.667 20.167 -110 31.5l45 256c30 -17.333 68.167 -31.666 114.5 -42.999
s89.833 -17 130.5 -17c116.667 0 214.334 38.167 293.001 114.5s135.334 187.166 170.001 332.499h-4c-82 -104 -183 -156 -303 -156c-109.333 0 -196.666 37 -261.999 111s-98 170.667 -98 290c0 101.333 24 196 72 284s111.5 154.167 190.5 198.5s169.5 66.5 271.5 66.5
c143.333 0 256.666 -48.667 339.999 -146s125 -228 125 -392zM851.999 998.999c0 58.667 -16 108.832 -48 150.499s-73.333 62.5 -124 62.5c-62.667 0 -114.167 -26.333 -154.5 -79s-60.5 -117 -60.5 -193c0 -61.333 15 -109.833 45 -145.5s70.333 -53.5 121 -53.5
c64.667 0 117.667 24.333 159 73s62 110.334 62 185.001z" />
    <glyph glyph-name="colon" unicode=":" horiz-adv-x="555" 
d="M537 879c0 -50.667 -18.502 -91.999 -55.502 -123.999s-82.833 -48 -137.5 -48c-49.333 0 -91 14.5 -125 43.5s-51 66.167 -51 111.5c0 51.333 17.833 93.166 53.5 125.499s81.834 48.5 138.501 48.5c50.667 0 92.834 -15 126.501 -45s50.5 -67.333 50.5 -112z
M382.998 145.001c0 -48 -17.667 -88.334 -53 -121.001s-81 -49 -137 -49c-52 0 -94.833 14.833 -128.5 44.5s-50.5 66.834 -50.5 111.501c0 50 18.333 91.167 55 123.5s82.667 48.5 138 48.5c50.667 0 92.667 -14.833 126 -44.5s50 -67.5 50 -113.5z" />
    <glyph glyph-name="semicolon" unicode=";" horiz-adv-x="555" 
d="M537 879c0 -50.667 -18.502 -91.999 -55.502 -123.999s-82.833 -48 -137.5 -48c-49.333 0 -91 14.5 -125 43.5s-51 66.167 -51 111.5c0 51.333 17.833 93.166 53.5 125.499s81.834 48.5 138.501 48.5c50.667 0 92.834 -15 126.501 -45s50.5 -67.333 50.5 -112z
M118.998 -253.999h-256l229 506h299z" />
    <glyph glyph-name="less" unicode="&#x3c;" horiz-adv-x="1450" 
d="M229 489v164l934 445v-238l-665 -287v-4l665 -268v-235z" />
    <glyph glyph-name="equal" unicode="=" horiz-adv-x="1450" 
d="M258 700v205h973v-205h-973zM258 266v203h973v-203h-973z" />
    <glyph glyph-name="greater" unicode="&#x3e;" horiz-adv-x="1450" 
d="M307 76v237l668 267v4l-668 286v238l936 -444v-162z" />
    <glyph glyph-name="question" unicode="?" horiz-adv-x="920" 
d="M995 1133c0 -80.667 -23.168 -154.669 -69.501 -222.002s-119.166 -132 -218.499 -194c-63.333 -38.667 -109.333 -78.167 -138 -118.5s-49.667 -95.166 -63 -164.499h-260c16 79.333 33 140.666 51 183.999s41.167 82.333 69.5 117s63.166 66 104.499 94
c84 58.667 139.833 105.334 167.5 140.001s41.5 70 41.5 106c0 41.333 -15.5 74.833 -46.5 100.5s-72.833 38.5 -125.5 38.5c-108 0 -209.667 -30 -305 -90l57 277c46 20.667 99 37.334 159 50.001s117 19 171 19c86.667 0 160.334 -14 221.001 -42
s106.5 -67.333 137.5 -118s46.5 -109.667 46.5 -177zM515.999 149.998c0 -49.333 -17.999 -90.501 -53.999 -123.501s-82 -49.5 -138 -49.5c-50.667 0 -92.834 15 -126.501 45s-50.5 67 -50.5 111c0 52.667 18.333 94.834 55 126.501s82.667 47.5 138 47.5
c50 0 91.833 -15 125.5 -45s50.5 -67.333 50.5 -112z" />
    <glyph glyph-name="at" unicode="@" horiz-adv-x="1954" 
d="M1860 811c0 -114.667 -22.998 -221.665 -68.998 -320.998s-109.333 -175.833 -190 -229.5s-172 -80.5 -274 -80.5c-45.333 0 -84.5 6.66699 -117.5 20s-58.833 32 -77.5 56s-28 50 -28 78c0 12 1.33301 23.667 4 35h-6c-74 -126 -167.667 -189 -281 -189
c-78 0 -140.167 30.167 -186.5 90.5s-69.5 140.166 -69.5 239.499c0 98 22.167 191.5 66.5 280.5s102.833 158.333 175.5 208s152.667 74.5 240 74.5c46.667 0 86 -9.83301 118 -29.5s53.333 -45.834 64 -78.501h4l24 90h226c-37.333 -124.667 -73 -252.334 -107 -383.001
s-51 -210.667 -51 -240c0 -28 5.66699 -47.333 17 -58s28.333 -16 51 -16c42.667 0 84.167 20.667 124.5 62s72.333 95.833 96 163.5s35.5 137.5 35.5 209.5c0 97.333 -21.167 181.833 -63.5 253.5s-104.666 127.167 -186.999 166.5s-182.5 59 -300.5 59
c-134.667 0 -257 -31 -367 -93s-196.167 -149.667 -258.5 -263s-93.5 -239.666 -93.5 -378.999c0 -175.333 50.5 -310.333 151.5 -405s246.5 -142 436.5 -142c89.333 0 178.5 8.33301 267.5 25s159.5 37.667 211.5 63l-35 -193c-42 -19.333 -108 -36.333 -198 -51
s-180.333 -22 -271 -22c-162.667 0 -303.334 28.833 -422.001 86.5s-209.334 140.667 -272.001 249s-94 236.5 -94 384.5c0 173.333 40.667 330.333 122 471s195.166 250.667 341.499 330s312.5 119 498.5 119c154 0 286.833 -26 398.5 -78s197.167 -126.5 256.5 -223.5
s89 -210.167 89 -339.5zM1171 784.002c0 38 -10.168 66.999 -30.501 86.999s-46.833 30 -79.5 30c-46.667 0 -90 -18.167 -130 -54.5s-71.667 -84.166 -95 -143.499s-35 -121 -35 -185c0 -51.333 10 -90.833 30 -118.5s47.333 -41.5 82 -41.5
c41.333 0 81.333 20.833 120 62.5s71.334 100.167 98.001 175.5s40 138 40 188z" />
    <glyph glyph-name="A" unicode="A" horiz-adv-x="1440" 
d="M985 0l-41 319h-514l-168 -319h-364l827 1434h385l205 -1434h-330zM867 1087c0 44.667 1 75 3 91h-6c-6.66699 -30.667 -23.667 -71.667 -51 -123l-262 -488h369l-52 484z" />
    <glyph glyph-name="B" unicode="B" horiz-adv-x="1327" 
d="M1296 1110c0 -92.667 -30.168 -170.331 -90.501 -232.998s-144.833 -104.334 -253.5 -125.001v-4c84.667 -12.667 151.334 -45 200.001 -97s73 -118 73 -198c0 -138.667 -53.833 -248.834 -161.5 -330.501s-256.167 -122.5 -445.5 -122.5h-569l305 1434h508
c141.333 0 249 -28 323 -84s111 -136 111 -240zM955.999 1047c0 99.333 -64.667 149 -194 149h-133l-74 -340h152c76 0 136.5 17 181.5 51s67.5 80.667 67.5 140zM882.999 451.003c0 50 -17.332 89.999 -51.999 119.999s-86.334 45 -155.001 45h-170l-82 -378h180
c90 0 159 18.833 207 56.5s72 89.834 72 156.501z" />
    <glyph glyph-name="C" unicode="C" horiz-adv-x="1300" 
d="M1313 1087c-62.667 33.333 -120.333 56.498 -173 69.498s-105.667 19.5 -159 19.5c-106 0 -199.667 -23.5 -281 -70.5s-144 -112.5 -188 -196.5s-66 -177.333 -66 -280c0 -118 33.833 -210 101.5 -276s160.834 -99 279.501 -99c116 0 232.333 30 349 90l-68 -305
c-102 -42.667 -223.667 -64 -365 -64c-198 0 -354 56.333 -468 169s-171 264 -171 454c0 168.667 37.167 319.334 111.5 452.001s178.666 233.834 312.999 303.501s291.833 104.5 472.5 104.5c126.667 0 253 -21.667 379 -65z" />
    <glyph glyph-name="D" unicode="D" horiz-adv-x="1542" 
d="M1499 854c0 -169.333 -35.666 -319.667 -106.999 -451s-172.5 -231.333 -303.5 -300s-284.167 -103 -459.5 -103h-580l305 1434h504c132 0 246.667 -23.667 344 -71s171.166 -114.5 221.499 -201.5s75.5 -189.5 75.5 -307.5zM1157 828.999c0 112 -32 197 -96 255
s-157.667 87 -281 87h-157l-193 -909h197c161.333 0 290 51.5 386 154.5s144 240.5 144 412.5z" />
    <glyph glyph-name="E" unicode="E" horiz-adv-x="1085" 
d="M1124 1171h-501l-68 -323h467l-57 -264h-465l-70 -322h535l-56 -262h-860l305 1434h826z" />
    <glyph glyph-name="F" unicode="F" horiz-adv-x="1067" 
d="M1128 1167h-505l-74 -346h465l-58 -266h-464l-117 -555h-326l305 1434h830z" />
    <glyph glyph-name="G" unicode="G" horiz-adv-x="1452" 
d="M1370 1081c-50 34 -109.166 60.332 -177.499 78.999s-134.833 28 -199.5 28c-164 0 -295.333 -50.667 -394 -152s-148 -237.666 -148 -408.999c0 -121.333 32 -215.833 96 -283.5s150.667 -101.5 260 -101.5c55.333 0 106.666 7.33301 153.999 22l61 291h-291l55 258h613
l-154 -727c-151.333 -74 -312.333 -111 -483 -111c-131.333 0 -246.166 25.667 -344.499 77s-174 125.5 -227 222.5s-79.5 209.5 -79.5 337.5c0 164 37.5 311.5 112.5 442.5s180.167 231 315.5 300s291.666 103.5 468.999 103.5c143.333 0 285.333 -27.333 426 -82z" />
    <glyph glyph-name="H" unicode="H" horiz-adv-x="1565" 
d="M1290 0h-325l122 580h-589l-123 -580h-326l305 1434h326l-123 -572h590l123 572h325z" />
    <glyph glyph-name="I" unicode="I" horiz-adv-x="649" 
d="M375 0h-326l303 1434h326z" />
    <glyph glyph-name="I" unicode="&#x406;" horiz-adv-x="649" 
d="M375 0h-326l303 1434h326z" />
    <glyph glyph-name="J" unicode="J" horiz-adv-x="907" 
d="M131 -25c-28.667 0 -65.332 4.16797 -109.999 12.501s-80.334 18.5 -107.001 30.5l59 299c22.667 -18.667 51.167 -33.834 85.5 -45.501s63.833 -17.5 88.5 -17.5c75.333 0 136.833 26.5 184.5 79.5s83.167 135.833 106.5 248.5l183 852h325l-184 -861
c-84 -398.667 -294.333 -598 -631 -598z" />
    <glyph glyph-name="J" unicode="&#x408;" horiz-adv-x="907" 
d="M131 -25c-28.667 0 -65.332 4.16797 -109.999 12.501s-80.334 18.5 -107.001 30.5l59 299c22.667 -18.667 51.167 -33.834 85.5 -45.501s63.833 -17.5 88.5 -17.5c75.333 0 136.833 26.5 184.5 79.5s83.167 135.833 106.5 248.5l183 852h325l-184 -861
c-84 -398.667 -294.333 -598 -631 -598z" />
    <glyph glyph-name="K" unicode="K" horiz-adv-x="1333" 
d="M1509 1434c-41.333 -52 -149.998 -168.332 -325.998 -348.999c-176.667 -181.333 -285.667 -298 -327 -350c23.333 -59.333 88 -181.666 194 -366.999c105.333 -186 169.666 -308.667 192.999 -368h-393c-14 41.333 -64 144.666 -150 309.999
c-88.667 170 -139 272.667 -151 308c-10 21.333 -18.333 45.333 -25 72h-4l-145 -690h-326l305 1434h326l-141 -666h4c38 51.333 142 172.666 312 363.999c149.333 168 235.666 268.667 258.999 302h395z" />
    <glyph glyph-name="L" unicode="L" horiz-adv-x="1049" 
d="M905 0h-856l305 1434h326l-248 -1168h529z" />
    <glyph glyph-name="M" unicode="M" horiz-adv-x="1968" 
d="M1694 0l-320 0.000976562l195 922l43 176l12 49h-6l-21 -49c-30 -70.667 -50.333 -115 -61 -133l-547 -965h-256l-145 954c-5.33301 32 -8 96.333 -8 193h-7c-16 -120 -31.667 -217 -47 -291l-182 -856h-295l303 1434h451l137 -914c4.66699 -34.667 7 -71.334 7 -110.001
l-1 -33h6c25.333 72.667 45.333 121.667 60 147l506 910h479z" />
    <glyph glyph-name="N" unicode="N" horiz-adv-x="1636" 
d="M1362 0l-295 -0.000976562l-449 911c-6 12 -15.167 32.5 -27.5 61.5s-19.5 48.167 -21.5 57.5h-6c-12 -88.667 -21.333 -146.667 -28 -174l-183 -856h-303l303 1434h320l430 -877l12.5 -26.5l15 -32c5 -11 9.66699 -21.833 14 -32.5s7.5 -20 9.5 -28h4
c2.66699 40.667 9.66699 87.334 21 140.001l182 856h305z" />
    <glyph glyph-name="O" unicode="O" horiz-adv-x="1554" 
d="M1511 842c0 -156.667 -33.6689 -302.501 -101.002 -437.501s-160.166 -240.333 -278.499 -316s-258.5 -113.5 -420.5 -113.5c-119.333 0 -224.666 25.833 -315.999 77.5s-161.5 124.5 -210.5 218.5s-73.5 201 -73.5 321c0 162.667 34.667 310.834 104 444.501
s164 237.334 284 311.001s257.333 110.5 412 110.5c118.667 0 223.5 -24.833 314.5 -74.5s161.333 -121.334 211 -215.001s74.5 -202.5 74.5 -326.5zM1169 830.999c0 106.667 -26.167 190.833 -78.5 252.5s-124.5 92.5 -216.5 92.5c-76.667 0 -148 -25.5 -214 -76.5
s-117 -123.167 -153 -216.5s-54 -189 -54 -287c0 -108 26.167 -192 78.5 -252s122.833 -90 211.5 -90c82 0 155.167 25.167 219.5 75.5s114.833 121.5 151.5 213.5s55 188 55 288z" />
    <glyph glyph-name="P" unicode="P" horiz-adv-x="1290" 
d="M1317 1026c0 -105.333 -25.001 -198.168 -75.001 -278.501s-122.833 -142.666 -218.5 -186.999s-210.167 -66.5 -343.5 -66.5h-201l-104 -494h-326l305 1434h492c148.667 0 264.334 -36 347.001 -108s124 -172 124 -300zM974.999 1004c0 55.333 -18.667 99.5 -56 132.5
s-92.333 49.5 -165 49.5h-127l-95 -447h148c92 0 164.167 24.167 216.5 72.5s78.5 112.5 78.5 192.5z" />
    <glyph glyph-name="Q" unicode="Q" horiz-adv-x="1554" 
d="M1511 838c0 -126 -21.834 -245.5 -65.501 -358.5s-107 -211 -190 -294s-177.167 -140.167 -282.5 -171.5l325 -381h-415l-224 344c-110 7.33301 -206.5 37.833 -289.5 91.5s-146.833 125.667 -191.5 216s-67 192.166 -67 305.499c0 158 32.333 302.333 97 433
s156.834 235.834 276.501 315.501s262.5 119.5 428.5 119.5c181.333 0 326.333 -55.833 435 -167.5s163 -262.5 163 -452.5zM1169 829c0 108.667 -25.833 193.668 -77.5 255.001s-122.5 92 -212.5 92c-78 0 -149.167 -23.833 -213.5 -71.5s-115.833 -118 -154.5 -211
s-58 -192.167 -58 -297.5c0 -108 26.167 -192 78.5 -252s122.833 -90 211.5 -90c78 0 149 23.167 213 69.5s115.5 116.166 154.5 209.499s58.5 192 58.5 296z" />
    <glyph glyph-name="R" unicode="R" horiz-adv-x="1311" 
d="M1305 1069c0 -113.333 -38.668 -208.333 -116.001 -285s-178.666 -123.667 -303.999 -141v-4c86 -27.333 143.333 -102.333 172 -225l100 -414h-346l-78 369c-24 120 -86 180 -186 180h-55l-117 -549h-326l305 1434h490c147.333 0 261 -32.167 341 -96.5
s120 -153.833 120 -268.5zM960.999 1016c0 55.333 -16.333 98.5 -49 129.5s-82 46.5 -148 46.5h-135l-86 -399h131c88 0 157.833 20.5 209.5 61.5s77.5 94.833 77.5 161.5z" />
    <glyph glyph-name="S" unicode="S" horiz-adv-x="1100" 
d="M1067 1102c-110.667 68 -222.669 102.001 -336.002 102.001c-42 0 -78 -6.83301 -108 -20.5s-53 -32.334 -69 -56.001s-24 -49.167 -24 -76.5c0 -40 12.5 -75.333 37.5 -106s76.167 -70 153.5 -118c104 -64 177.5 -127.333 220.5 -190s64.5 -135.667 64.5 -219
c0 -88 -23 -166.833 -69 -236.5s-110.5 -121.5 -193.5 -155.5s-179.833 -51 -290.5 -51c-76 0 -151.833 9.5 -227.5 28.5s-141.167 43.167 -196.5 72.5l55 284c56 -40.667 115.833 -72.667 179.5 -96s128.167 -35 193.5 -35c67.333 0 119 13.833 155 41.5
s54 67.167 54 118.5c0 40.667 -13 75.5 -39 104.5s-81.333 67.833 -166 116.5c-95.333 53.333 -164.666 112.333 -207.999 177s-65 139.667 -65 225c0 86 21.833 163 65.5 231s106.334 120.833 188.001 158.5s177.5 56.5 287.5 56.5c137.333 0 268.333 -26 393 -78z" />
    <glyph glyph-name="T" unicode="T" horiz-adv-x="1202" 
d="M1303 1171h-404l-248 -1171h-325l247 1171h-409l57 263h1139z" />
    <glyph glyph-name="U" unicode="U" horiz-adv-x="1481" 
d="M668 -25c-161.333 0 -287.999 43.167 -379.999 129.5s-138 204.5 -138 354.5c0 70 9.33301 147 28 231l160 744h326l-162 -746c-19.333 -93.333 -29 -158.666 -29 -195.999c0 -74.667 21.5 -133 64.5 -175s98.833 -63 167.5 -63c85.333 0 152.833 27.167 202.5 81.5
s86.5 139.166 110.5 254.499l182 844h326l-183 -850c-32.667 -154 -76.334 -273.333 -131.001 -358s-126 -147.667 -214 -189s-198 -62 -330 -62z" />
    <glyph glyph-name="V" unicode="V" horiz-adv-x="1366" 
d="M739 0l-356 0.000976562l-184 1434h331l97 -992l4 -71c0 -24.667 -2 -47.334 -6 -68.001h8c13.333 44 33 91.667 59 143l498 988h356z" />
    <glyph glyph-name="W" unicode="W" horiz-adv-x="2064" 
d="M1550 0l-344.001 0.000976562l-61 943c0 41.333 5.33301 89.333 16 144h-4c-19.333 -62 -39 -114.333 -59 -157l-455 -930h-369l-73 1434h340l10 -965c0 -24 -5.33301 -71.667 -16 -143h6c12 44 32.333 97 61 159l461 949h342l47 -961l1 -32
c-1.33301 -41.333 -4.33301 -79 -9 -113h4c12.667 43.333 30.334 93.666 53.001 150.999l397 955h338z" />
    <glyph glyph-name="X" unicode="X" horiz-adv-x="1341" 
d="M928 709l283.999 -708.999h-366l-144 455c-4.66699 12 -8.16699 30 -10.5 54s-3.5 42.667 -3.5 56h-4c-5.33301 -11.333 -12.166 -27.333 -20.499 -48s-18.5 -39.334 -30.5 -56.001l-344 -461h-400l615 739l-277 695h377l127 -441c8 -32 12 -69.333 12 -112h5
c18 48 35 82.667 51 104l342 449h377z" />
    <glyph glyph-name="Y" unicode="Y" horiz-adv-x="1245" 
d="M668 0l-326 -0.000976562l109 514l-258 920h350l114 -545c5.33301 -22.667 8.5 -43.667 9.5 -63s2.16699 -36.666 3.5 -51.999h2c17.333 44 35 81 53 111l350 549h363l-662 -914z" />
    <glyph glyph-name="Z" unicode="Z" horiz-adv-x="1243" 
d="M440 262h701l-56 -262h-1155l39 186l922 985h-660l56 263h1102l-39 -181z" />
    <glyph glyph-name="bracketleft" unicode="[" horiz-adv-x="758" 
d="M858 1233h-219l-289 -1358h219l-43 -201h-473l373 1760h473z" />
    <glyph glyph-name="backslash" unicode="\" horiz-adv-x="895" 
d="M516 -238l-346 1672h274l342 -1672h-270z" />
    <glyph glyph-name="bracketright" unicode="]" horiz-adv-x="758" 
d="M332 -326h-471l43 201h215l289 1358h-218l41 201h474z" />
    <glyph glyph-name="asciicircum" unicode="^" horiz-adv-x="1450" 
d="M1053 610l-287 586h-6l-268 -586h-242l430 848h162l452 -848h-241z" />
    <glyph glyph-name="underscore" unicode="_" horiz-adv-x="850" 
d="M-176 -297l24 119h850l-24 -119h-850z" />
    <glyph glyph-name="grave" unicode="`" horiz-adv-x="899" 
d="M551 1186l-260 325h264l209 -325h-213z" />
    <glyph glyph-name="a" unicode="a" horiz-adv-x="1214" 
d="M1006 0l-319.999 0.000976562c0 41.333 4.66699 99.333 14 174h-4c-42 -56.667 -77.833 -97.334 -107.5 -122.001s-61.834 -43.667 -96.501 -57s-73.667 -20 -117 -20c-100 0 -177.333 35 -232 105s-82 167 -82 291c0 84.667 16.333 171.5 49 260.5
s78.667 164.333 138 226s131 109 215 142s180.333 49.5 289 49.5c126 0 270 -18 432 -54l-140 -657c-8 -36.667 -16.333 -90.667 -25 -162s-13 -130 -13 -176zM829.001 817.001c-30.667 6.66699 -65.333 9.99902 -104 9.99902c-66 0 -124.667 -18 -176 -54
s-92.5 -89.667 -123.5 -161s-46.5 -145.666 -46.5 -222.999c0 -54.667 11.333 -97 34 -127s53 -45 91 -45c60 0 113.833 30.833 161.5 92.5s84.5 151.167 110.5 268.5z" />
    <glyph glyph-name="b" unicode="b" horiz-adv-x="1214" 
d="M1153 666c0 -94 -16.499 -185.669 -49.499 -275.002s-78.667 -164.666 -137 -225.999s-128.833 -108.333 -211.5 -141s-176.667 -49 -282 -49c-80.667 0 -160.334 10.333 -239.001 31s-144.334 47.334 -197.001 80.001l303 1430h319l-96 -451
c-2.66699 -14 -10.5 -48 -23.5 -102s-20.833 -85 -23.5 -93h8c46.667 62.667 95.667 108.167 147 136.5s109 42.5 173 42.5c96.667 0 172.334 -34 227.001 -102s82 -161.667 82 -281zM836.001 630.998c0 117.333 -45.333 176 -136 176c-58 0 -111 -31.667 -159 -95
s-82.333 -143 -103 -239l-53 -250c34.667 -17.333 79 -26 133 -26c58.667 0 112 19.5 160 58.5s86.333 93.333 115 163s43 140.5 43 212.5z" />
    <glyph glyph-name="c" unicode="c" horiz-adv-x="946" 
d="M901 743c-22.667 17.333 -51.999 32.334 -87.999 45.001s-75 19 -117 19c-58 0 -111.333 -17.333 -160 -52s-87 -81.834 -115 -141.501s-42 -120.167 -42 -181.5c0 -68.667 16 -121.667 48 -159s80 -56 144 -56c38.667 0 80.667 7.33301 126 22s84 32 116 52l-49 -242
c-96 -49.333 -195.667 -74 -299 -74c-126 0 -224.833 37.5 -296.5 112.5s-107.5 178.167 -107.5 309.5c0 120.667 27.5 231.667 82.5 333s130.167 179.833 225.5 235.5s203.666 83.5 324.999 83.5c48.667 0 96.667 -5.16699 144 -15.5s87.333 -24.5 120 -42.5z" />
    <glyph glyph-name="d" unicode="d" horiz-adv-x="1214" 
d="M1006 0h-320.001l6 86l8 86h-4c-49.333 -70 -99.666 -120.333 -150.999 -151s-107.333 -46 -168 -46c-98.667 0 -176 33.833 -232 101.5s-84 164.5 -84 290.5c0 125.333 28 240.5 84 345.5s134.667 187.333 236 247s216 89.5 344 89.5c54 0 103.667 -4.33301 149 -13
l103 480h315l-248 -1178c-8 -36.667 -16.333 -90.667 -25 -162s-13 -130 -13 -176zM828.999 815c-30.667 8 -65.333 11.999 -104 11.999c-66 0 -124.5 -18 -175.5 -54s-92.167 -89.667 -123.5 -161s-47 -145.666 -47 -222.999c0 -52.667 11 -94.5 33 -125.5
s54 -46.5 96 -46.5c58.667 0 111.5 31 158.5 93s84.167 153.333 111.5 274z" />
    <glyph glyph-name="e" unicode="e" horiz-adv-x="1065" 
d="M1051 760c0 -121.333 -55.5 -211.668 -166.5 -271.001s-281.5 -90.666 -511.5 -93.999l-2 -10v-10c0 -54.667 18.5 -97.334 55.5 -128.001s88.167 -46 153.5 -46c51.333 0 107.833 9 169.5 27s116.167 40.333 163.5 67l-49 -236
c-49.333 -25.333 -106 -45.666 -170 -60.999s-128.667 -23 -194 -23c-136.667 0 -244 37.167 -322 111.5s-117 178.5 -117 312.5c0 118.667 26.167 228.167 78.5 328.5s125.833 179 220.5 236s200 85.5 316 85.5c118 0 210 -26.167 276 -78.5s99 -122.5 99 -210.5z
M750 755.998c0 24.667 -9.16797 45.168 -27.501 61.501s-44.166 24.5 -77.499 24.5c-56.667 0 -108.5 -22.833 -155.5 -68.5s-79.167 -106.834 -96.5 -183.501h16c112 0 196.833 14 254.5 42s86.5 69.333 86.5 124z" />
    <glyph glyph-name="f" unicode="f" horiz-adv-x="768" 
d="M940 1270c-47.333 18.667 -89.668 27.999 -127.001 27.999c-47.333 0 -83.666 -13 -108.999 -39s-44.333 -66.667 -57 -122l-24 -113h233l-49 -233h-238l-243 -1131h-316l242 1131h-174l51 233h172l33 147c28 124.667 80.167 217.334 156.5 278.001s179.833 91 310.5 91
c70 0 132.667 -9 188 -27z" />
    <glyph glyph-name="g" unicode="g" horiz-adv-x="1214" 
d="M299 -481c-116.667 0 -227.334 25 -332.001 75l56 254c96 -64 194.667 -96 296 -96c97.333 0 174.333 25.667 231 77s97.334 133.666 122.001 246.999l18 90h-4c-84.667 -127.333 -188.334 -191 -311.001 -191c-98 0 -174.833 34.333 -230.5 103
s-83.5 163.334 -83.5 284.001c0 128.667 28.333 246.5 85 353.5s135.667 189.333 237 247s217.333 86.5 348 86.5c128.667 0 279.667 -17.333 453 -52l-185 -874c-31.333 -149.333 -75.166 -266 -131.499 -350s-130.833 -147.333 -223.5 -190s-207.667 -64 -345 -64z
M829 817c-30.667 6.66699 -70 9.99902 -118 9.99902c-59.333 0 -114.833 -19.5 -166.5 -58.5s-92.167 -92.167 -121.5 -159.5s-44 -140.666 -44 -219.999c0 -54.667 11.333 -97 34 -127s53 -45 91 -45c64 0 119.333 32.167 166 96.5s82 151.5 106 261.5z" />
    <glyph glyph-name="h" unicode="h" 
d="M1151 780c0 -38 -9.66602 -100.665 -28.999 -187.998l-125 -592h-317l123 584c12 64 18 103.333 18 118c0 33.333 -8.5 59.166 -25.5 77.499s-41.833 27.5 -74.5 27.5c-34 0 -71 -14.333 -111 -43s-75.333 -66.5 -106 -113.5s-51.334 -95.833 -62.001 -146.5l-106 -504
h-320l322 1516h319l-147 -689h4c53.333 69.333 114.5 123.666 183.5 162.999s134.833 59 197.5 59c83.333 0 146.833 -23.167 190.5 -69.5s65.5 -112.833 65.5 -199.5z" />
    <glyph glyph-name="i" unicode="i" horiz-adv-x="578" 
d="M639 1354c0 -48.667 -17.834 -89.1689 -53.501 -121.502s-81.167 -48.5 -136.5 -48.5c-51.333 0 -93.666 14.833 -126.999 44.5s-50 65.834 -50 108.501c0 49.333 17.667 90 53 122s81.333 48 138 48c50.667 0 92.667 -14.667 126 -44s50 -65.666 50 -108.999z
M335.999 -0.00195312h-320l217 1024h320z" />
    <glyph glyph-name="i" unicode="&#x456;" horiz-adv-x="578" 
d="M639 1354c0 -48.667 -17.834 -89.1689 -53.501 -121.502s-81.167 -48.5 -136.5 -48.5c-51.333 0 -93.666 14.833 -126.999 44.5s-50 65.834 -50 108.501c0 49.333 17.667 90 53 122s81.333 48 138 48c50.667 0 92.667 -14.667 126 -44s50 -65.666 50 -108.999z
M335.999 -0.00195312h-320l217 1024h320z" />
    <glyph glyph-name="j" unicode="j" horiz-adv-x="578" 
d="M639 1354c0 -48.667 -17.834 -89.1689 -53.501 -121.502s-81.167 -48.5 -136.5 -48.5c-51.333 0 -93.666 14.833 -126.999 44.5s-50 65.834 -50 108.501c0 49.333 17.667 90 53 122s81.333 48 138 48c50.667 0 92.667 -14.667 126 -44s50 -65.666 50 -108.999z
M-184.001 -481.002c-64 0 -117.334 10.668 -160.001 32.001l51 242c14.667 -10 32.334 -18 53.001 -24s38 -9 52 -9c50 0 92.333 20.333 127 61s61.667 107 81 199l213 1004h320l-207 -971c-39.333 -184.667 -103 -319.834 -191 -405.501s-201 -128.5 -339 -128.5z" />
    <glyph glyph-name="j" unicode="&#x458;" horiz-adv-x="578" 
d="M639 1354c0 -48.667 -17.834 -89.1689 -53.501 -121.502s-81.167 -48.5 -136.5 -48.5c-51.333 0 -93.666 14.833 -126.999 44.5s-50 65.834 -50 108.501c0 49.333 17.667 90 53 122s81.333 48 138 48c50.667 0 92.667 -14.667 126 -44s50 -65.666 50 -108.999z
M-184.001 -481.002c-64 0 -117.334 10.668 -160.001 32.001l51 242c14.667 -10 32.334 -18 53.001 -24s38 -9 52 -9c50 0 92.333 20.333 127 61s61.667 107 81 199l213 1004h320l-207 -971c-39.333 -184.667 -103 -319.834 -191 -405.501s-201 -128.5 -339 -128.5z" />
    <glyph glyph-name="k" unicode="k" horiz-adv-x="1151" 
d="M764 541l264 -541h-352l-225 532h-5l-112 -532h-318l322 1516h319l-200 -936h4l407 444h375z" />
    <glyph glyph-name="l" unicode="l" horiz-adv-x="578" 
d="M336 0h-320l322 1516h319z" />
    <glyph glyph-name="m" unicode="m" horiz-adv-x="1866" 
d="M1792 780c0 -38 -9.66797 -100.667 -29.001 -188l-125 -592h-317l125 584c12 64 18 103.333 18 118c0 70 -32.667 105 -98 105c-32.667 0 -68.667 -14.667 -108 -44s-74 -67.5 -104 -114.5s-50 -94.5 -60 -142.5l-105 -506h-319l125 584c12 64 18 103.333 18 118
c0 70 -32.667 105 -98 105c-33.333 0 -69.166 -14.333 -107.499 -43s-72.5 -66.667 -102.5 -114s-50.333 -95.333 -61 -144l-108 -506h-320l152 702c28 144 46.333 251.333 55 322h312c-11.333 -108.667 -19.666 -174.334 -24.999 -197.001h4
c54 70 114.167 124.5 180.5 163.5s130.5 58.5 192.5 58.5c154 0 238 -78 252 -234c54.667 74.667 116.667 132.334 186 173.001s139.666 61 210.999 61c84.667 0 148.5 -23.167 191.5 -69.5s64.5 -112.833 64.5 -199.5z" />
    <glyph glyph-name="n" unicode="n" 
d="M1151 780c0 -38 -9.66797 -100.665 -29.001 -187.998l-125 -592h-317l123 584c12 64 18 103.333 18 118c0 32 -8.16699 57.5 -24.5 76.5s-40.833 28.5 -73.5 28.5c-35.333 0 -73 -14.333 -113 -43s-75 -66.5 -105 -113.5s-50.333 -95.167 -61 -144.5l-106 -506h-322
l152 702c28 144 46.333 251.333 55 322h312c-11.333 -108.667 -19.666 -174.334 -24.999 -197.001h4c51.333 67.333 111.333 121.166 180 161.499s135.667 60.5 201 60.5c84.667 0 148.5 -23.5 191.5 -70.5s64.5 -113.167 64.5 -198.5z" />
    <glyph glyph-name="o" unicode="o" horiz-adv-x="1178" 
d="M1116 618c0 -122 -26.165 -234 -78.498 -336s-123.666 -178.667 -213.999 -230s-195.5 -77 -315.5 -77c-140.667 0 -250.334 38.333 -329.001 115s-118 182.667 -118 318c0 122 26.333 233.333 79 334s124.667 177 216 229s196.666 78 315.999 78
c139.333 0 248.166 -38.5 326.499 -115.5s117.5 -182.167 117.5 -315.5zM797.002 614c0 59.333 -13.8301 106.333 -41.4971 141s-64.5 52 -110.5 52c-50 0 -95.333 -18.333 -136 -55s-72.5 -86.334 -95.5 -149.001s-34.5 -127.667 -34.5 -195
c0 -60.667 14.167 -107.667 42.5 -141s65.166 -50 110.499 -50c51.333 0 97.166 17.667 137.499 53s71.666 83.833 93.999 145.5s33.5 127.834 33.5 198.501z" />
    <glyph glyph-name="p" unicode="p" horiz-adv-x="1214" 
d="M1153 670c0 -126.667 -27.499 -244.501 -82.499 -353.501s-131.5 -193.167 -229.5 -252.5s-210.333 -89 -337 -89c-60.667 0 -117.334 7 -170.001 21l-101 -467h-319l246 1157c12 63.333 23 129.333 33 198s15.333 115.334 16 140.001h311c-2 -32 -8.66699 -90 -20 -174
h4c42.667 64 93 113.167 151 147.5s121.667 51.5 191 51.5c94.667 0 169.5 -34.167 224.5 -102.5s82.5 -160.5 82.5 -276.5zM836.001 632.999c0 57.333 -11.498 100.667 -34.498 130s-56.167 44 -99.5 44c-62 0 -117.5 -32.5 -166.5 -97.5s-84.833 -151.833 -107.5 -260.5
l-53 -234c12 -4 31.5 -8 58.5 -12s49.833 -6 68.5 -6c61.333 0 117.666 19.667 168.999 59s91.666 93 120.999 161s44 140 44 216z" />
    <glyph glyph-name="q" unicode="q" horiz-adv-x="1214" 
d="M872 -471l-317.002 -0.00195312l90 430l38 157l11 42h-4c-87.333 -122 -191.666 -183 -312.999 -183c-100.667 0 -178.5 35 -233.5 105s-82.5 166.333 -82.5 289c0 91.333 16.667 180.833 50 268.5s79.333 161.834 138 222.501s129.834 107.334 213.501 140.001
s177.167 49 280.5 49c146 0 292.333 -20.667 439 -62zM826.998 812.998c-36 9.33301 -72 14 -108 14c-64 0 -121 -18 -171 -54s-90.667 -89.667 -122 -161s-47 -144.333 -47 -219c0 -58 11 -101.833 33 -131.5s53.333 -44.5 94 -44.5c62 0 116 30.167 162 90.5
s81.333 144.833 106 253.5z" />
    <glyph glyph-name="r" unicode="r" horiz-adv-x="819" 
d="M831 733h-1.99902c-14 7.33301 -31.833 14 -53.5 20s-41.834 9 -60.501 9c-68 0 -127.167 -28.167 -177.5 -84.5s-87.5 -138.833 -111.5 -247.5l-90 -430h-320l140 653c31.333 146 52.333 269.667 63 371h313c-8 -77.333 -16.667 -146.333 -26 -207h4
c41.333 76.667 84.833 134.5 130.5 173.5s98.5 58.5 158.5 58.5c17.333 0 34.333 -1.66699 51 -5s31.667 -6 45 -8z" />
    <glyph glyph-name="s" unicode="s" horiz-adv-x="899" 
d="M817 768c-34 18 -73.498 32.999 -118.498 44.999s-84.5 18 -118.5 18c-48.667 0 -83.5 -9.33301 -104.5 -28s-31.5 -41.334 -31.5 -68.001c0 -27.333 10.333 -49.666 31 -66.999s48 -34.666 82 -51.999c93.333 -45.333 156.666 -90.166 189.999 -134.499
s50 -99.833 50 -166.5s-18.667 -125.834 -56 -177.501s-91.666 -91.667 -162.999 -120s-157.666 -42.5 -258.999 -42.5c-50.667 0 -106 5 -166 15s-109.667 23 -149 39l47 241c43.333 -23.333 92.166 -42.5 146.499 -57.5s103.166 -22.5 146.499 -22.5
c50 0 87.167 8.66699 111.5 26s36.5 41 36.5 71c0 25.333 -9.33301 47.5 -28 66.5s-51 39.167 -97 60.5c-84.667 40 -144.834 82.667 -180.501 128s-53.5 101 -53.5 167c0 65.333 17.5 123.833 52.5 175.5s85.833 92 152.5 121s146.667 43.5 240 43.5
c98.667 0 194.667 -14.333 288 -43z" />
    <glyph glyph-name="t" unicode="t" horiz-adv-x="768" 
d="M776 791l-239 0.000976562l-87 -411c-8 -40 -12 -67 -12 -81c0 -26.667 6.66699 -46.334 20 -59.001s35.333 -19 66 -19c33.333 0 78.333 10.333 135 31l-49 -234c-27.333 -10.667 -63.333 -20.167 -108 -28.5s-85.667 -12.5 -123 -12.5c-176 0 -264 84.667 -264 254
c0 16.667 1.66699 37.167 5 61.5s37 190.5 101 498.5h-158l56 233h151l52 240l333 82l-67 -322h243z" />
    <glyph glyph-name="u" unicode="u" 
d="M1004 0l-320.001 0.000976562l14 116l11 77h-4c-55.333 -70 -116.333 -123.833 -183 -161.5s-132.667 -56.5 -198 -56.5c-84.667 0 -148.834 23.5 -192.501 70.5s-65.5 113.167 -65.5 198.5c0 18.667 3.33301 48 10 88s12 70.167 16 90.5s46.333 220.833 127 601.5h318
l-123 -578c-12.667 -50.667 -19 -91.334 -19 -122.001c0 -29.333 8 -52.833 24 -70.5s39.333 -26.5 70 -26.5c40 0 79.833 14.333 119.5 43s74.834 68 105.501 118s51.334 101 62.001 153l103 483h319l-147 -684c-24 -120 -39.667 -233.333 -47 -340z" />
    <glyph glyph-name="v" unicode="v" horiz-adv-x="1092" 
d="M602 0h-352l-135 1024h315l41 -567c4 -36 6.66699 -89 8 -159l-2 -50h4c4.66699 12 34.667 81 90 207l275 569h348z" />
    <glyph glyph-name="w" unicode="w" horiz-adv-x="1628" 
d="M1200 0h-328l-24 606c0 44.667 2.66699 88.334 8 131.001h-4c-12 -46 -27.667 -89.667 -47 -131l-285 -606h-334l-69 1024h303v-666c0 -46.667 -3.33301 -85.334 -10 -116.001h6l21 60l24 63l311 659h305l19 -664c0 -52.667 -3 -92.667 -9 -120h7
c7.33301 24 14.5 46.333 21.5 67s102.833 259.667 287.5 717h307z" />
    <glyph glyph-name="x" unicode="x" horiz-adv-x="1122" 
d="M780 514l227.999 -514.001h-351l-92 268c-8 23.333 -17.333 57 -28 101h-5c-33.333 -55.333 -53.666 -87.666 -60.999 -96.999l-203 -272h-372l456 518l-219 506h352l84 -270c12 -31.333 21 -67 27 -107h4c7.33301 12.667 16.5 27.5 27.5 44.5
s91.167 127.833 240.5 332.5h359z" />
    <glyph glyph-name="y" unicode="y" horiz-adv-x="1102" 
d="M10 -481c-62 0 -118.665 9.33203 -169.998 27.999l54 244c28.667 -20.667 66.667 -31 114 -31c84.667 0 151 39 199 117l82 129l-199 1018h332l72 -623l4 -92l-2 -45h4c22 60.667 41 106.334 57 137.001l313 623h332l-651 -1114
c-82.667 -144.667 -165.834 -246 -249.501 -304s-180.834 -87 -291.501 -87z" />
    <glyph glyph-name="z" unicode="z" horiz-adv-x="995" 
d="M420 233h475l-49 -233h-930l27 133l645 658h-453l49 233h877l-35 -160z" />
    <glyph glyph-name="braceleft" unicode="{" horiz-adv-x="758" 
d="M358 524l0.00195312 -4.00098c27.333 -15.333 50.333 -38.833 69 -70.5s28 -72.167 28 -121.5c0 -35.333 -4.33301 -73.666 -13 -114.999l-47 -215c-5.33301 -20 -8 -42.667 -8 -68c0 -76 43 -114 129 -114l-39 -187c-230.667 0 -346 91.667 -346 275
c0 28 4.66699 66 14 114l52 238c5.33301 20 8 42.667 8 68c0 41.333 -11 72 -33 92s-52 30 -90 30l41 187c52 0 93.167 13.167 123.5 39.5s51.166 68.5 62.499 126.5l53 252c15.333 68.667 35.666 127.334 60.999 176.001s55.5 87.667 90.5 117s79 51.666 132 66.999
s124.5 23 214.5 23l-39 -189c-57.333 0 -101 -13.5 -131 -40.5s-52.333 -74.167 -67 -141.5l-54 -248c-16 -74.667 -41.5 -137.667 -76.5 -189s-79.833 -85.333 -134.5 -102z" />
    <glyph glyph-name="bar" unicode="|" horiz-adv-x="668" 
d="M229 -481v2048h252v-2048h-252z" />
    <glyph glyph-name="braceright" unicode="}" horiz-adv-x="758" 
d="M-106 -369l40 188.998c56.667 0 100.334 13.833 131.001 41.5s53.334 75.167 68.001 142.5l51 248c16.667 74 42.5 136.833 77.5 188.5s79.5 85.834 133.5 102.501v4c-64 36.667 -96 100.667 -96 192c0 37.333 4.66699 75.666 14 114.999l45 213
c6 22.667 9 45.334 9 68.001c0 76 -43 114 -129 114l38 187c231.333 0 347 -90.333 347 -271c0 -41.333 -5 -80.666 -15 -117.999l-51 -236c-5.33301 -20 -8 -42.667 -8 -68c0 -42 11 -73.333 33 -94s52 -31 90 -31l-39 -184c-54 0 -95.833 -13.5 -125.5 -40.5
s-50.834 -68.833 -63.501 -125.5l-53 -252c-14 -68 -33.833 -126.5 -59.5 -175.5s-56.334 -88.667 -92.001 -119s-79.667 -53 -132 -68s-123.5 -22.5 -213.5 -22.5z" />
    <glyph glyph-name="asciitilde" unicode="~" horiz-adv-x="1450" 
d="M1268 772c-2.66699 -111.333 -31.999 -199.832 -87.999 -265.499s-130.667 -98.5 -224 -98.5c-66.667 0 -131.667 17.667 -195 53l-65 35l-76 42c-26 14 -52.333 21 -79 21c-38.667 0 -69.167 -14.333 -91.5 -43s-34.166 -67.667 -35.499 -117h-207
c4.66699 113.333 34.667 202.5 90 267.5s131 97.5 227 97.5c37.333 0 73.166 -5 107.499 -15s77.833 -30.333 130.5 -61l54 -32c50 -30.667 92 -46 126 -46c34.667 0 63.167 14.667 85.5 44s34.166 68.666 35.499 117.999h205z" />
    <glyph glyph-name="uni00A0" unicode="&#xa0;" horiz-adv-x="563" 
 />
    <glyph glyph-name="exclamdown" unicode="&#xa1;" horiz-adv-x="709" 
d="M606 895c0 -49.333 -17.832 -90.001 -53.499 -122.001s-81.167 -48 -136.5 -48c-51.333 0 -93.833 14.833 -127.5 44.5s-50.5 66.834 -50.5 111.501c0 50 18.167 91.167 54.5 123.5s82.166 48.5 137.499 48.5c52 0 94.333 -14.833 127 -44.5s49 -67.5 49 -113.5z
M324.001 -403.001h-330l248 989h256z" />
    <glyph glyph-name="cent" unicode="&#xa2;" horiz-adv-x="1180" 
d="M1065 911c-38 31.333 -93.332 52.6699 -165.999 64.0029l-123 -576c74 10.667 141 34.667 201 72l-53 -246c-54.667 -32.667 -120.334 -54.334 -197.001 -65.001l-43 -197h-162l41 189c-122.667 9.33301 -218.167 51.166 -286.5 125.499s-102.5 172.166 -102.5 293.499
c0 127.333 28.5 240.166 85.5 338.499s131.167 173.5 222.5 225.5s194.333 80.667 309 86l43 200h161l-45 -207c81.333 -11.333 137.333 -27.666 168 -48.999zM737.001 969.004c-82 -20 -145.167 -61.668 -189.5 -125.001s-66.5 -140.666 -66.5 -231.999
c0 -49.333 11.5 -91.5 34.5 -126.5s57.167 -60.167 102.5 -75.5z" />
    <glyph glyph-name="sterling" unicode="&#xa3;" horiz-adv-x="1180" 
d="M1135 1143c-24 19.333 -53.833 35.0029 -89.5 47.0029s-71.5 18 -107.5 18c-122.667 0 -199.667 -78.333 -231 -235l-29 -144h262l-47 -217h-262l-23 -102c-24 -116.667 -90 -205.334 -198 -266.001h626l-51 -244h-973l49 229c73.333 17.333 129.5 47.666 168.5 90.999
s66.167 100.666 81.5 171.999l27 120h-174l45 217h174l39 183c29.333 139.333 92 248.5 188 327.5s213 118.5 351 118.5c48 0 92.333 -5 133 -15s72.667 -21.333 96 -34z" />
    <glyph glyph-name="currency" unicode="&#xa4;" horiz-adv-x="1139" 
d="M1087 358l-141 -145l-143 141c-71.333 -43.333 -149.333 -65 -234 -65s-162.334 21.667 -233.001 65l-143 -141l-142 145l142 138c-44 72.667 -66 149 -66 229c0 81.333 22 157.666 66 228.999l-142 140l142 145l143 -141c70.667 43.333 148.334 65 233.001 65
s162.667 -21.667 234 -65l143 141l141 -145l-141 -140c45.333 -73.333 68 -149.666 68 -228.999c0 -78 -22.667 -154.333 -68 -229zM811 727c0 66 -24.5 122.167 -73.5 168.5s-105.167 69.5 -168.5 69.5c-66 0 -122.333 -23.167 -169 -69.5s-70 -102.5 -70 -168.5
s23.333 -122.167 70 -168.5s103 -69.5 169 -69.5c66.667 0 123.667 23.333 171 70s71 102.667 71 168z" />
    <glyph glyph-name="yen" unicode="&#xa5;" horiz-adv-x="1180" 
d="M860 793h250l-39 -189h-305l-33 -153h305l-39 -189h-305l-57 -262h-307l55 262h-313l39 189h313l35 153h-316l41 189h256l-207 641h314l106 -490c11.333 -42 18.333 -70.667 21 -86h4l25 41l337 535h310z" />
    <glyph glyph-name="brokenbar" unicode="&#xa6;" horiz-adv-x="668" 
d="M229 684v883h252v-883h-252zM229 -481v895h252v-895h-252z" />
    <glyph glyph-name="section" unicode="&#xa7;" horiz-adv-x="995" 
d="M950 1219c-32.667 20 -72.5 36.8301 -119.5 50.4971s-90.5 20.5 -130.5 20.5c-49.333 0 -87.5 -8.83301 -114.5 -26.5s-40.5 -42.834 -40.5 -75.501c0 -26.667 8.5 -50.5 25.5 -71.5s44.167 -41.167 81.5 -60.5l69 -38c70.667 -38 123.167 -78.833 157.5 -122.5
s51.5 -95.834 51.5 -156.501c0 -61.333 -19.333 -119 -58 -173s-91.667 -97.333 -159 -130c39.333 -52.667 59 -108.667 59 -168c0 -64 -17.333 -121.167 -52 -171.5s-84.334 -89.5 -149.001 -117.5s-139.667 -42 -225 -42c-54 0 -111.333 6.33301 -172 19
s-108.334 29.334 -143.001 50.001l49 221c40 -27.333 85.833 -48.833 137.5 -64.5s99.167 -23.5 142.5 -23.5c49.333 0 89 9.83301 119 29.5s45 46.167 45 79.5c0 50.667 -38.667 97.334 -116 140.001l-64 34c-124 70.667 -186 161.334 -186 272.001
c0 128.667 69 224.334 207 287.001c-18.667 24.667 -35 51.334 -49 80.001s-21 62 -21 100c0 102 38.333 182.5 115 241.5s178.334 88.5 305.001 88.5c44.667 0 92.834 -4.66699 144.501 -14s96.167 -23 133.5 -41zM690 693.997c0 29.333 -10.501 55.166 -31.501 77.499
s-52.167 44.5 -93.5 66.5l-69 41c-28 -12.667 -52.167 -30.667 -72.5 -54s-30.5 -50 -30.5 -80c0 -32.667 7.66699 -58.667 23 -78s47.333 -43.666 96 -72.999l37 -21l39 -24c32.667 16 57.834 37.5 75.501 64.5s26.5 53.833 26.5 80.5z" />
    <glyph glyph-name="dieresis" unicode="&#xa8;" horiz-adv-x="899" 
d="M989 1325c0 -41.333 -14.501 -74.834 -43.501 -100.501s-65.5 -38.5 -109.5 -38.5c-45.333 0 -82.333 13.333 -111 40s-43 59.667 -43 99c0 40.667 14.833 73.334 44.5 98.001s66.167 37 109.5 37c44.667 0 81.334 -12.5 110.001 -37.5s43 -57.5 43 -97.5zM531.999 1325
c0 -40.667 -14.502 -74 -43.502 -100s-65.5 -39 -109.5 -39c-45.333 0 -82.666 13.5 -111.999 40.5s-44 59.833 -44 98.5c0 40 15 72.5 45 97.5s67 37.5 111 37.5c44.667 0 81.334 -12.5 110.001 -37.5s43 -57.5 43 -97.5z" />
    <glyph glyph-name="copyright" unicode="&#xa9;" horiz-adv-x="1792" 
d="M1698 719c0 -134.667 -32.5039 -258.668 -97.5039 -372.001s-156.667 -203.666 -275 -270.999s-250.166 -101 -395.499 -101c-144.667 0 -275.167 31.167 -391.5 93.5s-207.166 150.333 -272.499 264s-98 240.5 -98 380.5s34.333 267.167 103 381.5
s161.334 203.5 278.001 267.5s246.334 96 389.001 96c142 0 271.5 -31.5 388.5 -94.5s208.167 -151 273.5 -264s98 -239.833 98 -380.5zM1565 714.999c0 118 -27.168 225 -81.501 321s-130.166 171.167 -227.499 225.5s-204.666 81.5 -321.999 81.5
c-119.333 0 -227.333 -27 -324 -81s-172.334 -129.5 -227.001 -226.5s-82 -203.833 -82 -320.5c0 -118 27.667 -225.333 83 -322s131.5 -172 228.5 -226s204.167 -81 321.5 -81c114 0 220 27.833 318 83.5s174.667 131.5 230 227.5s83 202 83 318zM1241 294.999
c-86 -45.333 -177.333 -67.999 -274 -67.999c-90 0 -172.333 20.333 -247 61s-132.834 97 -174.501 169s-62.5 151.667 -62.5 239c0 100 21.833 188.833 65.5 266.5s105 137.667 184 180s167.833 63.5 266.5 63.5c85.333 0 165.333 -18.333 240 -55v-236
c-28 23.333 -63.667 41.833 -107 55.5s-89 20.5 -137 20.5c-78.667 0 -143.334 -25.833 -194.001 -77.5s-76 -119.834 -76 -204.501c0 -82 26.333 -148 79 -198s118.334 -75 197.001 -75c42.667 0 86.334 7.16699 131.001 21.5s81 32.5 109 54.5v-217z" />
    <glyph glyph-name="ordfeminine" unicode="&#xaa;" horiz-adv-x="961" 
d="M881 715l-238 -0.00195312c0 24.667 2.33301 56.334 7 95.001l3 28h-4c-68.667 -94.667 -152 -142 -250 -142c-70 0 -124 24.167 -162 72.5s-57 117.166 -57 206.499c0 84.667 21.5 166.334 64.5 245.001s101.333 137.334 175 176.001s159.167 58 256.5 58
c54 0 113 -4 177 -12s115.667 -16.333 155 -25l-99 -465c-18.667 -98 -28 -177 -28 -237zM741 1284c-22.667 6.66699 -48.333 10.002 -77 10.002c-44.667 0 -85 -12.167 -121 -36.5s-65.5 -61.833 -88.5 -112.5s-34.5 -101.334 -34.5 -152.001
c0 -34.667 7 -63.834 21 -87.501s37 -35.5 69 -35.5c42.667 0 82 23.667 118 71s62.333 108.333 79 183z" />
    <glyph glyph-name="guillemotleft" unicode="&#xab;" horiz-adv-x="1200" 
d="M821 520l248 -323h-262l-256 340l373 340h284zM326 520l247 -323h-260l-258 340l375 340h283z" />
    <glyph glyph-name="logicalnot" unicode="&#xac;" horiz-adv-x="1450" 
d="M1016 266v389h-772v203h975v-592h-203z" />
    <glyph glyph-name="uni00AD" unicode="&#xad;" horiz-adv-x="827" 
d="M690 436h-547v221h547v-221z" />
    <glyph glyph-name="registered" unicode="&#xae;" horiz-adv-x="1792" 
d="M1698 717c0 -135.333 -33.001 -260 -99.001 -374s-158.5 -203.833 -277.5 -269.5s-249.5 -98.5 -391.5 -98.5c-144.667 0 -275.167 31.167 -391.5 93.5s-207.166 150.333 -272.499 264s-98 240.5 -98 380.5s34.333 267.167 103 381.5s161.334 203.5 278.001 267.5
s246.334 96 389.001 96c141.333 0 270.666 -31.667 387.999 -95s208.666 -151.5 273.999 -264.5s98 -240.167 98 -381.5zM1565 713c0 118 -27.332 225.333 -81.999 322s-130.667 172.167 -228 226.5s-204.333 81.5 -321 81.5c-119.333 0 -227.333 -27 -324 -81
s-172.334 -129.5 -227.001 -226.5s-82 -203.833 -82 -320.5c0 -118 27.667 -225.333 83 -322s131.5 -172 228.5 -226s204.167 -81 321.5 -81c114 0 220 27.833 318 83.5s174.667 131.5 230 227.5s83 201.333 83 316zM1071 264l-76 231.999c-12 37.333 -27.667 67 -47 89
s-40.333 33 -63 33h-74v-354h-211v922h320c118.667 0 210 -22.167 274 -66.5s96 -109.5 96 -195.5c0 -59.333 -19.167 -110.666 -57.5 -153.999s-91.5 -73.333 -159.5 -90v-4c60.667 -13.333 107.667 -62 141 -146l111 -266h-254zM1061 898.999c0 40.667 -13 69.333 -39 86
s-66.333 25 -121 25h-90v-230h111c42.667 0 76.167 11 100.5 33s36.5 50.667 36.5 86h2z" />
    <glyph glyph-name="uni00AF" unicode="&#xaf;" horiz-adv-x="899" 
d="M869 1186h-586l37 172h586z" />
    <glyph glyph-name="degree" unicode="&#xb0;" horiz-adv-x="778" 
d="M811 1178c0 -78 -27.8311 -144.667 -83.498 -200s-122.834 -83 -201.501 -83c-79.333 0 -146.5 27.833 -201.5 83.5s-82.5 122.167 -82.5 199.5s27.5 143.333 82.5 198s122.167 82 201.5 82s146.666 -27.333 201.999 -82s83 -120.667 83 -198zM655.002 1178
c0 34.667 -12.666 64.833 -37.999 90.5s-55.666 38.5 -90.999 38.5c-36 0 -66.5 -12.5 -91.5 -37.5s-37.5 -55.5 -37.5 -91.5s12.667 -66.833 38 -92.5s55.666 -38.5 90.999 -38.5s65.666 13.167 90.999 39.5s38 56.833 38 91.5z" />
    <glyph glyph-name="plusminus" unicode="&#xb1;" horiz-adv-x="1450" 
d="M840 694v-387h-203v387h-383v203h383v391h203v-391h387v-203h-387zM252 0v203h971v-203h-971z" />
    <glyph glyph-name="twosuperior" unicode="&#xb2;" horiz-adv-x="731" 
d="M27 584l31.999 156.998l301 236c50 38 88.833 73.667 116.5 107s41.5 68 41.5 104c0 23.333 -8.5 41.833 -25.5 55.5s-39.833 20.5 -68.5 20.5c-62.667 0 -135.667 -26 -219 -78l47 207c70.667 40.667 151.334 61 242.001 61c81.333 0 145 -20.667 191 -62
s69 -97 69 -167c0 -33.333 -5.66699 -64.5 -17 -93.5s-28.5 -57.667 -51.5 -86s-52 -57.166 -87 -86.499s-121.833 -93.666 -260.5 -192.999l-2 -4h336l-39 -178h-606z" />
    <glyph glyph-name="threesuperior" unicode="&#xb3;" horiz-adv-x="731" 
d="M690 827c0 -50.667 -14.668 -95.998 -44.001 -135.998s-72 -71.333 -128 -94s-124.333 -34 -205 -34c-50 0 -101.667 4.83301 -155 14.5s-90.333 20.5 -111 32.5l39 176c21.333 -13.333 54.5 -25.833 99.5 -37.5s86.833 -17.5 125.5 -17.5c52.667 0 93.167 10 121.5 30
s42.5 46.333 42.5 79c0 30 -12.167 52.833 -36.5 68.5s-66.833 23.5 -127.5 23.5h-104l37 168h106c52 0 94.333 10.167 127 30.5s49 46.166 49 77.499c0 23.333 -9.5 42.166 -28.5 56.499s-48.833 21.5 -89.5 21.5c-67.333 0 -132.333 -15.667 -195 -47l39 176
c66.667 26 142.334 39 227.001 39c82 0 146.833 -18.833 194.5 -56.5s71.5 -88.5 71.5 -152.5c0 -52.667 -18 -98.834 -54 -138.501s-86.667 -67.167 -152 -82.5v-4c100.667 -23.333 151 -87.666 151 -192.999z" />
    <glyph glyph-name="acute" unicode="&#xb4;" horiz-adv-x="899" 
d="M610 1186h-235l315 325h289z" />
    <glyph glyph-name="uni00B5" unicode="&#xb5;" horiz-adv-x="1262" 
d="M705 193c-50.667 -74.667 -103.168 -129.666 -157.501 -164.999s-113.5 -53 -177.5 -53l-56 4l-80 -369h-308l293 1414h318l-119 -555c-13.333 -62 -20 -102.667 -20 -122c0 -45.333 7.16699 -76.666 21.5 -93.999s37.5 -26 69.5 -26c61.333 0 120.333 32.167 177 96.5
s94.667 142.166 114 233.499l99 467h319l-126 -587c-10.667 -48.667 -16 -91 -16 -127c0 -23.333 7.16699 -41.166 21.5 -53.499s32.5 -18.5 54.5 -18.5c20.667 0 42.334 3.33301 65.001 10l-52 -240c-44 -10.667 -81.333 -17.334 -112 -20.001s-64 -4 -100 -4
c-74 0 -130 16.667 -168 50s-57 78.666 -57 135.999l1 15v8h-4z" />
    <glyph glyph-name="paragraph" unicode="&#xb6;" horiz-adv-x="1042" 
d="M877 1272l-0.000976562 -1272h-177v1272h-116v-1272h-176v836c-77.333 4 -141.5 34.333 -192.5 91s-76.5 127.334 -76.5 212.001c0 86 28.333 156.667 85 212s127.334 83 212.001 83h557v-162h-116z" />
    <glyph glyph-name="uni00B7" unicode="&#xb7;" horiz-adv-x="555" 
d="M492 659c0 -50 -18.333 -91.167 -55 -123.5s-82.667 -48.5 -138 -48.5c-51.333 0 -93.5 15 -126.5 45s-49.5 67 -49.5 111c0 50.667 18 92 54 124s82 48 138 48c52 0 94.5 -15 127.5 -45s49.5 -67 49.5 -111z" />
    <glyph glyph-name="cedilla" unicode="&#xb8;" horiz-adv-x="899" 
d="M528 -229c0 -68.667 -30.667 -123.831 -92 -165.498s-143.333 -62.5 -246 -62.5c-23.333 0 -60 2 -110 6l31 138c28 -6 53 -9 75 -9c44 0 78.333 7.16699 103 21.5s37 33.166 37 56.499c0 42.667 -37 64 -111 64h-22l-25 -2l43 182h154l-19 -82
c60 -2.66699 105.333 -16.834 136 -42.501s46 -60.5 46 -104.5z" />
    <glyph glyph-name="onesuperior" unicode="&#xb9;" horiz-adv-x="731" 
d="M88 584l37 174h174l104 475l-200 -41l39 180l422 82l-150 -696h172l-37 -174h-561z" />
    <glyph glyph-name="ordmasculine" unicode="&#xba;" horiz-adv-x="934" 
d="M977 1135c0 -80.667 -18.833 -155 -56.5 -223s-90.667 -121 -159 -159s-145.5 -57 -231.5 -57c-111.333 0 -199.5 30.5 -264.5 91.5s-97.5 142.5 -97.5 244.5c0 76.667 19 147.667 57 213s90.667 116.5 158 153.5s142.333 55.5 225 55.5c118 0 209 -28.5 273 -85.5
s96 -134.833 96 -233.5zM737 1122c0 46 -11.5 83.833 -34.5 113.5s-59.167 44.5 -108.5 44.5c-54 0 -98.833 -24 -134.5 -72s-53.5 -109.333 -53.5 -184c0 -47.333 12.667 -84.833 38 -112.5s59 -41.5 101 -41.5c56 0 102 24.5 138 73.5s54 108.5 54 178.5z" />
    <glyph glyph-name="guillemotright" unicode="&#xbb;" horiz-adv-x="1200" 
d="M770 201h-283l387 356l-247 324h260l258 -340zM276 201h-284l387 356l-248 324h262l256 -340z" />
    <glyph glyph-name="onequarter" unicode="&#xbc;" horiz-adv-x="1890" 
d="M88 584l37 174h174l104 475l-200 -41l39 180l422 82l-150 -696h172l-37 -174h-561zM528 0h-250l1205 1434h250zM1699 176l-39 -176h-213l37 176h-401l30 152l453 522h276l-110 -518h110l-32 -156h-111zM1597 692c-7.33301 -11.333 -16.333 -23.667 -27 -37l-29 -37
l-237 -286h215l57 278c3.33301 12.667 7.33301 26.167 12 40.5l13 41.5h-4z" />
    <glyph glyph-name="onehalf" unicode="&#xbd;" horiz-adv-x="1890" 
d="M88 584l37 174h174l104 475l-200 -41l39 180l422 82l-150 -696h172l-37 -174h-561zM528 0h-250l1205 1434h250zM1087 1l31.999 156.998l301 236c50 38 88.833 73.667 116.5 107s41.5 68 41.5 104c0 23.333 -8.5 41.833 -25.5 55.5s-39.833 20.5 -68.5 20.5
c-62.667 0 -135.667 -26 -219 -78l47 207c70.667 40.667 151.334 61 242.001 61c81.333 0 145 -20.667 191 -62s69 -97 69 -167c0 -33.333 -5.66699 -64.5 -17 -93.5s-28.5 -57.667 -51.5 -86s-52 -57.166 -87 -86.499s-121.833 -93.666 -260.5 -192.999l-2 -4h336l-39 -178
h-606z" />
    <glyph glyph-name="threequarters" unicode="&#xbe;" horiz-adv-x="1890" 
d="M690 827c0 -50.667 -14.668 -95.998 -44.001 -135.998s-72 -71.333 -128 -94s-124.333 -34 -205 -34c-50 0 -101.667 4.83301 -155 14.5s-90.333 20.5 -111 32.5l39 176c21.333 -13.333 54.5 -25.833 99.5 -37.5s86.833 -17.5 125.5 -17.5c52.667 0 93.167 10 121.5 30
s42.5 46.333 42.5 79c0 30 -12.167 52.833 -36.5 68.5s-66.833 23.5 -127.5 23.5h-104l37 168h106c52 0 94.333 10.167 127 30.5s49 46.166 49 77.499c0 23.333 -9.5 42.166 -28.5 56.499s-48.833 21.5 -89.5 21.5c-67.333 0 -132.333 -15.667 -195 -47l39 176
c66.667 26 142.334 39 227.001 39c82 0 146.833 -18.833 194.5 -56.5s71.5 -88.5 71.5 -152.5c0 -52.667 -18 -98.834 -54 -138.501s-86.667 -67.167 -152 -82.5v-4c100.667 -23.333 151 -87.666 151 -192.999zM527.999 0.00195312h-250l1205 1434h250zM1699 176.002
l-39 -176h-213l37 176h-401l30 152l453 522h276l-110 -518h110l-32 -156h-111zM1597 692.002c-7.33301 -11.333 -16.333 -23.667 -27 -37l-29 -37l-237 -286h215l57 278c3.33301 12.667 7.33301 26.167 12 40.5l13 41.5h-4z" />
    <glyph glyph-name="questiondown" unicode="&#xbf;" horiz-adv-x="920" 
d="M770 895c0 -49.333 -17.833 -90.001 -53.5 -122.001s-81.167 -48 -136.5 -48c-52 0 -94.833 14.833 -128.5 44.5s-50.5 66.834 -50.5 111.501c0 50 18.333 91.167 55 123.5s82.667 48.5 138 48.5c52 0 94.333 -14.833 127 -44.5s49 -67.5 49 -113.5zM328 -440.001
c-125.333 0 -224.332 30.166 -296.999 90.499s-109 142.833 -109 247.5c0 82.667 23.833 157.5 71.5 224.5s120.167 130.5 217.5 190.5c64.667 40.667 111.167 81.5 139.5 122.5s48.833 94.5 61.5 160.5h260c-22 -110.667 -50.167 -194 -84.5 -250
s-81.5 -104.333 -141.5 -145c-79.333 -54 -133.833 -98.667 -163.5 -134s-44.5 -72.666 -44.5 -111.999c0 -45.333 15.5 -79.833 46.5 -103.5s71.5 -35.5 121.5 -35.5c53.333 0 106.666 8.66699 159.999 26s101.666 39.333 144.999 66l-49 -279
c-44.667 -20 -97.667 -36.5 -159 -49.5s-119.666 -19.5 -174.999 -19.5z" />
    <glyph glyph-name="Agrave" unicode="&#xc0;" horiz-adv-x="1440" 
d="M985 0l-41 319h-514l-168 -319h-364l827 1434h385l205 -1434h-330zM867 1087c0 44.667 1 75 3 91h-6c-6.66699 -30.667 -23.667 -71.667 -51 -123l-262 -488h369l-52 484zM878 1534l-260 325h264l209 -325h-213z" />
    <glyph glyph-name="Aacute" unicode="&#xc1;" horiz-adv-x="1440" 
d="M985 0l-41 319h-514l-168 -319h-364l827 1434h385l205 -1434h-330zM867 1087c0 44.667 1 75 3 91h-6c-6.66699 -30.667 -23.667 -71.667 -51 -123l-262 -488h369l-52 484zM988 1534h-235l315 325h289z" />
    <glyph glyph-name="Acircumflex" unicode="&#xc2;" horiz-adv-x="1440" 
d="M985 0l-41 319h-514l-168 -319h-364l827 1434h385l205 -1434h-330zM867 1087c0 44.667 1 75 3 91h-6c-6.66699 -30.667 -23.667 -71.667 -51 -123l-262 -488h369l-52 484zM1074 1533l-116 190l-197 -190h-211l303 327h250l168 -327h-197z" />
    <glyph glyph-name="Atilde" unicode="&#xc3;" horiz-adv-x="1440" 
d="M985 0l-41 319h-514l-168 -319h-364l827 1434h385l205 -1434h-330zM867 1087c0 44.667 1 75 3 91h-6c-6.66699 -30.667 -23.667 -71.667 -51 -123l-262 -488h369l-52 484zM1314 1832c-12.667 -90 -42.333 -159.668 -89 -209.001s-103.667 -74 -171 -74
c-34 0 -62.833 4.33301 -86.5 13s-44.667 18 -63 28l-52 28c-16.333 8.66699 -34.5 13 -54.5 13c-29.333 0 -53.5 -9.16699 -72.5 -27.5s-30.833 -42.5 -35.5 -72.5h-154c10 84.667 38.833 152.834 86.5 204.501s106.834 77.5 177.501 77.5c33.333 0 61 -4.33301 83 -13
s42 -18 60 -28s35.667 -19.333 53 -28s37.333 -13 60 -13c27.333 0 50.166 8.83301 68.499 26.5s29.833 42.5 34.5 74.5h155z" />
    <glyph glyph-name="Adieresis" unicode="&#xc4;" horiz-adv-x="1440" 
d="M985 0l-41 319h-514l-168 -319h-364l827 1434h385l205 -1434h-330zM867 1087c0 44.667 1 75 3 91h-6c-6.66699 -30.667 -23.667 -71.667 -51 -123l-262 -488h369l-52 484zM1317 1672c0 -41.333 -14.501 -74.834 -43.501 -100.501s-65.5 -38.5 -109.5 -38.5
c-45.333 0 -82.333 13.333 -111 40s-43 59.667 -43 99c0 40.667 14.833 73.334 44.5 98.001s66.167 37 109.5 37c44.667 0 81.334 -12.5 110.001 -37.5s43 -57.5 43 -97.5zM859.999 1672c0 -40.667 -14.502 -74 -43.502 -100s-65.5 -39 -109.5 -39
c-45.333 0 -82.666 13.5 -111.999 40.5s-44 59.833 -44 98.5c0 40 15 72.5 45 97.5s67 37.5 111 37.5c44.667 0 81.334 -12.5 110.001 -37.5s43 -57.5 43 -97.5z" />
    <glyph glyph-name="Aring" unicode="&#xc5;" horiz-adv-x="1440" 
d="M985 0l-41 318.999h-512l-170 -319h-364l815 1411c-31.333 34 -47 77.667 -47 131c0 69.333 23.667 125.333 71 168s108.333 64 183 64c74 0 134.333 -20.667 181 -62s70 -96.666 70 -165.999c0 -57.333 -19 -104.333 -57 -141l201 -1405h-330zM1024 1546
c0 26.667 -9.66797 49.333 -29.001 68s-46 28 -80 28c-29.333 0 -53.666 -9.5 -72.999 -28.5s-29 -41.5 -29 -67.5c0 -28 9 -51.667 27 -71s43 -29 75 -29c30.667 0 56.5 9.5 77.5 28.5s31.5 42.833 31.5 71.5zM863.999 1084c0 36 1.33398 64.333 4.00098 85h-8
c-6.66699 -33.333 -22.334 -72 -47.001 -116l-254 -469h359l-52 465z" />
    <glyph glyph-name="AE" unicode="&#xc6;" horiz-adv-x="1933" 
d="M1950 1171h-504l-68 -323h467l-55 -264h-467l-70 -322h535l-55 -262h-859l68 319h-477l-229 -319h-379l1083 1434h1065zM1071 1174l-418 -588h344l125 588h-51z" />
    <glyph glyph-name="Ccedilla" unicode="&#xc7;" horiz-adv-x="1300" 
d="M1313 1087c-62.667 33.333 -120.333 56.498 -173 69.498s-105.667 19.5 -159 19.5c-106 0 -199.667 -23.5 -281 -70.5s-144 -112.5 -188 -196.5s-66 -177.333 -66 -280c0 -118 33.833 -210 101.5 -276s160.834 -99 279.501 -99c116 0 232.333 30 349 90l-68 -305
c-102 -42.667 -223.667 -64 -365 -64c-198 0 -354 56.333 -468 169s-171 264 -171 454c0 168.667 37.167 319.334 111.5 452.001s178.666 233.834 312.999 303.501s291.833 104.5 472.5 104.5c126.667 0 253 -21.667 379 -65zM930.001 -229.002
c0 -68.667 -30.667 -123.831 -92 -165.498s-143.333 -62.5 -246 -62.5c-23.333 0 -60 2 -110 6l31 138c28 -6 53 -9 75 -9c44 0 78.333 7.16699 103 21.5s37 33.166 37 56.499c0 42.667 -37 64 -111 64h-22l-25 -2l43 182h154l-19 -82
c60 -2.66699 105.333 -16.834 136 -42.501s46 -60.5 46 -104.5z" />
    <glyph glyph-name="Egrave" unicode="&#xc8;" horiz-adv-x="1085" 
d="M1124 1171h-501l-68 -323h467l-57 -264h-465l-70 -322h535l-56 -262h-860l305 1434h826zM720 1533l-260 325h264l209 -325h-213z" />
    <glyph glyph-name="Eacute" unicode="&#xc9;" horiz-adv-x="1085" 
d="M1124 1171h-501l-68 -323h467l-57 -264h-465l-70 -322h535l-56 -262h-860l305 1434h826zM839 1531h-235l315 325h289z" />
    <glyph glyph-name="Ecircumflex" unicode="&#xca;" horiz-adv-x="1085" 
d="M1124 1171h-501l-68 -323h467l-57 -264h-465l-70 -322h535l-56 -262h-860l305 1434h826zM985 1535l-116 190l-197 -190h-211l303 327h250l168 -327h-197z" />
    <glyph glyph-name="Edieresis" unicode="&#xcb;" horiz-adv-x="1085" 
d="M1124 1171h-501l-68 -323h467l-57 -264h-465l-70 -322h535l-56 -262h-860l305 1434h826zM1193 1673c0 -41.333 -14.501 -74.834 -43.501 -100.501s-65.5 -38.5 -109.5 -38.5c-45.333 0 -82.333 13.333 -111 40s-43 59.667 -43 99c0 40.667 14.833 73.334 44.5 98.001
s66.167 37 109.5 37c44.667 0 81.334 -12.5 110.001 -37.5s43 -57.5 43 -97.5zM735.999 1673c0 -40.667 -14.502 -74 -43.502 -100s-65.5 -39 -109.5 -39c-45.333 0 -82.666 13.5 -111.999 40.5s-44 59.833 -44 98.5c0 40 15 72.5 45 97.5s67 37.5 111 37.5
c44.667 0 81.334 -12.5 110.001 -37.5s43 -57.5 43 -97.5z" />
    <glyph glyph-name="Igrave" unicode="&#xcc;" horiz-adv-x="649" 
d="M375 0h-326l303 1434h326zM501 1534l-260 325h264l209 -325h-213z" />
    <glyph glyph-name="Iacute" unicode="&#xcd;" horiz-adv-x="649" 
d="M375 0h-326l303 1434h326zM636 1534h-235l315 325h289z" />
    <glyph glyph-name="Icircumflex" unicode="&#xce;" horiz-adv-x="649" 
d="M375 0h-326l303 1434h326zM714 1535l-116 190l-197 -190h-211l303 327h250l168 -327h-197z" />
    <glyph glyph-name="Idieresis" unicode="&#xcf;" horiz-adv-x="649" 
d="M375 0h-326l303 1434h326zM956 1673c0 -41.333 -14.501 -74.834 -43.501 -100.501s-65.5 -38.5 -109.5 -38.5c-45.333 0 -82.333 13.333 -111 40s-43 59.667 -43 99c0 40.667 14.833 73.334 44.5 98.001s66.167 37 109.5 37c44.667 0 81.334 -12.5 110.001 -37.5
s43 -57.5 43 -97.5zM498.999 1673c0 -40.667 -14.502 -74 -43.502 -100s-65.5 -39 -109.5 -39c-45.333 0 -82.666 13.5 -111.999 40.5s-44 59.833 -44 98.5c0 40 15 72.5 45 97.5s67 37.5 111 37.5c44.667 0 81.334 -12.5 110.001 -37.5s43 -57.5 43 -97.5z" />
    <glyph glyph-name="Eth" unicode="&#xd0;" horiz-adv-x="1542" 
d="M1499 848c0 -168.667 -34.666 -317.167 -103.999 -445.5s-169.833 -227.5 -301.5 -297.5s-287.167 -105 -466.5 -105h-578l127 592h-168l53 262h170l123 580h500c199.333 0 356.666 -52.333 471.999 -157s173 -247.667 173 -429zM1157 823
c0 112.667 -32.167 198.833 -96.5 258.5s-157.833 89.5 -280.5 89.5h-157l-68 -317h274l-55 -262h-274l-70 -330h186c170.667 0 303.5 50 398.5 150s142.5 237 142.5 411z" />
    <glyph glyph-name="Ntilde" unicode="&#xd1;" horiz-adv-x="1636" 
d="M1362 0l-295 -0.000976562l-449 911c-6 12 -15.167 32.5 -27.5 61.5s-19.5 48.167 -21.5 57.5h-6c-12 -88.667 -21.333 -146.667 -28 -174l-183 -856h-303l303 1434h320l430 -877l12.5 -26.5l15 -32c5 -11 9.66699 -21.833 14 -32.5s7.5 -20 9.5 -28h4
c2.66699 40.667 9.66699 87.334 21 140.001l182 856h305zM1427 1867c-12.667 -90 -42.333 -159.668 -89 -209.001s-103.667 -74 -171 -74c-34 0 -62.833 4.33301 -86.5 13s-44.667 18 -63 28l-52 28c-16.333 8.66699 -34.5 13 -54.5 13
c-29.333 0 -53.5 -9.16699 -72.5 -27.5s-30.833 -42.5 -35.5 -72.5h-154c10 84.667 38.833 152.834 86.5 204.501s106.834 77.5 177.501 77.5c33.333 0 61 -4.33301 83 -13s42 -18 60 -28s35.667 -19.333 53 -28s37.333 -13 60 -13c27.333 0 50.166 8.83301 68.499 26.5
s29.833 42.5 34.5 74.5h155z" />
    <glyph glyph-name="Ograve" unicode="&#xd2;" horiz-adv-x="1554" 
d="M1511 842c0 -156.667 -33.6689 -302.501 -101.002 -437.501s-160.166 -240.333 -278.499 -316s-258.5 -113.5 -420.5 -113.5c-119.333 0 -224.666 25.833 -315.999 77.5s-161.5 124.5 -210.5 218.5s-73.5 201 -73.5 321c0 162.667 34.667 310.834 104 444.501
s164 237.334 284 311.001s257.333 110.5 412 110.5c118.667 0 223.5 -24.833 314.5 -74.5s161.333 -121.334 211 -215.001s74.5 -202.5 74.5 -326.5zM1169 830.999c0 106.667 -26.167 190.833 -78.5 252.5s-124.5 92.5 -216.5 92.5c-76.667 0 -148 -25.5 -214 -76.5
s-117 -123.167 -153 -216.5s-54 -189 -54 -287c0 -108 26.167 -192 78.5 -252s122.833 -90 211.5 -90c82 0 155.167 25.167 219.5 75.5s114.833 121.5 151.5 213.5s55 188 55 288zM890.998 1534l-260 325h264l209 -325h-213z" />
    <glyph glyph-name="Oacute" unicode="&#xd3;" horiz-adv-x="1554" 
d="M1511 842c0 -156.667 -33.6689 -302.501 -101.002 -437.501s-160.166 -240.333 -278.499 -316s-258.5 -113.5 -420.5 -113.5c-119.333 0 -224.666 25.833 -315.999 77.5s-161.5 124.5 -210.5 218.5s-73.5 201 -73.5 321c0 162.667 34.667 310.834 104 444.501
s164 237.334 284 311.001s257.333 110.5 412 110.5c118.667 0 223.5 -24.833 314.5 -74.5s161.333 -121.334 211 -215.001s74.5 -202.5 74.5 -326.5zM1169 830.999c0 106.667 -26.167 190.833 -78.5 252.5s-124.5 92.5 -216.5 92.5c-76.667 0 -148 -25.5 -214 -76.5
s-117 -123.167 -153 -216.5s-54 -189 -54 -287c0 -108 26.167 -192 78.5 -252s122.833 -90 211.5 -90c82 0 155.167 25.167 219.5 75.5s114.833 121.5 151.5 213.5s55 188 55 288zM1013 1534h-235l315 325h289z" />
    <glyph glyph-name="Ocircumflex" unicode="&#xd4;" horiz-adv-x="1554" 
d="M1511 842c0 -156.667 -33.6689 -302.501 -101.002 -437.501s-160.166 -240.333 -278.499 -316s-258.5 -113.5 -420.5 -113.5c-119.333 0 -224.666 25.833 -315.999 77.5s-161.5 124.5 -210.5 218.5s-73.5 201 -73.5 321c0 162.667 34.667 310.834 104 444.501
s164 237.334 284 311.001s257.333 110.5 412 110.5c118.667 0 223.5 -24.833 314.5 -74.5s161.333 -121.334 211 -215.001s74.5 -202.5 74.5 -326.5zM1169 830.999c0 106.667 -26.167 190.833 -78.5 252.5s-124.5 92.5 -216.5 92.5c-76.667 0 -148 -25.5 -214 -76.5
s-117 -123.167 -153 -216.5s-54 -189 -54 -287c0 -108 26.167 -192 78.5 -252s122.833 -90 211.5 -90c82 0 155.167 25.167 219.5 75.5s114.833 121.5 151.5 213.5s55 188 55 288zM1081 1534l-116 190l-197 -190h-211l303 327h250l168 -327h-197z" />
    <glyph glyph-name="Otilde" unicode="&#xd5;" horiz-adv-x="1554" 
d="M1511 842c0 -156.667 -33.6689 -302.501 -101.002 -437.501s-160.166 -240.333 -278.499 -316s-258.5 -113.5 -420.5 -113.5c-119.333 0 -224.666 25.833 -315.999 77.5s-161.5 124.5 -210.5 218.5s-73.5 201 -73.5 321c0 162.667 34.667 310.834 104 444.501
s164 237.334 284 311.001s257.333 110.5 412 110.5c118.667 0 223.5 -24.833 314.5 -74.5s161.333 -121.334 211 -215.001s74.5 -202.5 74.5 -326.5zM1169 830.999c0 106.667 -26.167 190.833 -78.5 252.5s-124.5 92.5 -216.5 92.5c-76.667 0 -148 -25.5 -214 -76.5
s-117 -123.167 -153 -216.5s-54 -189 -54 -287c0 -108 26.167 -192 78.5 -252s122.833 -90 211.5 -90c82 0 155.167 25.167 219.5 75.5s114.833 121.5 151.5 213.5s55 188 55 288zM1353 1831c-12.667 -90 -42.333 -159.668 -89 -209.001s-103.667 -74 -171 -74
c-34 0 -62.833 4.33301 -86.5 13s-44.667 18 -63 28l-52 28c-16.333 8.66699 -34.5 13 -54.5 13c-29.333 0 -53.5 -9.16699 -72.5 -27.5s-30.833 -42.5 -35.5 -72.5h-154c10 84.667 38.833 152.834 86.5 204.501s106.834 77.5 177.501 77.5c33.333 0 61 -4.33301 83 -13
s42 -18 60 -28s35.667 -19.333 53 -28s37.333 -13 60 -13c27.333 0 50.166 8.83301 68.499 26.5s29.833 42.5 34.5 74.5h155z" />
    <glyph glyph-name="Odieresis" unicode="&#xd6;" horiz-adv-x="1554" 
d="M1511 842c0 -156.667 -33.6689 -302.501 -101.002 -437.501s-160.166 -240.333 -278.499 -316s-258.5 -113.5 -420.5 -113.5c-119.333 0 -224.666 25.833 -315.999 77.5s-161.5 124.5 -210.5 218.5s-73.5 201 -73.5 321c0 162.667 34.667 310.834 104 444.501
s164 237.334 284 311.001s257.333 110.5 412 110.5c118.667 0 223.5 -24.833 314.5 -74.5s161.333 -121.334 211 -215.001s74.5 -202.5 74.5 -326.5zM1169 830.999c0 106.667 -26.167 190.833 -78.5 252.5s-124.5 92.5 -216.5 92.5c-76.667 0 -148 -25.5 -214 -76.5
s-117 -123.167 -153 -216.5s-54 -189 -54 -287c0 -108 26.167 -192 78.5 -252s122.833 -90 211.5 -90c82 0 155.167 25.167 219.5 75.5s114.833 121.5 151.5 213.5s55 188 55 288zM1304 1670c0 -41.333 -14.501 -74.834 -43.501 -100.501s-65.5 -38.5 -109.5 -38.5
c-45.333 0 -82.333 13.333 -111 40s-43 59.667 -43 99c0 40.667 14.833 73.334 44.5 98.001s66.167 37 109.5 37c44.667 0 81.334 -12.5 110.001 -37.5s43 -57.5 43 -97.5zM846.997 1670c0 -40.667 -14.502 -74 -43.502 -100s-65.5 -39 -109.5 -39
c-45.333 0 -82.666 13.5 -111.999 40.5s-44 59.833 -44 98.5c0 40 15 72.5 45 97.5s67 37.5 111 37.5c44.667 0 81.334 -12.5 110.001 -37.5s43 -57.5 43 -97.5z" />
    <glyph glyph-name="multiply" unicode="&#xd7;" horiz-adv-x="1450" 
d="M1077 104l-338 340l-340 -340l-145 144l340 338l-340 340l141 145l344 -340l342 340l140 -149l-338 -336l340 -338z" />
    <glyph glyph-name="Oslash" unicode="&#xd8;" horiz-adv-x="1554" 
d="M1405 1221c70.667 -108 105.999 -235.668 105.999 -383.001c0 -156.667 -35.333 -303.667 -106 -441s-165 -242 -283 -314s-256.333 -108 -415 -108c-148 0 -274.333 41.667 -379 125l-166 -176l-121 119l172 178c-68 106 -102 229.667 -102 371
c0 116.667 18.833 228.334 56.5 335.001s93.5 200.5 167.5 281.5s158.833 142.5 254.5 184.5s202.834 63 321.501 63c144 0 269 -39 375 -117l148 154l118 -117zM1090 1133c-24 21.333 -54 38.833 -90 52.5s-75 20.5 -117 20.5c-84 0 -160 -25 -228 -75
s-122.833 -125.333 -164.5 -226s-62.5 -203.667 -62.5 -309c0 -46 5.33301 -89.667 16 -131zM1194 833.999c0 53.333 -7.66602 101 -22.999 143l-649 -674c54.667 -54.667 125.667 -82 213 -82c86.667 0 165.167 27 235.5 81s125.166 130.167 164.499 228.5
s59 199.5 59 303.5z" />
    <glyph glyph-name="Ugrave" unicode="&#xd9;" horiz-adv-x="1481" 
d="M668 -25c-161.333 0 -287.999 43.167 -379.999 129.5s-138 204.5 -138 354.5c0 70 9.33301 147 28 231l160 744h326l-162 -746c-19.333 -93.333 -29 -158.666 -29 -195.999c0 -74.667 21.5 -133 64.5 -175s98.833 -63 167.5 -63c85.333 0 152.833 27.167 202.5 81.5
s86.5 139.166 110.5 254.499l182 844h326l-183 -850c-32.667 -154 -76.334 -273.333 -131.001 -358s-126 -147.667 -214 -189s-198 -62 -330 -62zM867.001 1534l-260 325h264l209 -325h-213z" />
    <glyph glyph-name="Uacute" unicode="&#xda;" horiz-adv-x="1481" 
d="M668 -25c-161.333 0 -287.999 43.167 -379.999 129.5s-138 204.5 -138 354.5c0 70 9.33301 147 28 231l160 744h326l-162 -746c-19.333 -93.333 -29 -158.666 -29 -195.999c0 -74.667 21.5 -133 64.5 -175s98.833 -63 167.5 -63c85.333 0 152.833 27.167 202.5 81.5
s86.5 139.166 110.5 254.499l182 844h326l-183 -850c-32.667 -154 -76.334 -273.333 -131.001 -358s-126 -147.667 -214 -189s-198 -62 -330 -62zM1006 1533h-235l315 325h289z" />
    <glyph glyph-name="Ucircumflex" unicode="&#xdb;" horiz-adv-x="1481" 
d="M668 -25c-161.333 0 -287.999 43.167 -379.999 129.5s-138 204.5 -138 354.5c0 70 9.33301 147 28 231l160 744h326l-162 -746c-19.333 -93.333 -29 -158.666 -29 -195.999c0 -74.667 21.5 -133 64.5 -175s98.833 -63 167.5 -63c85.333 0 152.833 27.167 202.5 81.5
s86.5 139.166 110.5 254.499l182 844h326l-183 -850c-32.667 -154 -76.334 -273.333 -131.001 -358s-126 -147.667 -214 -189s-198 -62 -330 -62zM1102 1535l-116 190l-197 -190h-211l303 327h250l168 -327h-197z" />
    <glyph glyph-name="Udieresis" unicode="&#xdc;" horiz-adv-x="1481" 
d="M668 -25c-161.333 0 -287.999 43.167 -379.999 129.5s-138 204.5 -138 354.5c0 70 9.33301 147 28 231l160 744h326l-162 -746c-19.333 -93.333 -29 -158.666 -29 -195.999c0 -74.667 21.5 -133 64.5 -175s98.833 -63 167.5 -63c85.333 0 152.833 27.167 202.5 81.5
s86.5 139.166 110.5 254.499l182 844h326l-183 -850c-32.667 -154 -76.334 -273.333 -131.001 -358s-126 -147.667 -214 -189s-198 -62 -330 -62zM1343 1674c0 -41.333 -14.501 -74.834 -43.501 -100.501s-65.5 -38.5 -109.5 -38.5c-45.333 0 -82.333 13.333 -111 40
s-43 59.667 -43 99c0 40.667 14.833 73.334 44.5 98.001s66.167 37 109.5 37c44.667 0 81.334 -12.5 110.001 -37.5s43 -57.5 43 -97.5zM886 1674c0 -40.667 -14.502 -74 -43.502 -100s-65.5 -39 -109.5 -39c-45.333 0 -82.666 13.5 -111.999 40.5s-44 59.833 -44 98.5
c0 40 15 72.5 45 97.5s67 37.5 111 37.5c44.667 0 81.334 -12.5 110.001 -37.5s43 -57.5 43 -97.5z" />
    <glyph glyph-name="Yacute" unicode="&#xdd;" horiz-adv-x="1245" 
d="M668 0l-326 -0.000976562l109 514l-258 920h350l114 -545c5.33301 -22.667 8.5 -43.667 9.5 -63s2.16699 -36.666 3.5 -51.999h2c17.333 44 35 81 53 111l350 549h363l-662 -914zM904 1534h-235l315 325h289z" />
    <glyph glyph-name="Thorn" unicode="&#xde;" horiz-adv-x="1290" 
d="M1272 817c0 -106 -25 -199 -75 -279s-122.833 -142.5 -218.5 -187.5s-210.167 -67.5 -343.5 -67.5h-199l-61 -283h-326l305 1434h326l-45 -211h168c148 0 263.167 -35.333 345.5 -106s123.5 -170.667 123.5 -300zM930 793c0 58 -19.832 102.833 -59.499 134.5
s-95.834 47.5 -168.501 47.5h-120l-95 -445h150c91.333 0 163 23.5 215 70.5s78 111.167 78 192.5z" />
    <glyph glyph-name="germandbls" unicode="&#xdf;" horiz-adv-x="1235" 
d="M1219 1190c0 -61.333 -13.001 -117.837 -39.001 -169.504s-65.667 -97 -119 -136s-114.666 -68.167 -183.999 -87.5v-4c94.667 -19.333 168.5 -60 221.5 -122s79.5 -139 79.5 -231c0 -89.333 -21.333 -169.166 -64 -239.499s-104.5 -125.5 -185.5 -165.5
s-175.5 -60 -283.5 -60c-92.667 0 -169 11.667 -229 35l55 252c43.333 -30 96.666 -45 159.999 -45c66 0 119.667 21.833 161 65.5s62 99.834 62 168.501c0 69.333 -24.167 122.833 -72.5 160.5s-117.833 56.5 -208.5 56.5l48 225
c83.333 6.66699 149.833 32.834 199.5 78.501s74.5 105.5 74.5 179.5c0 42.667 -13.167 77.834 -39.5 105.501s-61.5 41.5 -105.5 41.5c-52.667 0 -96.834 -19.333 -132.501 -58s-62.5 -101.667 -80.5 -189l-224 -1051h-319l227 1065c35.333 160.667 98.833 280 190.5 358
s213.167 117 364.5 117c92.667 0 172.334 -14.833 239.001 -44.5s117.334 -71 152.001 -124s52 -113.5 52 -181.5z" />
    <glyph glyph-name="agrave" unicode="&#xe0;" horiz-adv-x="1214" 
d="M1006 0l-319.999 0.000976562c0 41.333 4.66699 99.333 14 174h-4c-42 -56.667 -77.833 -97.334 -107.5 -122.001s-61.834 -43.667 -96.501 -57s-73.667 -20 -117 -20c-100 0 -177.333 35 -232 105s-82 167 -82 291c0 84.667 16.333 171.5 49 260.5
s78.667 164.333 138 226s131 109 215 142s180.333 49.5 289 49.5c126 0 270 -18 432 -54l-140 -657c-8 -36.667 -16.333 -90.667 -25 -162s-13 -130 -13 -176zM829.001 817.001c-30.667 6.66699 -65.333 9.99902 -104 9.99902c-66 0 -124.667 -18 -176 -54
s-92.5 -89.667 -123.5 -161s-46.5 -145.666 -46.5 -222.999c0 -54.667 11.333 -97 34 -127s53 -45 91 -45c60 0 113.833 30.833 161.5 92.5s84.5 151.167 110.5 268.5zM746.002 1186l-260 325h264l209 -325h-213z" />
    <glyph glyph-name="aacute" unicode="&#xe1;" horiz-adv-x="1214" 
d="M1006 0l-319.999 0.000976562c0 41.333 4.66699 99.333 14 174h-4c-42 -56.667 -77.833 -97.334 -107.5 -122.001s-61.834 -43.667 -96.501 -57s-73.667 -20 -117 -20c-100 0 -177.333 35 -232 105s-82 167 -82 291c0 84.667 16.333 171.5 49 260.5
s78.667 164.333 138 226s131 109 215 142s180.333 49.5 289 49.5c126 0 270 -18 432 -54l-140 -657c-8 -36.667 -16.333 -90.667 -25 -162s-13 -130 -13 -176zM829.001 817.001c-30.667 6.66699 -65.333 9.99902 -104 9.99902c-66 0 -124.667 -18 -176 -54
s-92.5 -89.667 -123.5 -161s-46.5 -145.666 -46.5 -222.999c0 -54.667 11.333 -97 34 -127s53 -45 91 -45c60 0 113.833 30.833 161.5 92.5s84.5 151.167 110.5 268.5zM835.002 1186h-235l315 325h289z" />
    <glyph glyph-name="acircumflex" unicode="&#xe2;" horiz-adv-x="1214" 
d="M1006 0l-319.999 0.000976562c0 41.333 4.66699 99.333 14 174h-4c-42 -56.667 -77.833 -97.334 -107.5 -122.001s-61.834 -43.667 -96.501 -57s-73.667 -20 -117 -20c-100 0 -177.333 35 -232 105s-82 167 -82 291c0 84.667 16.333 171.5 49 260.5
s78.667 164.333 138 226s131 109 215 142s180.333 49.5 289 49.5c126 0 270 -18 432 -54l-140 -657c-8 -36.667 -16.333 -90.667 -25 -162s-13 -130 -13 -176zM829.001 817.001c-30.667 6.66699 -65.333 9.99902 -104 9.99902c-66 0 -124.667 -18 -176 -54
s-92.5 -89.667 -123.5 -161s-46.5 -145.666 -46.5 -222.999c0 -54.667 11.333 -97 34 -127s53 -45 91 -45c60 0 113.833 30.833 161.5 92.5s84.5 151.167 110.5 268.5zM938.002 1186l-116 190l-197 -190h-211l303 327h250l168 -327h-197z" />
    <glyph glyph-name="atilde" unicode="&#xe3;" horiz-adv-x="1214" 
d="M1006 0l-319.999 0.000976562c0 41.333 4.66699 99.333 14 174h-4c-42 -56.667 -77.833 -97.334 -107.5 -122.001s-61.834 -43.667 -96.501 -57s-73.667 -20 -117 -20c-100 0 -177.333 35 -232 105s-82 167 -82 291c0 84.667 16.333 171.5 49 260.5
s78.667 164.333 138 226s131 109 215 142s180.333 49.5 289 49.5c126 0 270 -18 432 -54l-140 -657c-8 -36.667 -16.333 -90.667 -25 -162s-13 -130 -13 -176zM829.001 817.001c-30.667 6.66699 -65.333 9.99902 -104 9.99902c-66 0 -124.667 -18 -176 -54
s-92.5 -89.667 -123.5 -161s-46.5 -145.666 -46.5 -222.999c0 -54.667 11.333 -97 34 -127s53 -45 91 -45c60 0 113.833 30.833 161.5 92.5s84.5 151.167 110.5 268.5zM1173 1491c-12.667 -90 -42.333 -159.668 -89 -209.001s-103.667 -74 -171 -74
c-34 0 -62.833 4.33301 -86.5 13s-44.667 18 -63 28l-52 28c-16.333 8.66699 -34.5 13 -54.5 13c-29.333 0 -53.5 -9.16699 -72.5 -27.5s-30.833 -42.5 -35.5 -72.5h-154c10 84.667 38.833 152.834 86.5 204.501s106.834 77.5 177.501 77.5c33.333 0 61 -4.33301 83 -13
s42 -18 60 -28s35.667 -19.333 53 -28s37.333 -13 60 -13c27.333 0 50.166 8.83301 68.499 26.5s29.833 42.5 34.5 74.5h155z" />
    <glyph glyph-name="adieresis" unicode="&#xe4;" horiz-adv-x="1214" 
d="M1006 0l-319.999 0.000976562c0 41.333 4.66699 99.333 14 174h-4c-42 -56.667 -77.833 -97.334 -107.5 -122.001s-61.834 -43.667 -96.501 -57s-73.667 -20 -117 -20c-100 0 -177.333 35 -232 105s-82 167 -82 291c0 84.667 16.333 171.5 49 260.5
s78.667 164.333 138 226s131 109 215 142s180.333 49.5 289 49.5c126 0 270 -18 432 -54l-140 -657c-8 -36.667 -16.333 -90.667 -25 -162s-13 -130 -13 -176zM829.001 817.001c-30.667 6.66699 -65.333 9.99902 -104 9.99902c-66 0 -124.667 -18 -176 -54
s-92.5 -89.667 -123.5 -161s-46.5 -145.666 -46.5 -222.999c0 -54.667 11.333 -97 34 -127s53 -45 91 -45c60 0 113.833 30.833 161.5 92.5s84.5 151.167 110.5 268.5zM1133 1325c0 -41.333 -14.501 -74.834 -43.501 -100.501s-65.5 -38.5 -109.5 -38.5
c-45.333 0 -82.333 13.333 -111 40s-43 59.667 -43 99c0 40.667 14.833 73.334 44.5 98.001s66.167 37 109.5 37c44.667 0 81.334 -12.5 110.001 -37.5s43 -57.5 43 -97.5zM676.001 1325c0 -40.667 -14.502 -74 -43.502 -100s-65.5 -39 -109.5 -39
c-45.333 0 -82.666 13.5 -111.999 40.5s-44 59.833 -44 98.5c0 40 15 72.5 45 97.5s67 37.5 111 37.5c44.667 0 81.334 -12.5 110.001 -37.5s43 -57.5 43 -97.5z" />
    <glyph glyph-name="aring" unicode="&#xe5;" horiz-adv-x="1214" 
d="M1006 0l-319.999 0.000976562c0 41.333 4.66699 99.333 14 174h-4c-42 -56.667 -77.833 -97.334 -107.5 -122.001s-61.834 -43.667 -96.501 -57s-73.667 -20 -117 -20c-100 0 -177.333 35 -232 105s-82 167 -82 291c0 84.667 16.333 171.5 49 260.5
s78.667 164.333 138 226s131 109 215 142s180.333 49.5 289 49.5c126 0 270 -18 432 -54l-140 -657c-8 -36.667 -16.333 -90.667 -25 -162s-13 -130 -13 -176zM829.001 817.001c-30.667 6.66699 -65.333 9.99902 -104 9.99902c-66 0 -124.667 -18 -176 -54
s-92.5 -89.667 -123.5 -161s-46.5 -145.666 -46.5 -222.999c0 -54.667 11.333 -97 34 -127s53 -45 91 -45c60 0 113.833 30.833 161.5 92.5s84.5 151.167 110.5 268.5zM1038 1378c0 -64.667 -23.332 -117.667 -69.999 -159s-104.667 -62 -174 -62
s-125.833 20.167 -169.5 60.5s-65.5 91.833 -65.5 154.5c0 65.333 22.667 118.5 68 159.5s102.666 61.5 171.999 61.5c71.333 0 129 -19.833 173 -59.5s66 -91.5 66 -155.5zM897.003 1376c0 25.333 -9.16797 47.333 -27.501 66s-43.5 28 -75.5 28c-28 0 -51 -9.5 -69 -28.5
s-27 -40.833 -27 -65.5c0 -26.667 8.33301 -49 25 -67s40.334 -27 71.001 -27c29.333 0 53.833 8.66699 73.5 26s29.5 40 29.5 68z" />
    <glyph glyph-name="ae" unicode="&#xe6;" horiz-adv-x="1761" 
d="M1747 760c0 -122 -55.999 -212.499 -167.999 -271.499s-282.667 -90.167 -512 -93.5v-18c0 -54.667 18.167 -97.667 54.5 -129s87.833 -47 154.5 -47c51.333 0 107.666 8.83301 168.999 26.5s116.333 40.167 165 67.5l-49 -236
c-47.333 -24.667 -103.333 -44.834 -168 -60.501s-130.334 -23.5 -197.001 -23.5c-96.667 0 -179 20.167 -247 60.5s-116 100.166 -144 179.499h-4c-61.333 -84 -125.5 -145 -192.5 -183s-139.5 -57 -217.5 -57c-100 0 -180 34.167 -240 102.5s-90 162.5 -90 282.5
c0 88 18.333 177.667 55 269s84.5 167.333 143.5 228s130.167 107.834 213.5 141.501s177.666 50.5 282.999 50.5c114.667 0 229.334 -21.333 344.001 -64c80 42.667 172.667 64 278 64c114.667 0 204.834 -26.167 270.501 -78.5s98.5 -122.5 98.5 -210.5zM1444 756.001
c0 24.667 -9.16602 45.167 -27.499 61.5s-43.5 24.5 -75.5 24.5c-56.667 0 -108.334 -23 -155.001 -69s-78.667 -107 -96 -183h16c112 0 196.333 14.167 253 42.5s85 69.5 85 123.5zM870.002 807.001c-33.333 13.333 -70.6699 19.999 -112.003 19.999
c-71.333 0 -134.666 -18.333 -189.999 -55s-100.666 -92.167 -135.999 -166.5s-53 -149.166 -53 -224.499c0 -50 9.33301 -89.833 28 -119.5s45.334 -44.5 80.001 -44.5c96 0 188.333 107.333 277 322l16 46c37.333 114.667 67.333 188.667 90 222z" />
    <glyph glyph-name="ccedilla" unicode="&#xe7;" horiz-adv-x="946" 
d="M901 743c-22.667 17.333 -51.999 32.334 -87.999 45.001s-75 19 -117 19c-58 0 -111.333 -17.333 -160 -52s-87 -81.834 -115 -141.501s-42 -120.167 -42 -181.5c0 -68.667 16 -121.667 48 -159s80 -56 144 -56c38.667 0 80.667 7.33301 126 22s84 32 116 52l-49 -242
c-96 -49.333 -195.667 -74 -299 -74c-126 0 -224.833 37.5 -296.5 112.5s-107.5 178.167 -107.5 309.5c0 120.667 27.5 231.667 82.5 333s130.167 179.833 225.5 235.5s203.666 83.5 324.999 83.5c48.667 0 96.667 -5.16699 144 -15.5s87.333 -24.5 120 -42.5z
M657.001 -228.999c0 -68.667 -30.667 -123.831 -92 -165.498s-143.333 -62.5 -246 -62.5c-23.333 0 -60 2 -110 6l31 138c28 -6 53 -9 75 -9c44 0 78.333 7.16699 103 21.5s37 33.166 37 56.499c0 42.667 -37 64 -111 64h-22l-25 -2l43 182h154l-19 -82
c60 -2.66699 105.333 -16.834 136 -42.501s46 -60.5 46 -104.5z" />
    <glyph glyph-name="egrave" unicode="&#xe8;" horiz-adv-x="1065" 
d="M1051 760c0 -121.333 -55.5 -211.668 -166.5 -271.001s-281.5 -90.666 -511.5 -93.999l-2 -10v-10c0 -54.667 18.5 -97.334 55.5 -128.001s88.167 -46 153.5 -46c51.333 0 107.833 9 169.5 27s116.167 40.333 163.5 67l-49 -236
c-49.333 -25.333 -106 -45.666 -170 -60.999s-128.667 -23 -194 -23c-136.667 0 -244 37.167 -322 111.5s-117 178.5 -117 312.5c0 118.667 26.167 228.167 78.5 328.5s125.833 179 220.5 236s200 85.5 316 85.5c118 0 210 -26.167 276 -78.5s99 -122.5 99 -210.5z
M750 755.998c0 24.667 -9.16797 45.168 -27.501 61.501s-44.166 24.5 -77.499 24.5c-56.667 0 -108.5 -22.833 -155.5 -68.5s-79.167 -106.834 -96.5 -183.501h16c112 0 196.833 14 254.5 42s86.5 69.333 86.5 124zM669.999 1186l-260 325h264l209 -325h-213z" />
    <glyph glyph-name="eacute" unicode="&#xe9;" horiz-adv-x="1065" 
d="M1051 760c0 -121.333 -55.5 -211.668 -166.5 -271.001s-281.5 -90.666 -511.5 -93.999l-2 -10v-10c0 -54.667 18.5 -97.334 55.5 -128.001s88.167 -46 153.5 -46c51.333 0 107.833 9 169.5 27s116.167 40.333 163.5 67l-49 -236
c-49.333 -25.333 -106 -45.666 -170 -60.999s-128.667 -23 -194 -23c-136.667 0 -244 37.167 -322 111.5s-117 178.5 -117 312.5c0 118.667 26.167 228.167 78.5 328.5s125.833 179 220.5 236s200 85.5 316 85.5c118 0 210 -26.167 276 -78.5s99 -122.5 99 -210.5z
M750 755.998c0 24.667 -9.16797 45.168 -27.501 61.501s-44.166 24.5 -77.499 24.5c-56.667 0 -108.5 -22.833 -155.5 -68.5s-79.167 -106.834 -96.5 -183.501h16c112 0 196.833 14 254.5 42s86.5 69.333 86.5 124zM836.999 1186h-235l315 325h289z" />
    <glyph glyph-name="ecircumflex" unicode="&#xea;" horiz-adv-x="1065" 
d="M1051 760c0 -121.333 -55.5 -211.668 -166.5 -271.001s-281.5 -90.666 -511.5 -93.999l-2 -10v-10c0 -54.667 18.5 -97.334 55.5 -128.001s88.167 -46 153.5 -46c51.333 0 107.833 9 169.5 27s116.167 40.333 163.5 67l-49 -236
c-49.333 -25.333 -106 -45.666 -170 -60.999s-128.667 -23 -194 -23c-136.667 0 -244 37.167 -322 111.5s-117 178.5 -117 312.5c0 118.667 26.167 228.167 78.5 328.5s125.833 179 220.5 236s200 85.5 316 85.5c118 0 210 -26.167 276 -78.5s99 -122.5 99 -210.5z
M750 755.998c0 24.667 -9.16797 45.168 -27.501 61.501s-44.166 24.5 -77.499 24.5c-56.667 0 -108.5 -22.833 -155.5 -68.5s-79.167 -106.834 -96.5 -183.501h16c112 0 196.833 14 254.5 42s86.5 69.333 86.5 124zM888.999 1186l-116 190l-197 -190h-211l303 327h250
l168 -327h-197z" />
    <glyph glyph-name="edieresis" unicode="&#xeb;" horiz-adv-x="1065" 
d="M1051 760c0 -121.333 -55.5 -211.668 -166.5 -271.001s-281.5 -90.666 -511.5 -93.999l-2 -10v-10c0 -54.667 18.5 -97.334 55.5 -128.001s88.167 -46 153.5 -46c51.333 0 107.833 9 169.5 27s116.167 40.333 163.5 67l-49 -236
c-49.333 -25.333 -106 -45.666 -170 -60.999s-128.667 -23 -194 -23c-136.667 0 -244 37.167 -322 111.5s-117 178.5 -117 312.5c0 118.667 26.167 228.167 78.5 328.5s125.833 179 220.5 236s200 85.5 316 85.5c118 0 210 -26.167 276 -78.5s99 -122.5 99 -210.5z
M750 755.998c0 24.667 -9.16797 45.168 -27.501 61.501s-44.166 24.5 -77.499 24.5c-56.667 0 -108.5 -22.833 -155.5 -68.5s-79.167 -106.834 -96.5 -183.501h16c112 0 196.833 14 254.5 42s86.5 69.333 86.5 124zM1104 1325c0 -41.333 -14.501 -74.834 -43.501 -100.501
s-65.5 -38.5 -109.5 -38.5c-45.333 0 -82.333 13.333 -111 40s-43 59.667 -43 99c0 40.667 14.833 73.334 44.5 98.001s66.167 37 109.5 37c44.667 0 81.334 -12.5 110.001 -37.5s43 -57.5 43 -97.5zM646.998 1325c0 -40.667 -14.502 -74 -43.502 -100s-65.5 -39 -109.5 -39
c-45.333 0 -82.666 13.5 -111.999 40.5s-44 59.833 -44 98.5c0 40 15 72.5 45 97.5s67 37.5 111 37.5c44.667 0 81.334 -12.5 110.001 -37.5s43 -57.5 43 -97.5z" />
    <glyph glyph-name="igrave" unicode="&#xec;" horiz-adv-x="578" 
d="M334 0h-318l217 1024h318zM391 1186l-260 325h264l209 -325h-213z" />
    <glyph glyph-name="iacute" unicode="&#xed;" horiz-adv-x="578" 
d="M334 0h-318l217 1024h318zM491 1186h-235l315 325h289z" />
    <glyph glyph-name="icircumflex" unicode="&#xee;" horiz-adv-x="578" 
d="M334 0h-318l217 1024h318zM570 1180l-116 190l-197 -190h-211l303 327h250l168 -327h-197z" />
    <glyph glyph-name="idieresis" unicode="&#xef;" horiz-adv-x="578" 
d="M334 0h-318l217 1024h318zM814 1323c0 -41.333 -14.501 -74.834 -43.501 -100.501s-65.5 -38.5 -109.5 -38.5c-45.333 0 -82.333 13.333 -111 40s-43 59.667 -43 99c0 40.667 14.833 73.334 44.5 98.001s66.167 37 109.5 37c44.667 0 81.334 -12.5 110.001 -37.5
s43 -57.5 43 -97.5zM356.999 1323c0 -40.667 -14.502 -74 -43.502 -100s-65.5 -39 -109.5 -39c-45.333 0 -82.666 13.5 -111.999 40.5s-44 59.833 -44 98.5c0 40 15 72.5 45 97.5s67 37.5 111 37.5c44.667 0 81.334 -12.5 110.001 -37.5s43 -57.5 43 -97.5z" />
    <glyph glyph-name="eth" unicode="&#xf0;" horiz-adv-x="1165" 
d="M860 1311c78 -81.333 138.169 -175.33 180.502 -281.997s63.5 -217.667 63.5 -333c0 -138.667 -25.833 -263.667 -77.5 -375s-122.834 -196.833 -213.501 -256.5s-195.667 -89.5 -315 -89.5c-136.667 0 -243.667 38.833 -321 116.5s-116 185.167 -116 322.5
c0 112.667 23.333 218.5 70 317.5s110.5 176.667 191.5 233s169.5 84.5 265.5 84.5c75.333 0 136.666 -26 183.999 -78h4c-12 39.333 -32.5 82.666 -61.5 129.999s-58.833 86.666 -89.5 117.999l-287 -113l-68 125l248 96c-22 23.333 -55.167 54.166 -99.5 92.499
s-84.833 70.5 -121.5 96.5h342c48.667 -35.333 87 -67 115 -95l272 111l64 -127zM786.002 623.003c0 59.333 -13.001 104.834 -39.001 136.501s-62.667 47.5 -110 47.5c-48 0 -91.833 -18.667 -131.5 -56s-70.667 -87.5 -93 -150.5s-33.5 -127.833 -33.5 -194.5
c0 -60.667 12.833 -107.334 38.5 -140.001s60.5 -49 104.5 -49c51.333 0 96.833 19 136.5 57s70.834 89.167 93.501 153.5s34 129.5 34 195.5z" />
    <glyph glyph-name="ntilde" unicode="&#xf1;" 
d="M1151 780c0 -38 -9.66797 -100.665 -29.001 -187.998l-125 -592h-317l123 584c12 64 18 103.333 18 118c0 32 -8.16699 57.5 -24.5 76.5s-40.833 28.5 -73.5 28.5c-35.333 0 -73 -14.333 -113 -43s-75 -66.5 -105 -113.5s-50.333 -95.167 -61 -144.5l-106 -506h-322
l152 702c28 144 46.333 251.333 55 322h312c-11.333 -108.667 -19.666 -174.334 -24.999 -197.001h4c51.333 67.333 111.333 121.166 180 161.499s135.667 60.5 201 60.5c84.667 0 148.5 -23.5 191.5 -70.5s64.5 -113.167 64.5 -198.5zM1157 1487
c-12.667 -90 -42.333 -159.668 -89 -209.001s-103.667 -74 -171 -74c-34 0 -62.833 4.33301 -86.5 13s-44.667 18 -63 28l-52 28c-16.333 8.66699 -34.5 13 -54.5 13c-29.333 0 -53.5 -9.16699 -72.5 -27.5s-30.833 -42.5 -35.5 -72.5h-154
c10 84.667 38.833 152.834 86.5 204.501s106.834 77.5 177.501 77.5c33.333 0 61 -4.33301 83 -13s42 -18 60 -28s35.667 -19.333 53 -28s37.333 -13 60 -13c27.333 0 50.166 8.83301 68.499 26.5s29.833 42.5 34.5 74.5h155z" />
    <glyph glyph-name="ograve" unicode="&#xf2;" horiz-adv-x="1178" 
d="M1116 618c0 -122 -26.165 -234 -78.498 -336s-123.666 -178.667 -213.999 -230s-195.5 -77 -315.5 -77c-140.667 0 -250.334 38.333 -329.001 115s-118 182.667 -118 318c0 122 26.333 233.333 79 334s124.667 177 216 229s196.666 78 315.999 78
c139.333 0 248.166 -38.5 326.499 -115.5s117.5 -182.167 117.5 -315.5zM797.002 614c0 59.333 -13.8301 106.333 -41.4971 141s-64.5 52 -110.5 52c-50 0 -95.333 -18.333 -136 -55s-72.5 -86.334 -95.5 -149.001s-34.5 -127.667 -34.5 -195
c0 -60.667 14.167 -107.667 42.5 -141s65.166 -50 110.499 -50c51.333 0 97.166 17.667 137.499 53s71.666 83.833 93.999 145.5s33.5 127.834 33.5 198.501zM664.005 1186l-260 325h264l209 -325h-213z" />
    <glyph glyph-name="oacute" unicode="&#xf3;" horiz-adv-x="1178" 
d="M1116 618c0 -122 -26.165 -234 -78.498 -336s-123.666 -178.667 -213.999 -230s-195.5 -77 -315.5 -77c-140.667 0 -250.334 38.333 -329.001 115s-118 182.667 -118 318c0 122 26.333 233.333 79 334s124.667 177 216 229s196.666 78 315.999 78
c139.333 0 248.166 -38.5 326.499 -115.5s117.5 -182.167 117.5 -315.5zM797.002 614c0 59.333 -13.8301 106.333 -41.4971 141s-64.5 52 -110.5 52c-50 0 -95.333 -18.333 -136 -55s-72.5 -86.334 -95.5 -149.001s-34.5 -127.667 -34.5 -195
c0 -60.667 14.167 -107.667 42.5 -141s65.166 -50 110.499 -50c51.333 0 97.166 17.667 137.499 53s71.666 83.833 93.999 145.5s33.5 127.834 33.5 198.501zM776.005 1186h-235l315 325h289z" />
    <glyph glyph-name="ocircumflex" unicode="&#xf4;" horiz-adv-x="1178" 
d="M1116 618c0 -122 -26.165 -234 -78.498 -336s-123.666 -178.667 -213.999 -230s-195.5 -77 -315.5 -77c-140.667 0 -250.334 38.333 -329.001 115s-118 182.667 -118 318c0 122 26.333 233.333 79 334s124.667 177 216 229s196.666 78 315.999 78
c139.333 0 248.166 -38.5 326.499 -115.5s117.5 -182.167 117.5 -315.5zM797.002 614c0 59.333 -13.8301 106.333 -41.4971 141s-64.5 52 -110.5 52c-50 0 -95.333 -18.333 -136 -55s-72.5 -86.334 -95.5 -149.001s-34.5 -127.667 -34.5 -195
c0 -60.667 14.167 -107.667 42.5 -141s65.166 -50 110.499 -50c51.333 0 97.166 17.667 137.499 53s71.666 83.833 93.999 145.5s33.5 127.834 33.5 198.501zM872.005 1186l-116 190l-197 -190h-211l303 327h250l168 -327h-197z" />
    <glyph glyph-name="otilde" unicode="&#xf5;" horiz-adv-x="1178" 
d="M1116 618c0 -122 -26.165 -234 -78.498 -336s-123.666 -178.667 -213.999 -230s-195.5 -77 -315.5 -77c-140.667 0 -250.334 38.333 -329.001 115s-118 182.667 -118 318c0 122 26.333 233.333 79 334s124.667 177 216 229s196.666 78 315.999 78
c139.333 0 248.166 -38.5 326.499 -115.5s117.5 -182.167 117.5 -315.5zM797.002 614c0 59.333 -13.8301 106.333 -41.4971 141s-64.5 52 -110.5 52c-50 0 -95.333 -18.333 -136 -55s-72.5 -86.334 -95.5 -149.001s-34.5 -127.667 -34.5 -195
c0 -60.667 14.167 -107.667 42.5 -141s65.166 -50 110.499 -50c51.333 0 97.166 17.667 137.499 53s71.666 83.833 93.999 145.5s33.5 127.834 33.5 198.501zM1137 1487c-12.667 -90 -42.333 -159.668 -89 -209.001s-103.667 -74 -171 -74c-34 0 -62.833 4.33301 -86.5 13
s-44.667 18 -63 28l-52 28c-16.333 8.66699 -34.5 13 -54.5 13c-29.333 0 -53.5 -9.16699 -72.5 -27.5s-30.833 -42.5 -35.5 -72.5h-154c10 84.667 38.833 152.834 86.5 204.501s106.834 77.5 177.501 77.5c33.333 0 61 -4.33301 83 -13s42 -18 60 -28
s35.667 -19.333 53 -28s37.333 -13 60 -13c27.333 0 50.166 8.83301 68.499 26.5s29.833 42.5 34.5 74.5h155z" />
    <glyph glyph-name="odieresis" unicode="&#xf6;" horiz-adv-x="1178" 
d="M1116 618c0 -122 -26.165 -234 -78.498 -336s-123.666 -178.667 -213.999 -230s-195.5 -77 -315.5 -77c-140.667 0 -250.334 38.333 -329.001 115s-118 182.667 -118 318c0 122 26.333 233.333 79 334s124.667 177 216 229s196.666 78 315.999 78
c139.333 0 248.166 -38.5 326.499 -115.5s117.5 -182.167 117.5 -315.5zM797.002 614c0 59.333 -13.8301 106.333 -41.4971 141s-64.5 52 -110.5 52c-50 0 -95.333 -18.333 -136 -55s-72.5 -86.334 -95.5 -149.001s-34.5 -127.667 -34.5 -195
c0 -60.667 14.167 -107.667 42.5 -141s65.166 -50 110.499 -50c51.333 0 97.166 17.667 137.499 53s71.666 83.833 93.999 145.5s33.5 127.834 33.5 198.501zM1098 1325c0 -41.333 -14.501 -74.834 -43.501 -100.501s-65.5 -38.5 -109.5 -38.5
c-45.333 0 -82.333 13.333 -111 40s-43 59.667 -43 99c0 40.667 14.833 73.334 44.5 98.001s66.167 37 109.5 37c44.667 0 81.334 -12.5 110.001 -37.5s43 -57.5 43 -97.5zM641.004 1325c0 -40.667 -14.502 -74 -43.502 -100s-65.5 -39 -109.5 -39
c-45.333 0 -82.666 13.5 -111.999 40.5s-44 59.833 -44 98.5c0 40 15 72.5 45 97.5s67 37.5 111 37.5c44.667 0 81.334 -12.5 110.001 -37.5s43 -57.5 43 -97.5z" />
    <glyph glyph-name="divide" unicode="&#xf7;" horiz-adv-x="1450" 
d="M885 985c0 -40.667 -13.5 -74 -40.5 -100s-59.167 -39 -96.5 -39c-40 0 -73.667 13.5 -101 40.5s-41 59.167 -41 96.5c0 40.667 13.167 75 39.5 103s60.5 42 102.5 42c40.667 0 73.667 -12.833 99 -38.5s38 -60.5 38 -104.5zM254 485v203h975v-203h-975zM881 184
c0 -39.333 -13.333 -72 -40 -98s-59.334 -39 -98.001 -39c-38 0 -71 12.833 -99 38.5s-42 57.834 -42 96.501c0 41.333 13.5 76 40.5 104s60.5 42 100.5 42c40.667 0 73.834 -13.333 99.501 -40s38.5 -61.334 38.5 -104.001z" />
    <glyph glyph-name="oslash" unicode="&#xf8;" horiz-adv-x="1178" 
d="M1061 848c36.667 -63.333 55 -140 55 -230c0 -122 -25.833 -233.667 -77.5 -335s-123.167 -178 -214.5 -230s-196.666 -78 -315.999 -78c-120 0 -216.333 28.667 -289 86l-137 -127l-102 119l135 127c-36 64 -54 140 -54 228c0 124.667 26.667 237.167 80 337.5
s125.333 176 216 227s195.667 76.5 315 76.5c111.333 0 204.666 -28 279.999 -84l158 147l102 -121zM758 782c-26.667 28.667 -62.333 43 -107 43c-90 0 -163.667 -37.333 -221 -112s-86 -169.667 -86 -285l2 -31zM831.001 600l-0.000976562 19l-2 18l-413 -389
c30 -32.667 67.333 -49 112 -49c92.667 0 166.334 37.333 221.001 112s82 171 82 289z" />
    <glyph glyph-name="ugrave" unicode="&#xf9;" 
d="M1004 0l-320.001 0.000976562l14 116l11 77h-4c-55.333 -70 -116.333 -123.833 -183 -161.5s-132.667 -56.5 -198 -56.5c-84.667 0 -148.834 23.5 -192.501 70.5s-65.5 113.167 -65.5 198.5c0 18.667 3.33301 48 10 88s12 70.167 16 90.5s46.333 220.833 127 601.5h318
l-123 -578c-12.667 -50.667 -19 -91.334 -19 -122.001c0 -29.333 8 -52.833 24 -70.5s39.333 -26.5 70 -26.5c40 0 79.833 14.333 119.5 43s74.834 68 105.501 118s51.334 101 62.001 153l103 483h319l-147 -684c-24 -120 -39.667 -233.333 -47 -340zM657.999 1186l-260 325
h264l209 -325h-213z" />
    <glyph glyph-name="uacute" unicode="&#xfa;" 
d="M1004 0l-320.001 0.000976562l14 116l11 77h-4c-55.333 -70 -116.333 -123.833 -183 -161.5s-132.667 -56.5 -198 -56.5c-84.667 0 -148.834 23.5 -192.501 70.5s-65.5 113.167 -65.5 198.5c0 18.667 3.33301 48 10 88s12 70.167 16 90.5s46.333 220.833 127 601.5h318
l-123 -578c-12.667 -50.667 -19 -91.334 -19 -122.001c0 -29.333 8 -52.833 24 -70.5s39.333 -26.5 70 -26.5c40 0 79.833 14.333 119.5 43s74.834 68 105.501 118s51.334 101 62.001 153l103 483h319l-147 -684c-24 -120 -39.667 -233.333 -47 -340zM820.999 1186h-235
l315 325h289z" />
    <glyph glyph-name="ucircumflex" unicode="&#xfb;" 
d="M1004 0l-320.001 0.000976562l14 116l11 77h-4c-55.333 -70 -116.333 -123.833 -183 -161.5s-132.667 -56.5 -198 -56.5c-84.667 0 -148.834 23.5 -192.501 70.5s-65.5 113.167 -65.5 198.5c0 18.667 3.33301 48 10 88s12 70.167 16 90.5s46.333 220.833 127 601.5h318
l-123 -578c-12.667 -50.667 -19 -91.334 -19 -122.001c0 -29.333 8 -52.833 24 -70.5s39.333 -26.5 70 -26.5c40 0 79.833 14.333 119.5 43s74.834 68 105.501 118s51.334 101 62.001 153l103 483h319l-147 -684c-24 -120 -39.667 -233.333 -47 -340zM886.999 1186l-116 190
l-197 -190h-211l303 327h250l168 -327h-197z" />
    <glyph glyph-name="udieresis" unicode="&#xfc;" 
d="M1004 0l-320.001 0.000976562l14 116l11 77h-4c-55.333 -70 -116.333 -123.833 -183 -161.5s-132.667 -56.5 -198 -56.5c-84.667 0 -148.834 23.5 -192.501 70.5s-65.5 113.167 -65.5 198.5c0 18.667 3.33301 48 10 88s12 70.167 16 90.5s46.333 220.833 127 601.5h318
l-123 -578c-12.667 -50.667 -19 -91.334 -19 -122.001c0 -29.333 8 -52.833 24 -70.5s39.333 -26.5 70 -26.5c40 0 79.833 14.333 119.5 43s74.834 68 105.501 118s51.334 101 62.001 153l103 483h319l-147 -684c-24 -120 -39.667 -233.333 -47 -340zM1124 1325
c0 -41.333 -14.501 -74.834 -43.501 -100.501s-65.5 -38.5 -109.5 -38.5c-45.333 0 -82.333 13.333 -111 40s-43 59.667 -43 99c0 40.667 14.833 73.334 44.5 98.001s66.167 37 109.5 37c44.667 0 81.334 -12.5 110.001 -37.5s43 -57.5 43 -97.5zM666.998 1325
c0 -40.667 -14.502 -74 -43.502 -100s-65.5 -39 -109.5 -39c-45.333 0 -82.666 13.5 -111.999 40.5s-44 59.833 -44 98.5c0 40 15 72.5 45 97.5s67 37.5 111 37.5c44.667 0 81.334 -12.5 110.001 -37.5s43 -57.5 43 -97.5z" />
    <glyph glyph-name="yacute" unicode="&#xfd;" horiz-adv-x="1102" 
d="M10 -481c-62 0 -118.665 9.33203 -169.998 27.999l54 244c28.667 -20.667 66.667 -31 114 -31c84.667 0 151 39 199 117l82 129l-199 1018h332l72 -623l4 -92l-2 -45h4c22 60.667 41 106.334 57 137.001l313 623h332l-651 -1114
c-82.667 -144.667 -165.834 -246 -249.501 -304s-180.834 -87 -291.501 -87zM766.002 1186h-235l315 325h289z" />
    <glyph glyph-name="thorn" unicode="&#xfe;" horiz-adv-x="1214" 
d="M1153 670c0 -126.667 -27.5 -244.5 -82.5 -353.5s-131.5 -193.167 -229.5 -252.5s-210.333 -89 -337 -89c-60.667 0 -117.334 7 -170.001 21l-101 -467h-319l420 1987h319l-98 -461c-15.333 -72.667 -33.666 -141 -54.999 -205h4c42.667 64 93 113.167 151 147.5
s121.667 51.5 191 51.5c94.667 0 169.5 -34.167 224.5 -102.5s82.5 -160.5 82.5 -276.5zM836 633c0 57.333 -11.498 100.667 -34.498 130s-56.167 44 -99.5 44c-62 0 -117.5 -32.5 -166.5 -97.5s-84.833 -151.833 -107.5 -260.5l-53 -234c12 -4 31.5 -8 58.5 -12
s49.833 -6 68.5 -6c61.333 0 117.666 19.667 168.999 59s91.666 93 120.999 161s44 140 44 216z" />
    <glyph glyph-name="ydieresis" unicode="&#xff;" horiz-adv-x="1102" 
d="M10 -481c-62 0 -118.665 9.33203 -169.998 27.999l54 244c28.667 -20.667 66.667 -31 114 -31c84.667 0 151 39 199 117l82 129l-199 1018h332l72 -623l4 -92l-2 -45h4c22 60.667 41 106.334 57 137.001l313 623h332l-651 -1114
c-82.667 -144.667 -165.834 -246 -249.501 -304s-180.834 -87 -291.501 -87zM1053 1325c0 -41.333 -14.501 -74.834 -43.501 -100.501s-65.5 -38.5 -109.5 -38.5c-45.333 0 -82.333 13.333 -111 40s-43 59.667 -43 99c0 40.667 14.833 73.334 44.5 98.001
s66.167 37 109.5 37c44.667 0 81.334 -12.5 110.001 -37.5s43 -57.5 43 -97.5zM596.001 1325c0 -40.667 -14.502 -74 -43.502 -100s-65.5 -39 -109.5 -39c-45.333 0 -82.666 13.5 -111.999 40.5s-44 59.833 -44 98.5c0 40 15 72.5 45 97.5s67 37.5 111 37.5
c44.667 0 81.334 -12.5 110.001 -37.5s43 -57.5 43 -97.5z" />
    <glyph glyph-name="Amacron" unicode="&#x100;" horiz-adv-x="1440" 
d="M985 0l-41 319h-514l-168 -319h-364l827 1434h385l205 -1434h-330zM867 1087c0 44.667 1 75 3 91h-6c-6.66699 -30.667 -23.667 -71.667 -51 -123l-262 -488h369l-52 484zM1221 1567h-586l37 172h586z" />
    <glyph glyph-name="amacron" unicode="&#x101;" horiz-adv-x="1214" 
d="M1006 0l-319.999 0.000976562c0 41.333 4.66699 99.333 14 174h-4c-42 -56.667 -77.833 -97.334 -107.5 -122.001s-61.834 -43.667 -96.501 -57s-73.667 -20 -117 -20c-100 0 -177.333 35 -232 105s-82 167 -82 291c0 84.667 16.333 171.5 49 260.5
s78.667 164.333 138 226s131 109 215 142s180.333 49.5 289 49.5c126 0 270 -18 432 -54l-140 -657c-8 -36.667 -16.333 -90.667 -25 -162s-13 -130 -13 -176zM829.001 817.001c-30.667 6.66699 -65.333 9.99902 -104 9.99902c-66 0 -124.667 -18 -176 -54
s-92.5 -89.667 -123.5 -161s-46.5 -145.666 -46.5 -222.999c0 -54.667 11.333 -97 34 -127s53 -45 91 -45c60 0 113.833 30.833 161.5 92.5s84.5 151.167 110.5 268.5zM1096 1186h-586l37 172h586z" />
    <glyph glyph-name="Abreve" unicode="&#x102;" horiz-adv-x="1440" 
d="M985 0l-41 319h-514l-168 -319h-364l827 1434h385l205 -1434h-330zM867 1087c0 44.667 1 75 3 91h-6c-6.66699 -30.667 -23.667 -71.667 -51 -123l-262 -488h369l-52 484zM1321 1874c-29.333 -99.333 -76 -175.333 -140 -228s-140.667 -79 -230 -79
c-76.667 0 -138.5 21.5 -185.5 64.5s-70.5 101.167 -70.5 174.5c0 20 3.33301 42.667 10 68h162l-4 -35c0 -34 10.667 -59.833 32 -77.5s47.333 -26.5 78 -26.5c86.667 0 146 46.333 178 139h170z" />
    <glyph glyph-name="abreve" unicode="&#x103;" horiz-adv-x="1214" 
d="M1006 0l-319.999 0.000976562c0 41.333 4.66699 99.333 14 174h-4c-42 -56.667 -77.833 -97.334 -107.5 -122.001s-61.834 -43.667 -96.501 -57s-73.667 -20 -117 -20c-100 0 -177.333 35 -232 105s-82 167 -82 291c0 84.667 16.333 171.5 49 260.5
s78.667 164.333 138 226s131 109 215 142s180.333 49.5 289 49.5c126 0 270 -18 432 -54l-140 -657c-8 -36.667 -16.333 -90.667 -25 -162s-13 -130 -13 -176zM829.001 817.001c-30.667 6.66699 -65.333 9.99902 -104 9.99902c-66 0 -124.667 -18 -176 -54
s-92.5 -89.667 -123.5 -161s-46.5 -145.666 -46.5 -222.999c0 -54.667 11.333 -97 34 -127s53 -45 91 -45c60 0 113.833 30.833 161.5 92.5s84.5 151.167 110.5 268.5zM1143 1493c-29.333 -99.333 -76 -175.333 -140 -228s-140.667 -79 -230 -79
c-76.667 0 -138.5 21.5 -185.5 64.5s-70.5 101.167 -70.5 174.5c0 20 3.33301 42.667 10 68h162l-4 -35c0 -34 10.667 -59.833 32 -77.5s47.333 -26.5 78 -26.5c86.667 0 146 46.333 178 139h170z" />
    <glyph glyph-name="Aogonek" unicode="&#x104;" horiz-adv-x="1440" 
d="M985 0l-41 319h-514l-168 -319h-364l827 1434h385l205 -1434h-330zM867 1087c0 44.667 1 75 3 91h-6c-6.66699 -30.667 -23.667 -71.667 -51 -123l-262 -488h369l-52 484zM1138 0c-58 -55.333 -98.5 -99.167 -121.5 -131.5s-34.5 -60.833 -34.5 -85.5
c0 -48 25.333 -72 76 -72c15.333 0 32.333 2.66699 51 8s33.667 11 45 17l-29 -142c-34 -18.667 -79 -28 -135 -28c-63.333 0 -111.833 14.5 -145.5 43.5s-50.5 70.5 -50.5 124.5c0 43.333 15.5 86 46.5 128s79.5 88 145.5 138h152z" />
    <glyph glyph-name="aogonek" unicode="&#x105;" horiz-adv-x="1214" 
d="M1006 0l-319.999 0.000976562c0 41.333 4.66699 99.333 14 174h-4c-42 -56.667 -77.833 -97.334 -107.5 -122.001s-61.834 -43.667 -96.501 -57s-73.667 -20 -117 -20c-100 0 -177.333 35 -232 105s-82 167 -82 291c0 84.667 16.333 171.5 49 260.5
s78.667 164.333 138 226s131 109 215 142s180.333 49.5 289 49.5c126 0 270 -18 432 -54l-140 -657c-8 -36.667 -16.333 -90.667 -25 -162s-13 -130 -13 -176zM829.001 817.001c-30.667 6.66699 -65.333 9.99902 -104 9.99902c-66 0 -124.667 -18 -176 -54
s-92.5 -89.667 -123.5 -161s-46.5 -145.666 -46.5 -222.999c0 -54.667 11.333 -97 34 -127s53 -45 91 -45c60 0 113.833 30.833 161.5 92.5s84.5 151.167 110.5 268.5zM942.002 0c-58 -55.333 -98.5 -99.167 -121.5 -131.5s-34.5 -60.833 -34.5 -85.5
c0 -48 25.333 -72 76 -72c15.333 0 32.333 2.66699 51 8s33.667 11 45 17l-29 -142c-34 -18.667 -79 -28 -135 -28c-63.333 0 -111.833 14.5 -145.5 43.5s-50.5 70.5 -50.5 124.5c0 43.333 15.5 86 46.5 128s79.5 88 145.5 138h152z" />
    <glyph glyph-name="Cacute" unicode="&#x106;" horiz-adv-x="1300" 
d="M1313 1087c-62.667 33.333 -120.333 56.498 -173 69.498s-105.667 19.5 -159 19.5c-106 0 -199.667 -23.5 -281 -70.5s-144 -112.5 -188 -196.5s-66 -177.333 -66 -280c0 -118 33.833 -210 101.5 -276s160.834 -99 279.501 -99c116 0 232.333 30 349 90l-68 -305
c-102 -42.667 -223.667 -64 -365 -64c-198 0 -354 56.333 -468 169s-171 264 -171 454c0 168.667 37.167 319.334 111.5 452.001s178.666 233.834 312.999 303.501s291.833 104.5 472.5 104.5c126.667 0 253 -21.667 379 -65zM1035 1567h-235l315 325h289z" />
    <glyph glyph-name="cacute" unicode="&#x107;" horiz-adv-x="946" 
d="M901 743c-22.667 17.333 -51.999 32.334 -87.999 45.001s-75 19 -117 19c-58 0 -111.333 -17.333 -160 -52s-87 -81.834 -115 -141.501s-42 -120.167 -42 -181.5c0 -68.667 16 -121.667 48 -159s80 -56 144 -56c38.667 0 80.667 7.33301 126 22s84 32 116 52l-49 -242
c-96 -49.333 -195.667 -74 -299 -74c-126 0 -224.833 37.5 -296.5 112.5s-107.5 178.167 -107.5 309.5c0 120.667 27.5 231.667 82.5 333s130.167 179.833 225.5 235.5s203.666 83.5 324.999 83.5c48.667 0 96.667 -5.16699 144 -15.5s87.333 -24.5 120 -42.5zM763.001 1186
h-235l315 325h289z" />
    <glyph glyph-name="Ccircumflex" unicode="&#x108;" horiz-adv-x="1300" 
d="M1313 1087c-62.667 33.333 -120.333 56.498 -173 69.498s-105.667 19.5 -159 19.5c-106 0 -199.667 -23.5 -281 -70.5s-144 -112.5 -188 -196.5s-66 -177.333 -66 -280c0 -118 33.833 -210 101.5 -276s160.834 -99 279.501 -99c116 0 232.333 30 349 90l-68 -305
c-102 -42.667 -223.667 -64 -365 -64c-198 0 -354 56.333 -468 169s-171 264 -171 454c0 168.667 37.167 319.334 111.5 452.001s178.666 233.834 312.999 303.501s291.833 104.5 472.5 104.5c126.667 0 253 -21.667 379 -65zM1166 1567l-116 190l-197 -190h-211l303 327
h250l168 -327h-197z" />
    <glyph glyph-name="ccircumflex" unicode="&#x109;" horiz-adv-x="946" 
d="M901 743c-22.667 17.333 -51.999 32.334 -87.999 45.001s-75 19 -117 19c-58 0 -111.333 -17.333 -160 -52s-87 -81.834 -115 -141.501s-42 -120.167 -42 -181.5c0 -68.667 16 -121.667 48 -159s80 -56 144 -56c38.667 0 80.667 7.33301 126 22s84 32 116 52l-49 -242
c-96 -49.333 -195.667 -74 -299 -74c-126 0 -224.833 37.5 -296.5 112.5s-107.5 178.167 -107.5 309.5c0 120.667 27.5 231.667 82.5 333s130.167 179.833 225.5 235.5s203.666 83.5 324.999 83.5c48.667 0 96.667 -5.16699 144 -15.5s87.333 -24.5 120 -42.5zM847.001 1186
l-116 190l-197 -190h-211l303 327h250l168 -327h-197z" />
    <glyph glyph-name="Cdotaccent" unicode="&#x10a;" horiz-adv-x="1300" 
d="M1313 1087c-62.667 33.333 -120.333 56.498 -173 69.498s-105.667 19.5 -159 19.5c-106 0 -199.667 -23.5 -281 -70.5s-144 -112.5 -188 -196.5s-66 -177.333 -66 -280c0 -118 33.833 -210 101.5 -276s160.834 -99 279.501 -99c116 0 232.333 30 349 90l-68 -305
c-102 -42.667 -223.667 -64 -365 -64c-198 0 -354 56.333 -468 169s-171 264 -171 454c0 168.667 37.167 319.334 111.5 452.001s178.666 233.834 312.999 303.501s291.833 104.5 472.5 104.5c126.667 0 253 -21.667 379 -65zM1192 1706
c0 -38.667 -13.999 -71.5 -41.999 -98.5s-64.667 -40.5 -110 -40.5c-44.667 0 -81.334 13.333 -110.001 40s-43 59.667 -43 99s14.5 71.333 43.5 96s65.5 37 109.5 37c45.333 0 82 -12.333 110 -37s42 -56.667 42 -96z" />
    <glyph glyph-name="cdotaccent" unicode="&#x10b;" horiz-adv-x="946" 
d="M901 743c-22.667 17.333 -51.999 32.334 -87.999 45.001s-75 19 -117 19c-58 0 -111.333 -17.333 -160 -52s-87 -81.834 -115 -141.501s-42 -120.167 -42 -181.5c0 -68.667 16 -121.667 48 -159s80 -56 144 -56c38.667 0 80.667 7.33301 126 22s84 32 116 52l-49 -242
c-96 -49.333 -195.667 -74 -299 -74c-126 0 -224.833 37.5 -296.5 112.5s-107.5 178.167 -107.5 309.5c0 120.667 27.5 231.667 82.5 333s130.167 179.833 225.5 235.5s203.666 83.5 324.999 83.5c48.667 0 96.667 -5.16699 144 -15.5s87.333 -24.5 120 -42.5zM881.001 1325
c0 -38.667 -13.999 -71.5 -41.999 -98.5s-64.667 -40.5 -110 -40.5c-44.667 0 -81.334 13.333 -110.001 40s-43 59.667 -43 99s14.5 71.333 43.5 96s65.5 37 109.5 37c45.333 0 82 -12.333 110 -37s42 -56.667 42 -96z" />
    <glyph glyph-name="Ccaron" unicode="&#x10c;" horiz-adv-x="1300" 
d="M1313 1087c-62.667 33.333 -120.333 56.498 -173 69.498s-105.667 19.5 -159 19.5c-106 0 -199.667 -23.5 -281 -70.5s-144 -112.5 -188 -196.5s-66 -177.333 -66 -280c0 -118 33.833 -210 101.5 -276s160.834 -99 279.501 -99c116 0 232.333 30 349 90l-68 -305
c-102 -42.667 -223.667 -64 -365 -64c-198 0 -354 56.333 -468 169s-171 264 -171 454c0 168.667 37.167 319.334 111.5 452.001s178.666 233.834 312.999 303.501s291.833 104.5 472.5 104.5c126.667 0 253 -21.667 379 -65zM1120 1567h-250l-168 327h196l117 -190l197 190
h211z" />
    <glyph glyph-name="ccaron" unicode="&#x10d;" horiz-adv-x="946" 
d="M901 743c-22.667 17.333 -51.999 32.334 -87.999 45.001s-75 19 -117 19c-58 0 -111.333 -17.333 -160 -52s-87 -81.834 -115 -141.501s-42 -120.167 -42 -181.5c0 -68.667 16 -121.667 48 -159s80 -56 144 -56c38.667 0 80.667 7.33301 126 22s84 32 116 52l-49 -242
c-96 -49.333 -195.667 -74 -299 -74c-126 0 -224.833 37.5 -296.5 112.5s-107.5 178.167 -107.5 309.5c0 120.667 27.5 231.667 82.5 333s130.167 179.833 225.5 235.5s203.666 83.5 324.999 83.5c48.667 0 96.667 -5.16699 144 -15.5s87.333 -24.5 120 -42.5zM841.001 1186
h-250l-168 327h196l117 -190l197 190h211z" />
    <glyph glyph-name="Dcaron" unicode="&#x10e;" horiz-adv-x="1542" 
d="M1499 854c0 -169.333 -35.666 -319.667 -106.999 -451s-172.5 -231.333 -303.5 -300s-284.167 -103 -459.5 -103h-580l305 1434h504c132 0 246.667 -23.667 344 -71s171.166 -114.5 221.499 -201.5s75.5 -189.5 75.5 -307.5zM1157 828.999c0 112 -32 197 -96 255
s-157.667 87 -281 87h-157l-193 -909h197c161.333 0 290 51.5 386 154.5s144 240.5 144 412.5zM1034 1567h-250l-168 327h196l117 -190l197 190h211z" />
    <glyph glyph-name="dcaron" unicode="&#x10f;" horiz-adv-x="1520" 
d="M1006 0h-320.001l6 86l8 86h-4c-49.333 -70 -99.666 -120.333 -150.999 -151s-107.333 -46 -168 -46c-98.667 0 -176 33.833 -232 101.5s-84 164.5 -84 290.5c0 125.333 28 240.5 84 345.5s134.667 187.333 236 247s216 89.5 344 89.5c54 0 103.667 -4.33301 149 -13
l103 480h315l-248 -1178c-8 -36.667 -16.333 -90.667 -25 -162s-13 -130 -13 -176zM828.999 815c-30.667 8 -65.333 11.999 -104 11.999c-66 0 -124.5 -18 -175.5 -54s-92.167 -89.667 -123.5 -161s-47 -145.666 -47 -222.999c0 -52.667 11 -94.5 33 -125.5
s54 -46.5 96 -46.5c58.667 0 111.5 31 158.5 93s84.167 153.333 111.5 274zM1767 1516l-243 -353h-195l165 353h273z" />
    <glyph glyph-name="Dcroat" unicode="&#x110;" horiz-adv-x="1542" 
d="M1499 848c0 -168.667 -34.666 -317.167 -103.999 -445.5s-169.833 -227.5 -301.5 -297.5s-287.167 -105 -466.5 -105h-578l127 592h-168l53 262h170l123 580h500c199.333 0 356.666 -52.333 471.999 -157s173 -247.667 173 -429zM1157 823
c0 112.667 -32.167 198.833 -96.5 258.5s-157.833 89.5 -280.5 89.5h-157l-68 -317h274l-55 -262h-274l-70 -330h186c170.667 0 303.5 50 398.5 150s142.5 237 142.5 411z" />
    <glyph glyph-name="dcroat" unicode="&#x111;" horiz-adv-x="1214" 
d="M1255 1338h142.999l-35 -159h-143l-176 -841c-8 -36.667 -16.333 -90.667 -25 -162s-13 -130 -13 -176h-320l6 86l8 86h-4c-49.333 -70 -99.666 -120.333 -150.999 -151s-107.333 -46 -168 -46c-98.667 0 -176 33.833 -232 101.5s-84 164.5 -84 290.5
c0 125.333 28 240.5 84 345.5s134.667 187.333 236 247s216 89.5 344 89.5c54 0 103.667 -4.33301 149 -13l30 143h-330l35 159h331l37 178h315zM828.999 815c-30.667 8 -65.333 11.999 -104 11.999c-66 0 -124.5 -18 -175.5 -54s-92.167 -89.667 -123.5 -161
s-47 -145.666 -47 -222.999c0 -52.667 11 -94.5 33 -125.5s54 -46.5 96 -46.5c58.667 0 111.5 31 158.5 93s84.167 153.333 111.5 274z" />
    <glyph glyph-name="Emacron" unicode="&#x112;" horiz-adv-x="1085" 
d="M1124 1171h-501l-68 -323h467l-57 -264h-465l-70 -322h535l-56 -262h-860l305 1434h826zM1084 1567h-586l37 172h586z" />
    <glyph glyph-name="emacron" unicode="&#x113;" horiz-adv-x="1065" 
d="M1051 760c0 -121.333 -55.5 -211.668 -166.5 -271.001s-281.5 -90.666 -511.5 -93.999l-2 -10v-10c0 -54.667 18.5 -97.334 55.5 -128.001s88.167 -46 153.5 -46c51.333 0 107.833 9 169.5 27s116.167 40.333 163.5 67l-49 -236
c-49.333 -25.333 -106 -45.666 -170 -60.999s-128.667 -23 -194 -23c-136.667 0 -244 37.167 -322 111.5s-117 178.5 -117 312.5c0 118.667 26.167 228.167 78.5 328.5s125.833 179 220.5 236s200 85.5 316 85.5c118 0 210 -26.167 276 -78.5s99 -122.5 99 -210.5z
M750 755.998c0 24.667 -9.16797 45.168 -27.501 61.501s-44.166 24.5 -77.499 24.5c-56.667 0 -108.5 -22.833 -155.5 -68.5s-79.167 -106.834 -96.5 -183.501h16c112 0 196.833 14 254.5 42s86.5 69.333 86.5 124zM981.999 1186h-586l37 172h586z" />
    <glyph glyph-name="Ebreve" unicode="&#x114;" horiz-adv-x="1085" 
d="M1124 1171h-501l-68 -323h467l-57 -264h-465l-70 -322h535l-56 -262h-860l305 1434h826zM1165 1874c-29.333 -99.333 -76 -175.333 -140 -228s-140.667 -79 -230 -79c-76.667 0 -138.5 21.5 -185.5 64.5s-70.5 101.167 -70.5 174.5c0 20 3.33301 42.667 10 68h162l-4 -35
c0 -34 10.667 -59.833 32 -77.5s47.333 -26.5 78 -26.5c86.667 0 146 46.333 178 139h170z" />
    <glyph glyph-name="ebreve" unicode="&#x115;" horiz-adv-x="1065" 
d="M1051 760c0 -121.333 -55.5 -211.668 -166.5 -271.001s-281.5 -90.666 -511.5 -93.999l-2 -10v-10c0 -54.667 18.5 -97.334 55.5 -128.001s88.167 -46 153.5 -46c51.333 0 107.833 9 169.5 27s116.167 40.333 163.5 67l-49 -236
c-49.333 -25.333 -106 -45.666 -170 -60.999s-128.667 -23 -194 -23c-136.667 0 -244 37.167 -322 111.5s-117 178.5 -117 312.5c0 118.667 26.167 228.167 78.5 328.5s125.833 179 220.5 236s200 85.5 316 85.5c118 0 210 -26.167 276 -78.5s99 -122.5 99 -210.5z
M750 755.998c0 24.667 -9.16797 45.168 -27.501 61.501s-44.166 24.5 -77.499 24.5c-56.667 0 -108.5 -22.833 -155.5 -68.5s-79.167 -106.834 -96.5 -183.501h16c112 0 196.833 14 254.5 42s86.5 69.333 86.5 124zM1062 1493c-29.333 -99.333 -76 -175.333 -140 -228
s-140.667 -79 -230 -79c-76.667 0 -138.5 21.5 -185.5 64.5s-70.5 101.167 -70.5 174.5c0 20 3.33301 42.667 10 68h162l-4 -35c0 -34 10.667 -59.833 32 -77.5s47.333 -26.5 78 -26.5c86.667 0 146 46.333 178 139h170z" />
    <glyph glyph-name="Edotaccent" unicode="&#x116;" horiz-adv-x="1085" 
d="M1124 1171h-501l-68 -323h467l-57 -264h-465l-70 -322h535l-56 -262h-860l305 1434h826zM944 1706c0 -38.667 -13.999 -71.5 -41.999 -98.5s-64.667 -40.5 -110 -40.5c-44.667 0 -81.334 13.333 -110.001 40s-43 59.667 -43 99s14.5 71.333 43.5 96s65.5 37 109.5 37
c45.333 0 82 -12.333 110 -37s42 -56.667 42 -96z" />
    <glyph glyph-name="edotaccent" unicode="&#x117;" horiz-adv-x="1065" 
d="M1051 760c0 -121.333 -55.5 -211.668 -166.5 -271.001s-281.5 -90.666 -511.5 -93.999l-2 -10v-10c0 -54.667 18.5 -97.334 55.5 -128.001s88.167 -46 153.5 -46c51.333 0 107.833 9 169.5 27s116.167 40.333 163.5 67l-49 -236
c-49.333 -25.333 -106 -45.666 -170 -60.999s-128.667 -23 -194 -23c-136.667 0 -244 37.167 -322 111.5s-117 178.5 -117 312.5c0 118.667 26.167 228.167 78.5 328.5s125.833 179 220.5 236s200 85.5 316 85.5c118 0 210 -26.167 276 -78.5s99 -122.5 99 -210.5z
M750 755.998c0 24.667 -9.16797 45.168 -27.501 61.501s-44.166 24.5 -77.499 24.5c-56.667 0 -108.5 -22.833 -155.5 -68.5s-79.167 -106.834 -96.5 -183.501h16c112 0 196.833 14 254.5 42s86.5 69.333 86.5 124zM868.999 1325c0 -38.667 -13.999 -71.5 -41.999 -98.5
s-64.667 -40.5 -110 -40.5c-44.667 0 -81.334 13.333 -110.001 40s-43 59.667 -43 99s14.5 71.333 43.5 96s65.5 37 109.5 37c45.333 0 82 -12.333 110 -37s42 -56.667 42 -96z" />
    <glyph glyph-name="Eogonek" unicode="&#x118;" horiz-adv-x="1085" 
d="M1124 1171h-501l-68 -323h467l-57 -264h-465l-70 -322h535l-56 -262h-860l305 1434h826zM795 0c-58 -55.333 -98.5 -99.167 -121.5 -131.5s-34.5 -60.833 -34.5 -85.5c0 -48 25.333 -72 76 -72c15.333 0 32.333 2.66699 51 8s33.667 11 45 17l-29 -142
c-34 -18.667 -79 -28 -135 -28c-63.333 0 -111.833 14.5 -145.5 43.5s-50.5 70.5 -50.5 124.5c0 43.333 15.5 86 46.5 128s79.5 88 145.5 138h152z" />
    <glyph glyph-name="eogonek" unicode="&#x119;" horiz-adv-x="1065" 
d="M1051 760c0 -121.333 -55.5 -211.668 -166.5 -271.001s-281.5 -90.666 -511.5 -93.999l-2 -10v-10c0 -54.667 18.5 -97.334 55.5 -128.001s88.167 -46 153.5 -46c51.333 0 107.833 9 169.5 27s116.167 40.333 163.5 67l-49 -236
c-49.333 -25.333 -106 -45.666 -170 -60.999s-128.667 -23 -194 -23c-136.667 0 -244 37.167 -322 111.5s-117 178.5 -117 312.5c0 118.667 26.167 228.167 78.5 328.5s125.833 179 220.5 236s200 85.5 316 85.5c118 0 210 -26.167 276 -78.5s99 -122.5 99 -210.5z
M750 755.998c0 24.667 -9.16797 45.168 -27.501 61.501s-44.166 24.5 -77.499 24.5c-56.667 0 -108.5 -22.833 -155.5 -68.5s-79.167 -106.834 -96.5 -183.501h16c112 0 196.833 14 254.5 42s86.5 69.333 86.5 124zM623.999 -0.000976562
c-58 -55.333 -98.5 -99.167 -121.5 -131.5s-34.5 -60.833 -34.5 -85.5c0 -48 25.333 -72 76 -72c15.333 0 32.333 2.66699 51 8s33.667 11 45 17l-29 -142c-34 -18.667 -79 -28 -135 -28c-63.333 0 -111.833 14.5 -145.5 43.5s-50.5 70.5 -50.5 124.5
c0 43.333 15.5 86 46.5 128s79.5 88 145.5 138h152z" />
    <glyph glyph-name="Ecaron" unicode="&#x11a;" horiz-adv-x="1085" 
d="M1124 1171h-501l-68 -323h467l-57 -264h-465l-70 -322h535l-56 -262h-860l305 1434h826zM911 1567h-250l-168 327h196l117 -190l197 190h211z" />
    <glyph glyph-name="ecaron" unicode="&#x11b;" horiz-adv-x="1065" 
d="M1051 760c0 -121.333 -55.5 -211.668 -166.5 -271.001s-281.5 -90.666 -511.5 -93.999l-2 -10v-10c0 -54.667 18.5 -97.334 55.5 -128.001s88.167 -46 153.5 -46c51.333 0 107.833 9 169.5 27s116.167 40.333 163.5 67l-49 -236
c-49.333 -25.333 -106 -45.666 -170 -60.999s-128.667 -23 -194 -23c-136.667 0 -244 37.167 -322 111.5s-117 178.5 -117 312.5c0 118.667 26.167 228.167 78.5 328.5s125.833 179 220.5 236s200 85.5 316 85.5c118 0 210 -26.167 276 -78.5s99 -122.5 99 -210.5z
M750 755.998c0 24.667 -9.16797 45.168 -27.501 61.501s-44.166 24.5 -77.499 24.5c-56.667 0 -108.5 -22.833 -155.5 -68.5s-79.167 -106.834 -96.5 -183.501h16c112 0 196.833 14 254.5 42s86.5 69.333 86.5 124zM821.999 1186h-250l-168 327h196l117 -190l197 190h211z
" />
    <glyph glyph-name="Gcircumflex" unicode="&#x11c;" horiz-adv-x="1452" 
d="M1370 1081c-50 34 -109.166 60.332 -177.499 78.999s-134.833 28 -199.5 28c-164 0 -295.333 -50.667 -394 -152s-148 -237.666 -148 -408.999c0 -121.333 32 -215.833 96 -283.5s150.667 -101.5 260 -101.5c55.333 0 106.666 7.33301 153.999 22l61 291h-291l55 258h613
l-154 -727c-151.333 -74 -312.333 -111 -483 -111c-131.333 0 -246.166 25.667 -344.499 77s-174 125.5 -227 222.5s-79.5 209.5 -79.5 337.5c0 164 37.5 311.5 112.5 442.5s180.167 231 315.5 300s291.666 103.5 468.999 103.5c143.333 0 285.333 -27.333 426 -82z
M1156 1567l-116 190l-197 -190h-211l303 327h250l168 -327h-197z" />
    <glyph glyph-name="gcircumflex" unicode="&#x11d;" horiz-adv-x="1214" 
d="M299 -481c-116.667 0 -227.334 25 -332.001 75l56 254c96 -64 194.667 -96 296 -96c97.333 0 174.333 25.667 231 77s97.334 133.666 122.001 246.999l18 90h-4c-84.667 -127.333 -188.334 -191 -311.001 -191c-98 0 -174.833 34.333 -230.5 103
s-83.5 163.334 -83.5 284.001c0 128.667 28.333 246.5 85 353.5s135.667 189.333 237 247s217.333 86.5 348 86.5c128.667 0 279.667 -17.333 453 -52l-185 -874c-31.333 -149.333 -75.166 -266 -131.499 -350s-130.833 -147.333 -223.5 -190s-207.667 -64 -345 -64z
M829 817c-30.667 6.66699 -70 9.99902 -118 9.99902c-59.333 0 -114.833 -19.5 -166.5 -58.5s-92.167 -92.167 -121.5 -159.5s-44 -140.666 -44 -219.999c0 -54.667 11.333 -97 34 -127s53 -45 91 -45c64 0 119.333 32.167 166 96.5s82 151.5 106 261.5zM952 1186l-116 190
l-197 -190h-211l303 327h250l168 -327h-197z" />
    <glyph glyph-name="Gbreve" unicode="&#x11e;" horiz-adv-x="1452" 
d="M1370 1081c-50 34 -109.166 60.332 -177.499 78.999s-134.833 28 -199.5 28c-164 0 -295.333 -50.667 -394 -152s-148 -237.666 -148 -408.999c0 -121.333 32 -215.833 96 -283.5s150.667 -101.5 260 -101.5c55.333 0 106.666 7.33301 153.999 22l61 291h-291l55 258h613
l-154 -727c-151.333 -74 -312.333 -111 -483 -111c-131.333 0 -246.166 25.667 -344.499 77s-174 125.5 -227 222.5s-79.5 209.5 -79.5 337.5c0 164 37.5 311.5 112.5 442.5s180.167 231 315.5 300s291.666 103.5 468.999 103.5c143.333 0 285.333 -27.333 426 -82z
M1389 1874c-29.333 -99.333 -76 -175.333 -140 -228s-140.667 -79 -230 -79c-76.667 0 -138.5 21.5 -185.5 64.5s-70.5 101.167 -70.5 174.5c0 20 3.33301 42.667 10 68h162l-4 -35c0 -34 10.667 -59.833 32 -77.5s47.333 -26.5 78 -26.5c86.667 0 146 46.333 178 139h170z
" />
    <glyph glyph-name="gbreve" unicode="&#x11f;" horiz-adv-x="1214" 
d="M299 -481c-116.667 0 -227.334 25 -332.001 75l56 254c96 -64 194.667 -96 296 -96c97.333 0 174.333 25.667 231 77s97.334 133.666 122.001 246.999l18 90h-4c-84.667 -127.333 -188.334 -191 -311.001 -191c-98 0 -174.833 34.333 -230.5 103
s-83.5 163.334 -83.5 284.001c0 128.667 28.333 246.5 85 353.5s135.667 189.333 237 247s217.333 86.5 348 86.5c128.667 0 279.667 -17.333 453 -52l-185 -874c-31.333 -149.333 -75.166 -266 -131.499 -350s-130.833 -147.333 -223.5 -190s-207.667 -64 -345 -64z
M829 817c-30.667 6.66699 -70 9.99902 -118 9.99902c-59.333 0 -114.833 -19.5 -166.5 -58.5s-92.167 -92.167 -121.5 -159.5s-44 -140.666 -44 -219.999c0 -54.667 11.333 -97 34 -127s53 -45 91 -45c64 0 119.333 32.167 166 96.5s82 151.5 106 261.5zM1152 1493
c-29.333 -99.333 -76 -175.333 -140 -228s-140.667 -79 -230 -79c-76.667 0 -138.5 21.5 -185.5 64.5s-70.5 101.167 -70.5 174.5c0 20 3.33301 42.667 10 68h162l-4 -35c0 -34 10.667 -59.833 32 -77.5s47.333 -26.5 78 -26.5c86.667 0 146 46.333 178 139h170z" />
    <glyph glyph-name="Gdotaccent" unicode="&#x120;" horiz-adv-x="1452" 
d="M1370 1081c-50 34 -109.166 60.332 -177.499 78.999s-134.833 28 -199.5 28c-164 0 -295.333 -50.667 -394 -152s-148 -237.666 -148 -408.999c0 -121.333 32 -215.833 96 -283.5s150.667 -101.5 260 -101.5c55.333 0 106.666 7.33301 153.999 22l61 291h-291l55 258h613
l-154 -727c-151.333 -74 -312.333 -111 -483 -111c-131.333 0 -246.166 25.667 -344.499 77s-174 125.5 -227 222.5s-79.5 209.5 -79.5 337.5c0 164 37.5 311.5 112.5 442.5s180.167 231 315.5 300s291.666 103.5 468.999 103.5c143.333 0 285.333 -27.333 426 -82z
M1160 1706c0 -38.667 -13.999 -71.5 -41.999 -98.5s-64.667 -40.5 -110 -40.5c-44.667 0 -81.334 13.333 -110.001 40s-43 59.667 -43 99s14.5 71.333 43.5 96s65.5 37 109.5 37c45.333 0 82 -12.333 110 -37s42 -56.667 42 -96z" />
    <glyph glyph-name="gdotaccent" unicode="&#x121;" horiz-adv-x="1214" 
d="M299 -481c-116.667 0 -227.334 25 -332.001 75l56 254c96 -64 194.667 -96 296 -96c97.333 0 174.333 25.667 231 77s97.334 133.666 122.001 246.999l18 90h-4c-84.667 -127.333 -188.334 -191 -311.001 -191c-98 0 -174.833 34.333 -230.5 103
s-83.5 163.334 -83.5 284.001c0 128.667 28.333 246.5 85 353.5s135.667 189.333 237 247s217.333 86.5 348 86.5c128.667 0 279.667 -17.333 453 -52l-185 -874c-31.333 -149.333 -75.166 -266 -131.499 -350s-130.833 -147.333 -223.5 -190s-207.667 -64 -345 -64z
M829 817c-30.667 6.66699 -70 9.99902 -118 9.99902c-59.333 0 -114.833 -19.5 -166.5 -58.5s-92.167 -92.167 -121.5 -159.5s-44 -140.666 -44 -219.999c0 -54.667 11.333 -97 34 -127s53 -45 91 -45c64 0 119.333 32.167 166 96.5s82 151.5 106 261.5zM947 1325
c0 -38.667 -13.999 -71.5 -41.999 -98.5s-64.667 -40.5 -110 -40.5c-44.667 0 -81.334 13.333 -110.001 40s-43 59.667 -43 99s14.5 71.333 43.5 96s65.5 37 109.5 37c45.333 0 82 -12.333 110 -37s42 -56.667 42 -96z" />
    <glyph glyph-name="Gcommaaccent" unicode="&#x122;" horiz-adv-x="1452" 
d="M1370 1081c-50 34 -109.166 60.332 -177.499 78.999s-134.833 28 -199.5 28c-164 0 -295.333 -50.667 -394 -152s-148 -237.666 -148 -408.999c0 -121.333 32 -215.833 96 -283.5s150.667 -101.5 260 -101.5c55.333 0 106.666 7.33301 153.999 22l61 291h-291l55 258h613
l-154 -727c-151.333 -74 -312.333 -111 -483 -111c-131.333 0 -246.166 25.667 -344.499 77s-174 125.5 -227 222.5s-79.5 209.5 -79.5 337.5c0 164 37.5 311.5 112.5 442.5s180.167 231 315.5 300s291.666 103.5 468.999 103.5c143.333 0 285.333 -27.333 426 -82z
M967.001 -229.001c0 -68.667 -30.667 -123.831 -92 -165.498s-143.333 -62.5 -246 -62.5c-23.333 0 -60 2 -110 6l31 138c28 -6 53 -9 75 -9c44 0 78.333 7.16699 103 21.5s37 33.166 37 56.499c0 42.667 -37 64 -111 64h-22l-25 -2l43 182h154l-19 -82
c60 -2.66699 105.333 -16.834 136 -42.501s46 -60.5 46 -104.5z" />
    <glyph glyph-name="gcommaaccent" unicode="&#x123;" horiz-adv-x="1214" 
d="M299 -481c-116.667 0 -227.334 25 -332.001 75l56 254c96 -64 194.667 -96 296 -96c97.333 0 174.333 25.667 231 77s97.334 133.666 122.001 246.999l18 90h-4c-84.667 -127.333 -188.334 -191 -311.001 -191c-98 0 -174.833 34.333 -230.5 103
s-83.5 163.334 -83.5 284.001c0 128.667 28.333 246.5 85 353.5s135.667 189.333 237 247s217.333 86.5 348 86.5c128.667 0 279.667 -17.333 453 -52l-185 -874c-31.333 -149.333 -75.166 -266 -131.499 -350s-130.833 -147.333 -223.5 -190s-207.667 -64 -345 -64z
M829 817c-30.667 6.66699 -70 9.99902 -118 9.99902c-59.333 0 -114.833 -19.5 -166.5 -58.5s-92.167 -92.167 -121.5 -159.5s-44 -140.666 -44 -219.999c0 -54.667 11.333 -97 34 -127s53 -45 91 -45c64 0 119.333 32.167 166 96.5s82 151.5 106 261.5zM597.11 1186.18
l242.971 352.956h194.977l-164.98 -352.956h-272.967z" />
    <glyph glyph-name="Hcircumflex" unicode="&#x124;" horiz-adv-x="1565" 
d="M1290 0h-325l122 580h-589l-123 -580h-326l305 1434h326l-123 -572h590l123 572h325zM1145 1567l-116 190l-197 -190h-211l303 327h250l168 -327h-197z" />
    <glyph glyph-name="hcircumflex" unicode="&#x125;" 
d="M1151 780c0 -38 -9.66602 -100.665 -28.999 -187.998l-125 -592h-317l123 584c12 64 18 103.333 18 118c0 33.333 -8.5 59.166 -25.5 77.499s-41.833 27.5 -74.5 27.5c-34 0 -71 -14.333 -111 -43s-75.333 -66.5 -106 -113.5s-51.334 -95.833 -62.001 -146.5l-106 -504
h-320l322 1516h319l-147 -689h4c53.333 69.333 114.5 123.666 183.5 162.999s134.833 59 197.5 59c83.333 0 146.833 -23.167 190.5 -69.5s65.5 -112.833 65.5 -199.5zM1018 1600l-116 190l-197 -190h-211l303 327h250l168 -327h-197z" />
    <glyph glyph-name="Hbar" unicode="&#x126;" horiz-adv-x="1565" 
d="M1290 0h-325l122 580h-589l-123 -580h-326l216 1018h-163l44 205h163l45 211h326l-46 -211h590l46 211h325l-45 -211h165l-44 -205h-165zM1147 862l33 156h-590l-33 -156h590z" />
    <glyph glyph-name="hbar" unicode="&#x127;" 
d="M1151 780c0 -38 -9.66602 -100.665 -28.999 -187.998l-125 -592h-317l123 584c12 64 18 103.333 18 118c0 33.333 -8.5 59.166 -25.5 77.499s-41.833 27.5 -74.5 27.5c-34 0 -71 -14.333 -111 -43s-75.333 -66.5 -106 -113.5s-51.334 -95.833 -62.001 -146.5l-106 -504
h-320l251 1179h-112l33 159h112l38 178h319l-38 -178h328l-33 -159h-328l-76 -352h4c53.333 69.333 114.5 123.666 183.5 162.999s134.833 59 197.5 59c83.333 0 146.833 -23.167 190.5 -69.5s65.5 -112.833 65.5 -199.5z" />
    <glyph glyph-name="Itilde" unicode="&#x128;" horiz-adv-x="649" 
d="M375 0h-326l303 1434h326zM927 1850c-12.667 -90 -42.333 -159.668 -89 -209.001s-103.667 -74 -171 -74c-34 0 -62.833 4.33301 -86.5 13s-44.667 18 -63 28l-52 28c-16.333 8.66699 -34.5 13 -54.5 13c-29.333 0 -53.5 -9.16699 -72.5 -27.5s-30.833 -42.5 -35.5 -72.5
h-154c10 84.667 38.833 152.834 86.5 204.501s106.834 77.5 177.501 77.5c33.333 0 61 -4.33301 83 -13s42 -18 60 -28s35.667 -19.333 53 -28s37.333 -13 60 -13c27.333 0 50.166 8.83301 68.499 26.5s29.833 42.5 34.5 74.5h155z" />
    <glyph glyph-name="itilde" unicode="&#x129;" horiz-adv-x="578" 
d="M334 0h-318l217 1024h318zM830 1487c-12.667 -90 -42.333 -159.668 -89 -209.001s-103.667 -74 -171 -74c-34 0 -62.833 4.33301 -86.5 13s-44.667 18 -63 28l-52 28c-16.333 8.66699 -34.5 13 -54.5 13c-29.333 0 -53.5 -9.16699 -72.5 -27.5s-30.833 -42.5 -35.5 -72.5
h-154c10 84.667 38.833 152.834 86.5 204.501s106.834 77.5 177.501 77.5c33.333 0 61 -4.33301 83 -13s42 -18 60 -28s35.667 -19.333 53 -28s37.333 -13 60 -13c27.333 0 50.166 8.83301 68.499 26.5s29.833 42.5 34.5 74.5h155z" />
    <glyph glyph-name="Imacron" unicode="&#x12a;" horiz-adv-x="649" 
d="M375 0h-326l303 1434h326zM812 1567h-586l37 172h586z" />
    <glyph glyph-name="imacron" unicode="&#x12b;" horiz-adv-x="578" 
d="M334 0h-318l217 1024h318zM696 1186h-586l37 172h586z" />
    <glyph glyph-name="Ibreve" unicode="&#x12c;" horiz-adv-x="649" 
d="M375 0h-326l303 1434h326zM928 1874c-29.333 -99.333 -76 -175.333 -140 -228s-140.667 -79 -230 -79c-76.667 0 -138.5 21.5 -185.5 64.5s-70.5 101.167 -70.5 174.5c0 20 3.33301 42.667 10 68h162l-4 -35c0 -34 10.667 -59.833 32 -77.5s47.333 -26.5 78 -26.5
c86.667 0 146 46.333 178 139h170z" />
    <glyph glyph-name="ibreve" unicode="&#x12d;" horiz-adv-x="578" 
d="M334 0h-318l217 1024h318zM751 1493c-29.333 -99.333 -76 -175.333 -140 -228s-140.667 -79 -230 -79c-76.667 0 -138.5 21.5 -185.5 64.5s-70.5 101.167 -70.5 174.5c0 20 3.33301 42.667 10 68h162l-4 -35c0 -34 10.667 -59.833 32 -77.5s47.333 -26.5 78 -26.5
c86.667 0 146 46.333 178 139h170z" />
    <glyph glyph-name="Iogonek" unicode="&#x12e;" horiz-adv-x="649" 
d="M375 0h-326l303 1434h326zM343 0c-58 -55.333 -98.5 -99.167 -121.5 -131.5s-34.5 -60.833 -34.5 -85.5c0 -48 25.333 -72 76 -72c15.333 0 32.333 2.66699 51 8s33.667 11 45 17l-29 -142c-34 -18.667 -79 -28 -135 -28c-63.333 0 -111.833 14.5 -145.5 43.5
s-50.5 70.5 -50.5 124.5c0 43.333 15.5 86 46.5 128s79.5 88 145.5 138h152z" />
    <glyph glyph-name="iogonek" unicode="&#x12f;" horiz-adv-x="578" 
d="M639 1354c0 -48.667 -17.834 -89.1689 -53.501 -121.502s-81.167 -48.5 -136.5 -48.5c-51.333 0 -93.666 14.833 -126.999 44.5s-50 65.834 -50 108.501c0 49.333 17.667 90 53 122s81.333 48 138 48c50.667 0 92.667 -14.667 126 -44s50 -65.666 50 -108.999z
M335.999 -0.00195312h-320l217 1024h320zM298.999 -0.00195312c-58 -55.333 -98.5 -99.167 -121.5 -131.5s-34.5 -60.833 -34.5 -85.5c0 -48 25.333 -72 76 -72c15.333 0 32.333 2.66699 51 8s33.667 11 45 17l-29 -142c-34 -18.667 -79 -28 -135 -28
c-63.333 0 -111.833 14.5 -145.5 43.5s-50.5 70.5 -50.5 124.5c0 43.333 15.5 86 46.5 128s79.5 88 145.5 138h152z" />
    <glyph glyph-name="Idotaccent" unicode="&#x130;" horiz-adv-x="649" 
d="M375 0h-326l303 1434h326zM699 1706c0 -38.667 -13.999 -71.5 -41.999 -98.5s-64.667 -40.5 -110 -40.5c-44.667 0 -81.334 13.333 -110.001 40s-43 59.667 -43 99s14.5 71.333 43.5 96s65.5 37 109.5 37c45.333 0 82 -12.333 110 -37s42 -56.667 42 -96z" />
    <glyph glyph-name="dotlessi" unicode="&#x131;" horiz-adv-x="578" 
d="M334 0h-318l217 1024h318z" />
    <glyph glyph-name="IJ" unicode="&#x132;" horiz-adv-x="1561" 
d="M375 0h-326l303 1434h326zM785 -25c-28.667 0 -65.332 4.16797 -109.999 12.501s-80.334 18.5 -107.001 30.5l59 299c22.667 -18.667 51.167 -33.834 85.5 -45.501s63.833 -17.5 88.5 -17.5c75.333 0 136.833 26.5 184.5 79.5s83.167 135.833 106.5 248.5l183 852h325
l-184 -861c-84 -398.667 -294.333 -598 -631 -598z" />
    <glyph glyph-name="ij" unicode="&#x133;" horiz-adv-x="1162" 
d="M639 1354c0 -48.667 -17.834 -89.1689 -53.501 -121.502s-81.167 -48.5 -136.5 -48.5c-51.333 0 -93.666 14.833 -126.999 44.5s-50 65.834 -50 108.501c0 49.333 17.667 90 53 122s81.333 48 138 48c50.667 0 92.667 -14.667 126 -44s50 -65.666 50 -108.999z
M335.999 -0.00195312h-320l217 1024h320zM1223 1354c0 -48.667 -17.834 -89.1689 -53.501 -121.502s-81.167 -48.5 -136.5 -48.5c-51.333 0 -93.666 14.833 -126.999 44.5s-50 65.834 -50 108.501c0 49.333 17.667 90 53 122s81.333 48 138 48
c50.667 0 92.667 -14.667 126 -44s50 -65.666 50 -108.999zM399.998 -481.004c-64 0 -117.334 10.668 -160.001 32.001l51 242c14.667 -10 32.334 -18 53.001 -24s38 -9 52 -9c50 0 92.333 20.333 127 61s61.667 107 81 199l213 1004h320l-207 -971
c-39.333 -184.667 -103 -319.834 -191 -405.501s-201 -128.5 -339 -128.5z" />
    <glyph glyph-name="Jcircumflex" unicode="&#x134;" horiz-adv-x="907" 
d="M131 -25c-28.667 0 -65.332 4.16797 -109.999 12.501s-80.334 18.5 -107.001 30.5l59 299c22.667 -18.667 51.167 -33.834 85.5 -45.501s63.833 -17.5 88.5 -17.5c75.333 0 136.833 26.5 184.5 79.5s83.167 135.833 106.5 248.5l183 852h325l-184 -861
c-84 -398.667 -294.333 -598 -631 -598zM948.002 1567l-116 190l-197 -190h-211l303 327h250l168 -327h-197z" />
    <glyph glyph-name="jcircumflex" unicode="&#x135;" horiz-adv-x="578" 
d="M346 53c-15.333 -72 -35.833 -140.331 -61.5 -204.998s-59.334 -121.334 -101.001 -170.001s-92.5 -87.334 -152.5 -116.001s-131.667 -43 -215 -43c-29.333 0 -58.666 3 -87.999 9s-53.333 13.667 -72 23l51 242c6 -4 13.167 -8 21.5 -12s17.333 -7.5 27 -10.5
s19.5 -5.5 29.5 -7.5s19 -3 27 -3c50 0 92.333 20.333 127 61s61.667 107 81 199l213 1004h320zM577 1186l-116 190l-197 -190h-211l303 327h250l168 -327h-197z" />
    <glyph glyph-name="Kcommaaccent" unicode="&#x136;" horiz-adv-x="1333" 
d="M1509 1434c-41.333 -52 -149.998 -168.332 -325.998 -348.999c-176.667 -181.333 -285.667 -298 -327 -350c23.333 -59.333 88 -181.666 194 -366.999c105.333 -186 169.666 -308.667 192.999 -368h-393c-14 41.333 -64 144.666 -150 309.999
c-88.667 170 -139 272.667 -151 308c-10 21.333 -18.333 45.333 -25 72h-4l-145 -690h-326l305 1434h326l-141 -666h4c38 51.333 142 172.666 312 363.999c149.333 168 235.666 268.667 258.999 302h395zM752.002 -110.999l-168 -352h-195l91 352h272z" />
    <glyph glyph-name="kcommaaccent" unicode="&#x137;" horiz-adv-x="1151" 
d="M764 541l264 -541h-352l-225 532h-5l-112 -532h-318l322 1516h319l-200 -936h4l407 444h375zM636 -111l-168 -352h-195l91 352h272z" />
    <glyph glyph-name="kgreenlandic" unicode="&#x138;" horiz-adv-x="1151" 
d="M764 541l264 -541h-352l-225 532h-5l-112 -532h-318l217 1024h319l-95 -444h4l407 444h375z" />
    <glyph glyph-name="Lacute" unicode="&#x139;" horiz-adv-x="1049" 
d="M905 0h-856l305 1434h326l-248 -1168h529zM875 1567h-235l315 325h289z" />
    <glyph glyph-name="lacute" unicode="&#x13a;" horiz-adv-x="578" 
d="M336 0h-320l322 1516h319zM569 1649h-235l315 325h289z" />
    <glyph glyph-name="Lcommaaccent" unicode="&#x13b;" horiz-adv-x="1049" 
d="M905 0h-856l305 1434h326l-248 -1168h529zM690 -229c0 -68.667 -30.667 -123.831 -92 -165.498s-143.333 -62.5 -246 -62.5c-23.333 0 -60 2 -110 6l31 138c28 -6 53 -9 75 -9c44 0 78.333 7.16699 103 21.5s37 33.166 37 56.499c0 42.667 -37 64 -111 64h-22l-25 -2
l43 182h154l-19 -82c60 -2.66699 105.333 -16.834 136 -42.501s46 -60.5 46 -104.5z" />
    <glyph glyph-name="lcommaaccent" unicode="&#x13c;" horiz-adv-x="578" 
d="M336 0h-320l322 1516h319zM379 -229c0 -68.667 -30.667 -123.831 -92 -165.498s-143.333 -62.5 -246 -62.5c-23.333 0 -60 2 -110 6l31 138c28 -6 53 -9 75 -9c44 0 78.333 7.16699 103 21.5s37 33.166 37 56.499c0 42.667 -37 64 -111 64h-22l-25 -2l43 182h154l-19 -82
c60 -2.66699 105.333 -16.834 136 -42.501s46 -60.5 46 -104.5z" />
    <glyph glyph-name="Lcaron" unicode="&#x13d;" horiz-adv-x="1049" 
d="M905 0h-856l305 1434h326l-248 -1168h529zM1225 1435l-243 -353h-195l165 353h273z" />
    <glyph glyph-name="lcaron" unicode="&#x13e;" horiz-adv-x="885" 
d="M336 0h-320l322 1516h319zM1132 1516l-243 -353h-195l165 353h273z" />
    <glyph glyph-name="Ldot" unicode="&#x13f;" horiz-adv-x="1049" 
d="M905 0h-856l305 1434h326l-248 -1168h529zM1028 788c0 -38.667 -13.999 -71.5 -41.999 -98.5s-64.667 -40.5 -110 -40.5c-44.667 0 -81.334 13.333 -110.001 40s-43 59.667 -43 99s14.5 71.333 43.5 96s65.5 37 109.5 37c45.333 0 82 -12.333 110 -37s42 -56.667 42 -96z
" />
    <glyph glyph-name="ldot" unicode="&#x140;" horiz-adv-x="887" 
d="M336 0h-320l322 1516h319zM926 728c0 -38.667 -13.999 -71.5 -41.999 -98.5s-64.667 -40.5 -110 -40.5c-44.667 0 -81.334 13.333 -110.001 40s-43 59.667 -43 99s14.5 71.333 43.5 96s65.5 37 109.5 37c45.333 0 82 -12.333 110 -37s42 -56.667 42 -96z" />
    <glyph glyph-name="Lslash" unicode="&#x141;" horiz-adv-x="1049" 
d="M905 0h-856l107 500l-179 -70l56 262l180 70l141 672h326l-113 -533l293 115l-55 -262l-295 -115l-78 -373h529z" />
    <glyph glyph-name="lslash" unicode="&#x142;" horiz-adv-x="651" 
d="M371 0h-318l111 518l-135 -74l51 252l135 74l160 746h317l-119 -558l144 78l-53 -252l-144 -75z" />
    <glyph glyph-name="Nacute" unicode="&#x143;" horiz-adv-x="1636" 
d="M1362 0l-295 -0.000976562l-449 911c-6 12 -15.167 32.5 -27.5 61.5s-19.5 48.167 -21.5 57.5h-6c-12 -88.667 -21.333 -146.667 -28 -174l-183 -856h-303l303 1434h320l430 -877l12.5 -26.5l15 -32c5 -11 9.66699 -21.833 14 -32.5s7.5 -20 9.5 -28h4
c2.66699 40.667 9.66699 87.334 21 140.001l182 856h305zM1066 1567h-235l315 325h289z" />
    <glyph glyph-name="nacute" unicode="&#x144;" 
d="M1151 780c0 -38 -9.66797 -100.665 -29.001 -187.998l-125 -592h-317l123 584c12 64 18 103.333 18 118c0 32 -8.16699 57.5 -24.5 76.5s-40.833 28.5 -73.5 28.5c-35.333 0 -73 -14.333 -113 -43s-75 -66.5 -105 -113.5s-50.333 -95.167 -61 -144.5l-106 -506h-322
l152 702c28 144 46.333 251.333 55 322h312c-11.333 -108.667 -19.666 -174.334 -24.999 -197.001h4c51.333 67.333 111.333 121.166 180 161.499s135.667 60.5 201 60.5c84.667 0 148.5 -23.5 191.5 -70.5s64.5 -113.167 64.5 -198.5zM817.999 1186h-235l315 325h289z" />
    <glyph glyph-name="Ncommaaccent" unicode="&#x145;" horiz-adv-x="1636" 
d="M1362 0l-295 -0.000976562l-449 911c-6 12 -15.167 32.5 -27.5 61.5s-19.5 48.167 -21.5 57.5h-6c-12 -88.667 -21.333 -146.667 -28 -174l-183 -856h-303l303 1434h320l430 -877l12.5 -26.5l15 -32c5 -11 9.66699 -21.833 14 -32.5s7.5 -20 9.5 -28h4
c2.66699 40.667 9.66699 87.334 21 140.001l182 856h305zM852 -111.001l-168 -352h-195l91 352h272z" />
    <glyph glyph-name="ncommaaccent" unicode="&#x146;" 
d="M1151 780c0 -38 -9.66797 -100.665 -29.001 -187.998l-125 -592h-317l123 584c12 64 18 103.333 18 118c0 32 -8.16699 57.5 -24.5 76.5s-40.833 28.5 -73.5 28.5c-35.333 0 -73 -14.333 -113 -43s-75 -66.5 -105 -113.5s-50.333 -95.167 -61 -144.5l-106 -506h-322
l152 702c28 144 46.333 251.333 55 322h312c-11.333 -108.667 -19.666 -174.334 -24.999 -197.001h4c51.333 67.333 111.333 121.166 180 161.499s135.667 60.5 201 60.5c84.667 0 148.5 -23.5 191.5 -70.5s64.5 -113.167 64.5 -198.5zM631.999 -110.998l-168 -352h-195
l91 352h272z" />
    <glyph glyph-name="Ncaron" unicode="&#x147;" horiz-adv-x="1636" 
d="M1362 0l-295 -0.000976562l-449 911c-6 12 -15.167 32.5 -27.5 61.5s-19.5 48.167 -21.5 57.5h-6c-12 -88.667 -21.333 -146.667 -28 -174l-183 -856h-303l303 1434h320l430 -877l12.5 -26.5l15 -32c5 -11 9.66699 -21.833 14 -32.5s7.5 -20 9.5 -28h4
c2.66699 40.667 9.66699 87.334 21 140.001l182 856h305zM1127 1567h-250l-168 327h196l117 -190l197 190h211z" />
    <glyph glyph-name="ncaron" unicode="&#x148;" 
d="M1151 780c0 -38 -9.66797 -100.665 -29.001 -187.998l-125 -592h-317l123 584c12 64 18 103.333 18 118c0 32 -8.16699 57.5 -24.5 76.5s-40.833 28.5 -73.5 28.5c-35.333 0 -73 -14.333 -113 -43s-75 -66.5 -105 -113.5s-50.333 -95.167 -61 -144.5l-106 -506h-322
l152 702c28 144 46.333 251.333 55 322h312c-11.333 -108.667 -19.666 -174.334 -24.999 -197.001h4c51.333 67.333 111.333 121.166 180 161.499s135.667 60.5 201 60.5c84.667 0 148.5 -23.5 191.5 -70.5s64.5 -113.167 64.5 -198.5zM876.999 1186h-250l-168 327h196
l117 -190l197 190h211z" />
    <glyph glyph-name="napostrophe" unicode="&#x149;" horiz-adv-x="1466" 
d="M1392 780c0 -38 -9.66797 -100.665 -29.001 -187.998l-125 -592h-317l123 584c12 64 18 103.333 18 118c0 32 -8.16699 57.5 -24.5 76.5s-40.833 28.5 -73.5 28.5c-35.333 0 -73 -14.333 -113 -43s-75 -66.5 -105 -113.5s-50.333 -95.167 -61 -144.5l-106 -506h-322
l152 702c28 144 46.333 251.333 55 322h312c-11.333 -108.667 -19.666 -174.334 -24.999 -197.001h4c51.333 67.333 111.333 121.166 180 161.499s135.667 60.5 201 60.5c84.667 0 148.5 -23.5 191.5 -70.5s64.5 -113.167 64.5 -198.5zM270.057 1452.12h253.969
l-212.974 -443.945h-198.976z" />
    <glyph glyph-name="Eng" unicode="&#x14a;" horiz-adv-x="1636" 
d="M569 1030l-5.99707 -0.00195312c-12 -88.667 -21.333 -146.667 -28 -174l-183 -856h-303l303 1434h349l413 -918c20.667 -44 33.334 -75 38.001 -93h4c2.66699 40.667 9.66699 87.334 21 140.001l183 871h305l-299 -1414c-30.667 -145.333 -96.334 -255 -197.001 -329
s-232.334 -111 -395.001 -111c-36 0 -76.667 4.5 -122 13.5s-79 18.833 -101 29.5l59 299c21.333 -17.333 51.666 -32.166 90.999 -44.499s72 -18.5 98 -18.5c63.333 0 113.666 14.167 150.999 42.5s62 64.5 74 108.5l-406 901c-6 12 -15.167 32.5 -27.5 61.5
s-19.5 48.167 -21.5 57.5z" />
    <glyph glyph-name="eng" unicode="&#x14b;" 
d="M492 -426c-64 0 -117.335 10.6699 -160.002 32.0029l51 242c14.667 -10 32.334 -18 53.001 -24s38 -9 52 -9c50 0 92.333 20.333 127 61s61.667 107 81 199l107 509c12 54.667 18 94 18 118c0 32 -8.16699 57.5 -24.5 76.5s-40.833 28.5 -73.5 28.5
c-35.333 0 -73 -14.333 -113 -43s-75 -66.5 -105 -113.5s-50.333 -95.167 -61 -144.5l-106 -506h-322l152 702c28 144 46.333 251.333 55 322h312c-11.333 -108.667 -19.666 -174.334 -24.999 -197.001h4c51.333 67.333 111.333 121.166 180 161.499s135.667 60.5 201 60.5
c84.667 0 148.5 -23.5 191.5 -70.5s64.5 -113.167 64.5 -198.5c0 -38 -9.66699 -100.667 -29 -188l-117 -556c-31.333 -154.667 -91 -270.334 -179 -347.001s-199.333 -115 -334 -115z" />
    <glyph glyph-name="Omacron" unicode="&#x14c;" horiz-adv-x="1554" 
d="M1511 842c0 -156.667 -33.6689 -302.501 -101.002 -437.501s-160.166 -240.333 -278.499 -316s-258.5 -113.5 -420.5 -113.5c-119.333 0 -224.666 25.833 -315.999 77.5s-161.5 124.5 -210.5 218.5s-73.5 201 -73.5 321c0 162.667 34.667 310.834 104 444.501
s164 237.334 284 311.001s257.333 110.5 412 110.5c118.667 0 223.5 -24.833 314.5 -74.5s161.333 -121.334 211 -215.001s74.5 -202.5 74.5 -326.5zM1169 830.999c0 106.667 -26.167 190.833 -78.5 252.5s-124.5 92.5 -216.5 92.5c-76.667 0 -148 -25.5 -214 -76.5
s-117 -123.167 -153 -216.5s-54 -189 -54 -287c0 -108 26.167 -192 78.5 -252s122.833 -90 211.5 -90c82 0 155.167 25.167 219.5 75.5s114.833 121.5 151.5 213.5s55 188 55 288zM1250 1567h-586l37 172h586z" />
    <glyph glyph-name="omacron" unicode="&#x14d;" horiz-adv-x="1178" 
d="M1116 618c0 -122 -26.165 -234 -78.498 -336s-123.666 -178.667 -213.999 -230s-195.5 -77 -315.5 -77c-140.667 0 -250.334 38.333 -329.001 115s-118 182.667 -118 318c0 122 26.333 233.333 79 334s124.667 177 216 229s196.666 78 315.999 78
c139.333 0 248.166 -38.5 326.499 -115.5s117.5 -182.167 117.5 -315.5zM797.002 614c0 59.333 -13.8301 106.333 -41.4971 141s-64.5 52 -110.5 52c-50 0 -95.333 -18.333 -136 -55s-72.5 -86.334 -95.5 -149.001s-34.5 -127.667 -34.5 -195
c0 -60.667 14.167 -107.667 42.5 -141s65.166 -50 110.499 -50c51.333 0 97.166 17.667 137.499 53s71.666 83.833 93.999 145.5s33.5 127.834 33.5 198.501zM995.005 1186h-586l37 172h586z" />
    <glyph glyph-name="Obreve" unicode="&#x14e;" horiz-adv-x="1554" 
d="M1511 842c0 -156.667 -33.6689 -302.501 -101.002 -437.501s-160.166 -240.333 -278.499 -316s-258.5 -113.5 -420.5 -113.5c-119.333 0 -224.666 25.833 -315.999 77.5s-161.5 124.5 -210.5 218.5s-73.5 201 -73.5 321c0 162.667 34.667 310.834 104 444.501
s164 237.334 284 311.001s257.333 110.5 412 110.5c118.667 0 223.5 -24.833 314.5 -74.5s161.333 -121.334 211 -215.001s74.5 -202.5 74.5 -326.5zM1169 830.999c0 106.667 -26.167 190.833 -78.5 252.5s-124.5 92.5 -216.5 92.5c-76.667 0 -148 -25.5 -214 -76.5
s-117 -123.167 -153 -216.5s-54 -189 -54 -287c0 -108 26.167 -192 78.5 -252s122.833 -90 211.5 -90c82 0 155.167 25.167 219.5 75.5s114.833 121.5 151.5 213.5s55 188 55 288zM1301 1874c-29.333 -99.333 -76 -175.333 -140 -228s-140.667 -79 -230 -79
c-76.667 0 -138.5 21.5 -185.5 64.5s-70.5 101.167 -70.5 174.5c0 20 3.33301 42.667 10 68h162l-4 -35c0 -34 10.667 -59.833 32 -77.5s47.333 -26.5 78 -26.5c86.667 0 146 46.333 178 139h170z" />
    <glyph glyph-name="obreve" unicode="&#x14f;" horiz-adv-x="1178" 
d="M1116 618c0 -122 -26.165 -234 -78.498 -336s-123.666 -178.667 -213.999 -230s-195.5 -77 -315.5 -77c-140.667 0 -250.334 38.333 -329.001 115s-118 182.667 -118 318c0 122 26.333 233.333 79 334s124.667 177 216 229s196.666 78 315.999 78
c139.333 0 248.166 -38.5 326.499 -115.5s117.5 -182.167 117.5 -315.5zM797.002 614c0 59.333 -13.8301 106.333 -41.4971 141s-64.5 52 -110.5 52c-50 0 -95.333 -18.333 -136 -55s-72.5 -86.334 -95.5 -149.001s-34.5 -127.667 -34.5 -195
c0 -60.667 14.167 -107.667 42.5 -141s65.166 -50 110.499 -50c51.333 0 97.166 17.667 137.499 53s71.666 83.833 93.999 145.5s33.5 127.834 33.5 198.501zM1069 1493c-29.333 -99.333 -76 -175.333 -140 -228s-140.667 -79 -230 -79c-76.667 0 -138.5 21.5 -185.5 64.5
s-70.5 101.167 -70.5 174.5c0 20 3.33301 42.667 10 68h162l-4 -35c0 -34 10.667 -59.833 32 -77.5s47.333 -26.5 78 -26.5c86.667 0 146 46.333 178 139h170z" />
    <glyph glyph-name="Ohungarumlaut" unicode="&#x150;" horiz-adv-x="1554" 
d="M1511 842c0 -156.667 -33.6689 -302.501 -101.002 -437.501s-160.166 -240.333 -278.499 -316s-258.5 -113.5 -420.5 -113.5c-119.333 0 -224.666 25.833 -315.999 77.5s-161.5 124.5 -210.5 218.5s-73.5 201 -73.5 321c0 162.667 34.667 310.834 104 444.501
s164 237.334 284 311.001s257.333 110.5 412 110.5c118.667 0 223.5 -24.833 314.5 -74.5s161.333 -121.334 211 -215.001s74.5 -202.5 74.5 -326.5zM1169 830.999c0 106.667 -26.167 190.833 -78.5 252.5s-124.5 92.5 -216.5 92.5c-76.667 0 -148 -25.5 -214 -76.5
s-117 -123.167 -153 -216.5s-54 -189 -54 -287c0 -108 26.167 -192 78.5 -252s122.833 -90 211.5 -90c82 0 155.167 25.167 219.5 75.5s114.833 121.5 151.5 213.5s55 188 55 288zM1176 1567h-215l240 325h256zM792.998 1567h-215l240 325h252z" />
    <glyph glyph-name="ohungarumlaut" unicode="&#x151;" horiz-adv-x="1178" 
d="M1116 618c0 -122 -26.165 -234 -78.498 -336s-123.666 -178.667 -213.999 -230s-195.5 -77 -315.5 -77c-140.667 0 -250.334 38.333 -329.001 115s-118 182.667 -118 318c0 122 26.333 233.333 79 334s124.667 177 216 229s196.666 78 315.999 78
c139.333 0 248.166 -38.5 326.499 -115.5s117.5 -182.167 117.5 -315.5zM797.002 614c0 59.333 -13.8301 106.333 -41.4971 141s-64.5 52 -110.5 52c-50 0 -95.333 -18.333 -136 -55s-72.5 -86.334 -95.5 -149.001s-34.5 -127.667 -34.5 -195
c0 -60.667 14.167 -107.667 42.5 -141s65.166 -50 110.499 -50c51.333 0 97.166 17.667 137.499 53s71.666 83.833 93.999 145.5s33.5 127.834 33.5 198.501zM981.005 1186h-215l240 325h256zM598.005 1186h-215l240 325h252z" />
    <glyph glyph-name="OE" unicode="&#x152;" horiz-adv-x="1876" 
d="M1913 1171h-501.999l-68 -323h467l-55 -264h-467l-69 -322h534l-55 -262h-723l-63 -4l-138 -15.5c-31.333 -3.66699 -59.333 -5.5 -84 -5.5c-110 0 -209 25.5 -297 76.5s-157 124.167 -207 219.5s-75 205 -75 329c0 160 30.667 303.5 92 430.5s150.833 230 268.5 309
s259.5 118.5 425.5 118.5c49.333 0 130.666 -6.66699 243.999 -20l61 -4h768zM1081 1143c-44 22 -111.333 33 -202 33c-78.667 0 -150.5 -24.5 -215.5 -73.5s-116.333 -121 -154 -216s-56.5 -193.167 -56.5 -294.5c0 -104 26 -186.333 78 -247s123.333 -91 214 -91
c46 0 97.333 7.33301 154 22z" />
    <glyph glyph-name="oe" unicode="&#x153;" horiz-adv-x="1778" 
d="M1763 760c0 -122 -55.6689 -212.5 -167.002 -271.5s-281.666 -90.167 -510.999 -93.5l-2 -11v-11c0 -52.667 18.5 -94.5 55.5 -125.5s88.167 -46.5 153.5 -46.5c52 0 108.5 8.83301 169.5 26.5s115.833 40.167 164.5 67.5l-49 -236
c-97.333 -56 -208.666 -84 -333.999 -84c-82.667 0 -155.167 15.833 -217.5 47.5s-108.5 75.5 -138.5 131.5h-4c-43.333 -56 -98.5 -99.833 -165.5 -131.5s-139.5 -47.5 -217.5 -47.5c-90 0 -167.833 18 -233.5 54s-116.334 87.167 -152.001 153.5s-53.5 141.5 -53.5 225.5
c0 120 24 229.333 72 328s115.5 175.5 202.5 230.5s184.833 82.5 293.5 82.5c158.667 0 275.334 -62.333 350.001 -187h4c109.333 124.667 243 187 401 187c116.667 0 209 -26 277 -78s102 -122.333 102 -211zM1462 754c0 25.333 -9.16699 46.334 -27.5 63.001
s-43.833 25 -76.5 25c-58 0 -110.833 -23.833 -158.5 -71.5s-78.834 -107.834 -93.501 -180.501h14c110.667 0 195.334 14 254.001 42s88 68.667 88 122zM794.998 614.001c0 60 -12.999 107.17 -38.999 141.503s-63 51.5 -111 51.5c-50 0 -95.333 -18.333 -136 -55
s-72.5 -86.334 -95.5 -149.001s-34.5 -127.667 -34.5 -195c0 -60.667 14.167 -107.667 42.5 -141s65.166 -50 110.499 -50c51.333 0 96.833 17.667 136.5 53s70.667 84.166 93 146.499s33.5 128.166 33.5 197.499z" />
    <glyph glyph-name="Racute" unicode="&#x154;" horiz-adv-x="1311" 
d="M1305 1069c0 -113.333 -38.668 -208.333 -116.001 -285s-178.666 -123.667 -303.999 -141v-4c86 -27.333 143.333 -102.333 172 -225l100 -414h-346l-78 369c-24 120 -86 180 -186 180h-55l-117 -549h-326l305 1434h490c147.333 0 261 -32.167 341 -96.5
s120 -153.833 120 -268.5zM960.999 1016c0 55.333 -16.333 98.5 -49 129.5s-82 46.5 -148 46.5h-135l-86 -399h131c88 0 157.833 20.5 209.5 61.5s77.5 94.833 77.5 161.5zM894.999 1567h-235l315 325h289z" />
    <glyph glyph-name="racute" unicode="&#x155;" horiz-adv-x="819" 
d="M831 733h-1.99902c-14 7.33301 -31.833 14 -53.5 20s-41.834 9 -60.501 9c-68 0 -127.167 -28.167 -177.5 -84.5s-87.5 -138.833 -111.5 -247.5l-90 -430h-320l140 653c31.333 146 52.333 269.667 63 371h313c-8 -77.333 -16.667 -146.333 -26 -207h4
c41.333 76.667 84.833 134.5 130.5 173.5s98.5 58.5 158.5 58.5c17.333 0 34.333 -1.66699 51 -5s31.667 -6 45 -8zM711.001 1186h-235l315 325h289z" />
    <glyph glyph-name="Rcommaaccent" unicode="&#x156;" horiz-adv-x="1311" 
d="M1305 1069c0 -113.333 -38.668 -208.333 -116.001 -285s-178.666 -123.667 -303.999 -141v-4c86 -27.333 143.333 -102.333 172 -225l100 -414h-346l-78 369c-24 120 -86 180 -186 180h-55l-117 -549h-326l305 1434h490c147.333 0 261 -32.167 341 -96.5
s120 -153.833 120 -268.5zM960.999 1016c0 55.333 -16.333 98.5 -49 129.5s-82 46.5 -148 46.5h-135l-86 -399h131c88 0 157.833 20.5 209.5 61.5s77.5 94.833 77.5 161.5zM732.999 -111l-168 -352h-195l91 352h272z" />
    <glyph glyph-name="rcommaaccent" unicode="&#x157;" horiz-adv-x="819" 
d="M831 733h-1.99902c-14 7.33301 -31.833 14 -53.5 20s-41.834 9 -60.501 9c-68 0 -127.167 -28.167 -177.5 -84.5s-87.5 -138.833 -111.5 -247.5l-90 -430h-320l140 653c31.333 146 52.333 269.667 63 371h313c-8 -77.333 -16.667 -146.333 -26 -207h4
c41.333 76.667 84.833 134.5 130.5 173.5s98.5 58.5 158.5 58.5c17.333 0 34.333 -1.66699 51 -5s31.667 -6 45 -8zM520.001 -111l-168 -352h-195l91 352h272z" />
    <glyph glyph-name="Rcaron" unicode="&#x158;" horiz-adv-x="1311" 
d="M1305 1069c0 -113.333 -38.668 -208.333 -116.001 -285s-178.666 -123.667 -303.999 -141v-4c86 -27.333 143.333 -102.333 172 -225l100 -414h-346l-78 369c-24 120 -86 180 -186 180h-55l-117 -549h-326l305 1434h490c147.333 0 261 -32.167 341 -96.5
s120 -153.833 120 -268.5zM960.999 1016c0 55.333 -16.333 98.5 -49 129.5s-82 46.5 -148 46.5h-135l-86 -399h131c88 0 157.833 20.5 209.5 61.5s77.5 94.833 77.5 161.5zM953.999 1567h-250l-168 327h196l117 -190l197 190h211z" />
    <glyph glyph-name="rcaron" unicode="&#x159;" horiz-adv-x="819" 
d="M831 733h-1.99902c-14 7.33301 -31.833 14 -53.5 20s-41.834 9 -60.501 9c-68 0 -127.167 -28.167 -177.5 -84.5s-87.5 -138.833 -111.5 -247.5l-90 -430h-320l140 653c31.333 146 52.333 269.667 63 371h313c-8 -77.333 -16.667 -146.333 -26 -207h4
c41.333 76.667 84.833 134.5 130.5 173.5s98.5 58.5 158.5 58.5c17.333 0 34.333 -1.66699 51 -5s31.667 -6 45 -8zM732.001 1186h-250l-168 327h196l117 -190l197 190h211z" />
    <glyph glyph-name="Sacute" unicode="&#x15a;" horiz-adv-x="1100" 
d="M1067 1102c-110.667 68 -222.669 102.001 -336.002 102.001c-42 0 -78 -6.83301 -108 -20.5s-53 -32.334 -69 -56.001s-24 -49.167 -24 -76.5c0 -40 12.5 -75.333 37.5 -106s76.167 -70 153.5 -118c104 -64 177.5 -127.333 220.5 -190s64.5 -135.667 64.5 -219
c0 -88 -23 -166.833 -69 -236.5s-110.5 -121.5 -193.5 -155.5s-179.833 -51 -290.5 -51c-76 0 -151.833 9.5 -227.5 28.5s-141.167 43.167 -196.5 72.5l55 284c56 -40.667 115.833 -72.667 179.5 -96s128.167 -35 193.5 -35c67.333 0 119 13.833 155 41.5
s54 67.167 54 118.5c0 40.667 -13 75.5 -39 104.5s-81.333 67.833 -166 116.5c-95.333 53.333 -164.666 112.333 -207.999 177s-65 139.667 -65 225c0 86 21.833 163 65.5 231s106.334 120.833 188.001 158.5s177.5 56.5 287.5 56.5c137.333 0 268.333 -26 393 -78z
M824.998 1567h-235l315 325h289z" />
    <glyph glyph-name="sacute" unicode="&#x15b;" horiz-adv-x="899" 
d="M817 768c-34 18 -73.498 32.999 -118.498 44.999s-84.5 18 -118.5 18c-48.667 0 -83.5 -9.33301 -104.5 -28s-31.5 -41.334 -31.5 -68.001c0 -27.333 10.333 -49.666 31 -66.999s48 -34.666 82 -51.999c93.333 -45.333 156.666 -90.166 189.999 -134.499
s50 -99.833 50 -166.5s-18.667 -125.834 -56 -177.501s-91.666 -91.667 -162.999 -120s-157.666 -42.5 -258.999 -42.5c-50.667 0 -106 5 -166 15s-109.667 23 -149 39l47 241c43.333 -23.333 92.166 -42.5 146.499 -57.5s103.166 -22.5 146.499 -22.5
c50 0 87.167 8.66699 111.5 26s36.5 41 36.5 71c0 25.333 -9.33301 47.5 -28 66.5s-51 39.167 -97 60.5c-84.667 40 -144.834 82.667 -180.501 128s-53.5 101 -53.5 167c0 65.333 17.5 123.833 52.5 175.5s85.833 92 152.5 121s146.667 43.5 240 43.5
c98.667 0 194.667 -14.333 288 -43zM669.002 1186h-235l315 325h289z" />
    <glyph glyph-name="Scircumflex" unicode="&#x15c;" horiz-adv-x="1100" 
d="M1067 1102c-110.667 68 -222.669 102.001 -336.002 102.001c-42 0 -78 -6.83301 -108 -20.5s-53 -32.334 -69 -56.001s-24 -49.167 -24 -76.5c0 -40 12.5 -75.333 37.5 -106s76.167 -70 153.5 -118c104 -64 177.5 -127.333 220.5 -190s64.5 -135.667 64.5 -219
c0 -88 -23 -166.833 -69 -236.5s-110.5 -121.5 -193.5 -155.5s-179.833 -51 -290.5 -51c-76 0 -151.833 9.5 -227.5 28.5s-141.167 43.167 -196.5 72.5l55 284c56 -40.667 115.833 -72.667 179.5 -96s128.167 -35 193.5 -35c67.333 0 119 13.833 155 41.5
s54 67.167 54 118.5c0 40.667 -13 75.5 -39 104.5s-81.333 67.833 -166 116.5c-95.333 53.333 -164.666 112.333 -207.999 177s-65 139.667 -65 225c0 86 21.833 163 65.5 231s106.334 120.833 188.001 158.5s177.5 56.5 287.5 56.5c137.333 0 268.333 -26 393 -78z
M918.998 1567l-116 190l-197 -190h-211l303 327h250l168 -327h-197z" />
    <glyph glyph-name="scircumflex" unicode="&#x15d;" horiz-adv-x="899" 
d="M817 768c-34 18 -73.498 32.999 -118.498 44.999s-84.5 18 -118.5 18c-48.667 0 -83.5 -9.33301 -104.5 -28s-31.5 -41.334 -31.5 -68.001c0 -27.333 10.333 -49.666 31 -66.999s48 -34.666 82 -51.999c93.333 -45.333 156.666 -90.166 189.999 -134.499
s50 -99.833 50 -166.5s-18.667 -125.834 -56 -177.501s-91.666 -91.667 -162.999 -120s-157.666 -42.5 -258.999 -42.5c-50.667 0 -106 5 -166 15s-109.667 23 -149 39l47 241c43.333 -23.333 92.166 -42.5 146.499 -57.5s103.166 -22.5 146.499 -22.5
c50 0 87.167 8.66699 111.5 26s36.5 41 36.5 71c0 25.333 -9.33301 47.5 -28 66.5s-51 39.167 -97 60.5c-84.667 40 -144.834 82.667 -180.501 128s-53.5 101 -53.5 167c0 65.333 17.5 123.833 52.5 175.5s85.833 92 152.5 121s146.667 43.5 240 43.5
c98.667 0 194.667 -14.333 288 -43zM754.002 1186l-116 190l-197 -190h-211l303 327h250l168 -327h-197z" />
    <glyph glyph-name="Scedilla" unicode="&#x15e;" horiz-adv-x="1100" 
d="M1067 1102c-110.667 68 -222.669 102.001 -336.002 102.001c-42 0 -78 -6.83301 -108 -20.5s-53 -32.334 -69 -56.001s-24 -49.167 -24 -76.5c0 -40 12.5 -75.333 37.5 -106s76.167 -70 153.5 -118c104 -64 177.5 -127.333 220.5 -190s64.5 -135.667 64.5 -219
c0 -88 -23 -166.833 -69 -236.5s-110.5 -121.5 -193.5 -155.5s-179.833 -51 -290.5 -51c-76 0 -151.833 9.5 -227.5 28.5s-141.167 43.167 -196.5 72.5l55 284c56 -40.667 115.833 -72.667 179.5 -96s128.167 -35 193.5 -35c67.333 0 119 13.833 155 41.5
s54 67.167 54 118.5c0 40.667 -13 75.5 -39 104.5s-81.333 67.833 -166 116.5c-95.333 53.333 -164.666 112.333 -207.999 177s-65 139.667 -65 225c0 86 21.833 163 65.5 231s106.334 120.833 188.001 158.5s177.5 56.5 287.5 56.5c137.333 0 268.333 -26 393 -78z
M711.998 -228.999c0 -68.667 -30.667 -123.831 -92 -165.498s-143.333 -62.5 -246 -62.5c-23.333 0 -60 2 -110 6l31 138c28 -6 53 -9 75 -9c44 0 78.333 7.16699 103 21.5s37 33.166 37 56.499c0 42.667 -37 64 -111 64h-22l-25 -2l43 182h154l-19 -82
c60 -2.66699 105.333 -16.834 136 -42.501s46 -60.5 46 -104.5z" />
    <glyph glyph-name="scedilla" unicode="&#x15f;" horiz-adv-x="899" 
d="M817 768c-34 18 -73.498 32.999 -118.498 44.999s-84.5 18 -118.5 18c-48.667 0 -83.5 -9.33301 -104.5 -28s-31.5 -41.334 -31.5 -68.001c0 -27.333 10.333 -49.666 31 -66.999s48 -34.666 82 -51.999c93.333 -45.333 156.666 -90.166 189.999 -134.499
s50 -99.833 50 -166.5s-18.667 -125.834 -56 -177.501s-91.666 -91.667 -162.999 -120s-157.666 -42.5 -258.999 -42.5c-50.667 0 -106 5 -166 15s-109.667 23 -149 39l47 241c43.333 -23.333 92.166 -42.5 146.499 -57.5s103.166 -22.5 146.499 -22.5
c50 0 87.167 8.66699 111.5 26s36.5 41 36.5 71c0 25.333 -9.33301 47.5 -28 66.5s-51 39.167 -97 60.5c-84.667 40 -144.834 82.667 -180.501 128s-53.5 101 -53.5 167c0 65.333 17.5 123.833 52.5 175.5s85.833 92 152.5 121s146.667 43.5 240 43.5
c98.667 0 194.667 -14.333 288 -43zM588.002 -229.001c0 -68.667 -30.667 -123.831 -92 -165.498s-143.333 -62.5 -246 -62.5c-23.333 0 -60 2 -110 6l31 138c28 -6 53 -9 75 -9c44 0 78.333 7.16699 103 21.5s37 33.166 37 56.499c0 42.667 -37 64 -111 64h-22l-25 -2
l43 182h154l-19 -82c60 -2.66699 105.333 -16.834 136 -42.501s46 -60.5 46 -104.5z" />
    <glyph glyph-name="Scaron" unicode="&#x160;" horiz-adv-x="1100" 
d="M1067 1102c-110.667 68 -222.669 102.001 -336.002 102.001c-42 0 -78 -6.83301 -108 -20.5s-53 -32.334 -69 -56.001s-24 -49.167 -24 -76.5c0 -40 12.5 -75.333 37.5 -106s76.167 -70 153.5 -118c104 -64 177.5 -127.333 220.5 -190s64.5 -135.667 64.5 -219
c0 -88 -23 -166.833 -69 -236.5s-110.5 -121.5 -193.5 -155.5s-179.833 -51 -290.5 -51c-76 0 -151.833 9.5 -227.5 28.5s-141.167 43.167 -196.5 72.5l55 284c56 -40.667 115.833 -72.667 179.5 -96s128.167 -35 193.5 -35c67.333 0 119 13.833 155 41.5
s54 67.167 54 118.5c0 40.667 -13 75.5 -39 104.5s-81.333 67.833 -166 116.5c-95.333 53.333 -164.666 112.333 -207.999 177s-65 139.667 -65 225c0 86 21.833 163 65.5 231s106.334 120.833 188.001 158.5s177.5 56.5 287.5 56.5c137.333 0 268.333 -26 393 -78z
M883.998 1534h-250l-168 327h196l117 -190l197 190h211z" />
    <glyph glyph-name="scaron" unicode="&#x161;" horiz-adv-x="899" 
d="M817 768c-34 18 -73.498 32.999 -118.498 44.999s-84.5 18 -118.5 18c-48.667 0 -83.5 -9.33301 -104.5 -28s-31.5 -41.334 -31.5 -68.001c0 -27.333 10.333 -49.666 31 -66.999s48 -34.666 82 -51.999c93.333 -45.333 156.666 -90.166 189.999 -134.499
s50 -99.833 50 -166.5s-18.667 -125.834 -56 -177.501s-91.666 -91.667 -162.999 -120s-157.666 -42.5 -258.999 -42.5c-50.667 0 -106 5 -166 15s-109.667 23 -149 39l47 241c43.333 -23.333 92.166 -42.5 146.499 -57.5s103.166 -22.5 146.499 -22.5
c50 0 87.167 8.66699 111.5 26s36.5 41 36.5 71c0 25.333 -9.33301 47.5 -28 66.5s-51 39.167 -97 60.5c-84.667 40 -144.834 82.667 -180.501 128s-53.5 101 -53.5 167c0 65.333 17.5 123.833 52.5 175.5s85.833 92 152.5 121s146.667 43.5 240 43.5
c98.667 0 194.667 -14.333 288 -43zM715.002 1186h-250l-168 327h196l117 -190l197 190h211z" />
    <glyph glyph-name="Tcedilla" unicode="&#x162;" horiz-adv-x="1202" 
d="M1303 1171h-404l-248 -1171h-325l247 1171h-409l57 263h1139zM698 -229c0 -68.667 -30.667 -123.831 -92 -165.498s-143.333 -62.5 -246 -62.5c-23.333 0 -60 2 -110 6l31 138c28 -6 53 -9 75 -9c44 0 78.333 7.16699 103 21.5s37 33.166 37 56.499
c0 42.667 -37 64 -111 64h-22l-25 -2l43 182h154l-19 -82c60 -2.66699 105.333 -16.834 136 -42.501s46 -60.5 46 -104.5z" />
    <glyph glyph-name="tcedilla" unicode="&#x163;" horiz-adv-x="768" 
d="M776 791l-239 0.000976562l-87 -411c-8 -40 -12 -67 -12 -81c0 -26.667 6.66699 -46.334 20 -59.001s35.333 -19 66 -19c33.333 0 78.333 10.333 135 31l-49 -234c-27.333 -10.667 -63.333 -20.167 -108 -28.5s-85.667 -12.5 -123 -12.5c-176 0 -264 84.667 -264 254
c0 16.667 1.66699 37.167 5 61.5s37 190.5 101 498.5h-158l56 233h151l52 240l333 82l-67 -322h243zM564 -228.999c0 -68.667 -30.667 -123.831 -92 -165.498s-143.333 -62.5 -246 -62.5c-23.333 0 -60 2 -110 6l31 138c28 -6 53 -9 75 -9c44 0 78.333 7.16699 103 21.5
s37 33.166 37 56.499c0 42.667 -37 64 -111 64h-22l-25 -2l43 182h154l-19 -82c60 -2.66699 105.333 -16.834 136 -42.501s46 -60.5 46 -104.5z" />
    <glyph glyph-name="Tcaron" unicode="&#x164;" horiz-adv-x="1202" 
d="M1303 1171h-404l-248 -1171h-325l247 1171h-409l57 263h1139zM918 1567h-250l-168 327h196l117 -190l197 190h211z" />
    <glyph glyph-name="tcaron" unicode="&#x165;" horiz-adv-x="1034" 
d="M776 791l-239 0.000976562l-87 -411c-8 -40 -12 -67 -12 -81c0 -26.667 6.66699 -46.334 20 -59.001s35.333 -19 66 -19c33.333 0 78.333 10.333 135 31l-49 -234c-27.333 -10.667 -63.333 -20.167 -108 -28.5s-85.667 -12.5 -123 -12.5c-176 0 -264 84.667 -264 254
c0 16.667 1.66699 37.167 5 61.5s37 190.5 101 498.5h-158l56 233h151l52 240l333 82l-67 -322h243zM1282 1516l-243 -353h-195l165 353h273z" />
    <glyph glyph-name="Tbar" unicode="&#x166;" horiz-adv-x="1200" 
d="M1303 1171h-404l-78 -366h236l-57 -266h-235l-114 -539h-325l113 539h-237l57 266h236l78 366h-409l57 263h1139z" />
    <glyph glyph-name="tbar" unicode="&#x167;" horiz-adv-x="797" 
d="M776 791l-239 0.000976562l-31 -144h223l-34 -159h-223c-22.667 -106.667 -34 -169.667 -34 -189c0 -26.667 6.66699 -46.334 20 -59.001s35.333 -19 66 -19c33.333 0 78.333 10.333 135 31l-49 -234c-27.333 -10.667 -63.333 -20.167 -108 -28.5
s-85.667 -12.5 -123 -12.5c-176 0 -264 84.667 -264 254c0 17.333 1.66699 38 5 62s16 89 38 195h-143l34 159h142l30 144h-158l56 233h151l52 240l333 82l-67 -322h243z" />
    <glyph glyph-name="Utilde" unicode="&#x168;" horiz-adv-x="1481" 
d="M668 -25c-161.333 0 -287.999 43.167 -379.999 129.5s-138 204.5 -138 354.5c0 70 9.33301 147 28 231l160 744h326l-162 -746c-19.333 -93.333 -29 -158.666 -29 -195.999c0 -74.667 21.5 -133 64.5 -175s98.833 -63 167.5 -63c85.333 0 152.833 27.167 202.5 81.5
s86.5 139.166 110.5 254.499l182 844h326l-183 -850c-32.667 -154 -76.334 -273.333 -131.001 -358s-126 -147.667 -214 -189s-198 -62 -330 -62zM1359 1819c-12.667 -90 -42.333 -159.668 -89 -209.001s-103.667 -74 -171 -74c-34 0 -62.833 4.33301 -86.5 13
s-44.667 18 -63 28l-52 28c-16.333 8.66699 -34.5 13 -54.5 13c-29.333 0 -53.5 -9.16699 -72.5 -27.5s-30.833 -42.5 -35.5 -72.5h-154c10 84.667 38.833 152.834 86.5 204.501s106.834 77.5 177.501 77.5c33.333 0 61 -4.33301 83 -13s42 -18 60 -28
s35.667 -19.333 53 -28s37.333 -13 60 -13c27.333 0 50.166 8.83301 68.499 26.5s29.833 42.5 34.5 74.5h155z" />
    <glyph glyph-name="utilde" unicode="&#x169;" 
d="M1004 0l-320.001 0.000976562l14 116l11 77h-4c-55.333 -70 -116.333 -123.833 -183 -161.5s-132.667 -56.5 -198 -56.5c-84.667 0 -148.834 23.5 -192.501 70.5s-65.5 113.167 -65.5 198.5c0 18.667 3.33301 48 10 88s12 70.167 16 90.5s46.333 220.833 127 601.5h318
l-123 -578c-12.667 -50.667 -19 -91.334 -19 -122.001c0 -29.333 8 -52.833 24 -70.5s39.333 -26.5 70 -26.5c40 0 79.833 14.333 119.5 43s74.834 68 105.501 118s51.334 101 62.001 153l103 483h319l-147 -684c-24 -120 -39.667 -233.333 -47 -340zM1145 1487
c-12.667 -90 -42.333 -159.668 -89 -209.001s-103.667 -74 -171 -74c-34 0 -62.833 4.33301 -86.5 13s-44.667 18 -63 28l-52 28c-16.333 8.66699 -34.5 13 -54.5 13c-29.333 0 -53.5 -9.16699 -72.5 -27.5s-30.833 -42.5 -35.5 -72.5h-154
c10 84.667 38.833 152.834 86.5 204.501s106.834 77.5 177.501 77.5c33.333 0 61 -4.33301 83 -13s42 -18 60 -28s35.667 -19.333 53 -28s37.333 -13 60 -13c27.333 0 50.166 8.83301 68.499 26.5s29.833 42.5 34.5 74.5h155z" />
    <glyph glyph-name="Umacron" unicode="&#x16a;" horiz-adv-x="1481" 
d="M668 -25c-161.333 0 -287.999 43.167 -379.999 129.5s-138 204.5 -138 354.5c0 70 9.33301 147 28 231l160 744h326l-162 -746c-19.333 -93.333 -29 -158.666 -29 -195.999c0 -74.667 21.5 -133 64.5 -175s98.833 -63 167.5 -63c85.333 0 152.833 27.167 202.5 81.5
s86.5 139.166 110.5 254.499l182 844h326l-183 -850c-32.667 -154 -76.334 -273.333 -131.001 -358s-126 -147.667 -214 -189s-198 -62 -330 -62zM1235 1567h-586l37 172h586z" />
    <glyph glyph-name="umacron" unicode="&#x16b;" 
d="M1004 0l-320.001 0.000976562l14 116l11 77h-4c-55.333 -70 -116.333 -123.833 -183 -161.5s-132.667 -56.5 -198 -56.5c-84.667 0 -148.834 23.5 -192.501 70.5s-65.5 113.167 -65.5 198.5c0 18.667 3.33301 48 10 88s12 70.167 16 90.5s46.333 220.833 127 601.5h318
l-123 -578c-12.667 -50.667 -19 -91.334 -19 -122.001c0 -29.333 8 -52.833 24 -70.5s39.333 -26.5 70 -26.5c40 0 79.833 14.333 119.5 43s74.834 68 105.501 118s51.334 101 62.001 153l103 483h319l-147 -684c-24 -120 -39.667 -233.333 -47 -340zM1024 1186h-586l37 172
h586z" />
    <glyph glyph-name="Ubreve" unicode="&#x16c;" horiz-adv-x="1481" 
d="M668 -25c-161.333 0 -287.999 43.167 -379.999 129.5s-138 204.5 -138 354.5c0 70 9.33301 147 28 231l160 744h326l-162 -746c-19.333 -93.333 -29 -158.666 -29 -195.999c0 -74.667 21.5 -133 64.5 -175s98.833 -63 167.5 -63c85.333 0 152.833 27.167 202.5 81.5
s86.5 139.166 110.5 254.499l182 844h326l-183 -850c-32.667 -154 -76.334 -273.333 -131.001 -358s-126 -147.667 -214 -189s-198 -62 -330 -62zM1321 1874c-29.333 -99.333 -76 -175.333 -140 -228s-140.667 -79 -230 -79c-76.667 0 -138.5 21.5 -185.5 64.5
s-70.5 101.167 -70.5 174.5c0 20 3.33301 42.667 10 68h162l-4 -35c0 -34 10.667 -59.833 32 -77.5s47.333 -26.5 78 -26.5c86.667 0 146 46.333 178 139h170z" />
    <glyph glyph-name="ubreve" unicode="&#x16d;" 
d="M1004 0l-320.001 0.000976562l14 116l11 77h-4c-55.333 -70 -116.333 -123.833 -183 -161.5s-132.667 -56.5 -198 -56.5c-84.667 0 -148.834 23.5 -192.501 70.5s-65.5 113.167 -65.5 198.5c0 18.667 3.33301 48 10 88s12 70.167 16 90.5s46.333 220.833 127 601.5h318
l-123 -578c-12.667 -50.667 -19 -91.334 -19 -122.001c0 -29.333 8 -52.833 24 -70.5s39.333 -26.5 70 -26.5c40 0 79.833 14.333 119.5 43s74.834 68 105.501 118s51.334 101 62.001 153l103 483h319l-147 -684c-24 -120 -39.667 -233.333 -47 -340zM1095 1493
c-29.333 -99.333 -76 -175.333 -140 -228s-140.667 -79 -230 -79c-76.667 0 -138.5 21.5 -185.5 64.5s-70.5 101.167 -70.5 174.5c0 20 3.33301 42.667 10 68h162l-4 -35c0 -34 10.667 -59.833 32 -77.5s47.333 -26.5 78 -26.5c86.667 0 146 46.333 178 139h170z" />
    <glyph glyph-name="Uring" unicode="&#x16e;" horiz-adv-x="1481" 
d="M668 -25c-161.333 0 -287.999 43.167 -379.999 129.5s-138 204.5 -138 354.5c0 70 9.33301 147 28 231l160 744h326l-162 -746c-19.333 -93.333 -29 -158.666 -29 -195.999c0 -74.667 21.5 -133 64.5 -175s98.833 -63 167.5 -63c85.333 0 152.833 27.167 202.5 81.5
s86.5 139.166 110.5 254.499l182 844h326l-183 -850c-32.667 -154 -76.334 -273.333 -131.001 -358s-126 -147.667 -214 -189s-198 -62 -330 -62zM1210 1759c0 -64.667 -23.332 -117.667 -69.999 -159s-104.667 -62 -174 -62s-125.833 20.167 -169.5 60.5
s-65.5 91.833 -65.5 154.5c0 65.333 22.667 118.5 68 159.5s102.666 61.5 171.999 61.5c71.333 0 129 -19.833 173 -59.5s66 -91.5 66 -155.5zM1069 1757c0 25.333 -9.16797 47.333 -27.501 66s-43.5 28 -75.5 28c-28 0 -51 -9.5 -69 -28.5s-27 -40.833 -27 -65.5
c0 -26.667 8.33301 -49 25 -67s40.334 -27 71.001 -27c29.333 0 53.833 8.66699 73.5 26s29.5 40 29.5 68z" />
    <glyph glyph-name="uring" unicode="&#x16f;" 
d="M1004 0l-320.001 0.000976562l14 116l11 77h-4c-55.333 -70 -116.333 -123.833 -183 -161.5s-132.667 -56.5 -198 -56.5c-84.667 0 -148.834 23.5 -192.501 70.5s-65.5 113.167 -65.5 198.5c0 18.667 3.33301 48 10 88s12 70.167 16 90.5s46.333 220.833 127 601.5h318
l-123 -578c-12.667 -50.667 -19 -91.334 -19 -122.001c0 -29.333 8 -52.833 24 -70.5s39.333 -26.5 70 -26.5c40 0 79.833 14.333 119.5 43s74.834 68 105.501 118s51.334 101 62.001 153l103 483h319l-147 -684c-24 -120 -39.667 -233.333 -47 -340zM985.999 1378
c0 -64.667 -23.332 -117.667 -69.999 -159s-104.667 -62 -174 -62s-125.833 20.167 -169.5 60.5s-65.5 91.833 -65.5 154.5c0 65.333 22.667 118.5 68 159.5s102.666 61.5 171.999 61.5c71.333 0 129 -19.833 173 -59.5s66 -91.5 66 -155.5zM845 1376
c0 25.333 -9.16797 47.333 -27.501 66s-43.5 28 -75.5 28c-28 0 -51 -9.5 -69 -28.5s-27 -40.833 -27 -65.5c0 -26.667 8.33301 -49 25 -67s40.334 -27 71.001 -27c29.333 0 53.833 8.66699 73.5 26s29.5 40 29.5 68z" />
    <glyph glyph-name="Uhungarumlaut" unicode="&#x170;" horiz-adv-x="1481" 
d="M668 -25c-161.333 0 -287.999 43.167 -379.999 129.5s-138 204.5 -138 354.5c0 70 9.33301 147 28 231l160 744h326l-162 -746c-19.333 -93.333 -29 -158.666 -29 -195.999c0 -74.667 21.5 -133 64.5 -175s98.833 -63 167.5 -63c85.333 0 152.833 27.167 202.5 81.5
s86.5 139.166 110.5 254.499l182 844h326l-183 -850c-32.667 -154 -76.334 -273.333 -131.001 -358s-126 -147.667 -214 -189s-198 -62 -330 -62zM1168 1567h-215l240 325h256zM785.001 1567h-215l240 325h252z" />
    <glyph glyph-name="uhungarumlaut" unicode="&#x171;" 
d="M1004 0l-320.001 0.000976562l14 116l11 77h-4c-55.333 -70 -116.333 -123.833 -183 -161.5s-132.667 -56.5 -198 -56.5c-84.667 0 -148.834 23.5 -192.501 70.5s-65.5 113.167 -65.5 198.5c0 18.667 3.33301 48 10 88s12 70.167 16 90.5s46.333 220.833 127 601.5h318
l-123 -578c-12.667 -50.667 -19 -91.334 -19 -122.001c0 -29.333 8 -52.833 24 -70.5s39.333 -26.5 70 -26.5c40 0 79.833 14.333 119.5 43s74.834 68 105.501 118s51.334 101 62.001 153l103 483h319l-147 -684c-24 -120 -39.667 -233.333 -47 -340zM1001 1186h-215
l240 325h256zM617.999 1186h-215l240 325h252z" />
    <glyph glyph-name="Uogonek" unicode="&#x172;" horiz-adv-x="1481" 
d="M668 -25c-161.333 0 -287.999 43.167 -379.999 129.5s-138 204.5 -138 354.5c0 70 9.33301 147 28 231l160 744h326l-162 -746c-19.333 -93.333 -29 -158.666 -29 -195.999c0 -74.667 21.5 -133 64.5 -175s98.833 -63 167.5 -63c85.333 0 152.833 27.167 202.5 81.5
s86.5 139.166 110.5 254.499l182 844h326l-183 -850c-32.667 -154 -76.334 -273.333 -131.001 -358s-126 -147.667 -214 -189s-198 -62 -330 -62zM777.001 0c-58 -55.333 -98.5 -99.167 -121.5 -131.5s-34.5 -60.833 -34.5 -85.5c0 -48 25.333 -72 76 -72
c15.333 0 32.333 2.66699 51 8s33.667 11 45 17l-29 -142c-34 -18.667 -79 -28 -135 -28c-63.333 0 -111.833 14.5 -145.5 43.5s-50.5 70.5 -50.5 124.5c0 43.333 15.5 86 46.5 128s79.5 88 145.5 138h152z" />
    <glyph glyph-name="uogonek" unicode="&#x173;" 
d="M1004 0l-320.001 0.000976562l14 116l11 77h-4c-55.333 -70 -116.333 -123.833 -183 -161.5s-132.667 -56.5 -198 -56.5c-84.667 0 -148.834 23.5 -192.501 70.5s-65.5 113.167 -65.5 198.5c0 18.667 3.33301 48 10 88s12 70.167 16 90.5s46.333 220.833 127 601.5h318
l-123 -578c-12.667 -50.667 -19 -91.334 -19 -122.001c0 -29.333 8 -52.833 24 -70.5s39.333 -26.5 70 -26.5c40 0 79.833 14.333 119.5 43s74.834 68 105.501 118s51.334 101 62.001 153l103 483h319l-147 -684c-24 -120 -39.667 -233.333 -47 -340zM940.999 0.000976562
c-58 -55.333 -98.5 -99.167 -121.5 -131.5s-34.5 -60.833 -34.5 -85.5c0 -48 25.333 -72 76 -72c15.333 0 32.333 2.66699 51 8s33.667 11 45 17l-29 -142c-34 -18.667 -79 -28 -135 -28c-63.333 0 -111.833 14.5 -145.5 43.5s-50.5 70.5 -50.5 124.5
c0 43.333 15.5 86 46.5 128s79.5 88 145.5 138h152z" />
    <glyph glyph-name="Wcircumflex" unicode="&#x174;" horiz-adv-x="2064" 
d="M1550 0l-344.001 0.000976562l-61 943c0 41.333 5.33301 89.333 16 144h-4c-19.333 -62 -39 -114.333 -59 -157l-455 -930h-369l-73 1434h340l10 -965c0 -24 -5.33301 -71.667 -16 -143h6c12 44 32.333 97 61 159l461 949h342l47 -961l1 -32
c-1.33301 -41.333 -4.33301 -79 -9 -113h4c12.667 43.333 30.334 93.666 53.001 150.999l397 955h338zM1397 1567l-116 190l-197 -190h-211l303 327h250l168 -327h-197z" />
    <glyph glyph-name="wcircumflex" unicode="&#x175;" horiz-adv-x="1628" 
d="M1200 0h-328l-24 606c0 44.667 2.66699 88.334 8 131.001h-4c-12 -46 -27.667 -89.667 -47 -131l-285 -606h-334l-69 1024h303v-666c0 -46.667 -3.33301 -85.334 -10 -116.001h6l21 60l24 63l311 659h305l19 -664c0 -52.667 -3 -92.667 -9 -120h7
c7.33301 24 14.5 46.333 21.5 67s102.833 259.667 287.5 717h307zM1096 1186l-116 190l-197 -190h-211l303 327h250l168 -327h-197z" />
    <glyph glyph-name="Ycircumflex" unicode="&#x176;" horiz-adv-x="1245" 
d="M668 0l-326 -0.000976562l109 514l-258 920h350l114 -545c5.33301 -22.667 8.5 -43.667 9.5 -63s2.16699 -36.666 3.5 -51.999h2c17.333 44 35 81 53 111l350 549h363l-662 -914zM988 1567l-116 190l-197 -190h-211l303 327h250l168 -327h-197z" />
    <glyph glyph-name="ycircumflex" unicode="&#x177;" horiz-adv-x="1102" 
d="M10 -481c-62 0 -118.665 9.33203 -169.998 27.999l54 244c28.667 -20.667 66.667 -31 114 -31c84.667 0 151 39 199 117l82 129l-199 1018h332l72 -623l4 -92l-2 -45h4c22 60.667 41 106.334 57 137.001l313 623h332l-651 -1114
c-82.667 -144.667 -165.834 -246 -249.501 -304s-180.834 -87 -291.501 -87zM825.002 1186l-116 190l-197 -190h-211l303 327h250l168 -327h-197z" />
    <glyph glyph-name="Ydieresis" unicode="&#x178;" horiz-adv-x="1245" 
d="M668 0l-326 -0.000976562l109 514l-258 920h350l114 -545c5.33301 -22.667 8.5 -43.667 9.5 -63s2.16699 -36.666 3.5 -51.999h2c17.333 44 35 81 53 111l350 549h363l-662 -914zM1212 1671c0 -41.333 -14.501 -74.834 -43.501 -100.501s-65.5 -38.5 -109.5 -38.5
c-45.333 0 -82.333 13.333 -111 40s-43 59.667 -43 99c0 40.667 14.833 73.334 44.5 98.001s66.167 37 109.5 37c44.667 0 81.334 -12.5 110.001 -37.5s43 -57.5 43 -97.5zM754.999 1671c0 -40.667 -14.502 -74 -43.502 -100s-65.5 -39 -109.5 -39
c-45.333 0 -82.666 13.5 -111.999 40.5s-44 59.833 -44 98.5c0 40 15 72.5 45 97.5s67 37.5 111 37.5c44.667 0 81.334 -12.5 110.001 -37.5s43 -57.5 43 -97.5z" />
    <glyph glyph-name="Zacute" unicode="&#x179;" horiz-adv-x="1243" 
d="M440 262h701l-56 -262h-1155l39 186l922 985h-660l56 263h1102l-39 -181zM900 1567h-235l315 325h289z" />
    <glyph glyph-name="zacute" unicode="&#x17a;" horiz-adv-x="995" 
d="M420 233h475l-49 -233h-930l27 133l645 658h-453l49 233h877l-35 -160zM724 1186h-235l315 325h289z" />
    <glyph glyph-name="Zdotaccent" unicode="&#x17b;" horiz-adv-x="1243" 
d="M440 262h701l-56 -262h-1155l39 186l922 985h-660l56 263h1102l-39 -181zM1008 1706c0 -38.667 -13.999 -71.5 -41.999 -98.5s-64.667 -40.5 -110 -40.5c-44.667 0 -81.334 13.333 -110.001 40s-43 59.667 -43 99s14.5 71.333 43.5 96s65.5 37 109.5 37
c45.333 0 82 -12.333 110 -37s42 -56.667 42 -96z" />
    <glyph glyph-name="zdotaccent" unicode="&#x17c;" horiz-adv-x="995" 
d="M420 233h475l-49 -233h-930l27 133l645 658h-453l49 233h877l-35 -160zM801 1325c0 -38.667 -13.999 -71.5 -41.999 -98.5s-64.667 -40.5 -110 -40.5c-44.667 0 -81.334 13.333 -110.001 40s-43 59.667 -43 99s14.5 71.333 43.5 96s65.5 37 109.5 37
c45.333 0 82 -12.333 110 -37s42 -56.667 42 -96z" />
    <glyph glyph-name="Zcaron" unicode="&#x17d;" horiz-adv-x="1243" 
d="M440 262h701l-56 -262h-1155l39 186l922 985h-660l56 263h1102l-39 -181zM955 1534h-250l-168 327h196l117 -190l197 190h211z" />
    <glyph glyph-name="zcaron" unicode="&#x17e;" horiz-adv-x="995" 
d="M420 233h475l-49 -233h-930l27 133l645 658h-453l49 233h877l-35 -160zM769 1186h-250l-168 327h196l117 -190l197 190h211z" />
    <glyph glyph-name="longs" unicode="&#x17f;" horiz-adv-x="701" 
d="M873 1270c-47.333 18.667 -89.668 27.999 -127.001 27.999c-47.333 0 -83.666 -13 -108.999 -39s-44.333 -66.667 -57 -122l-321 -1477h-316l324 1511c28 124.667 80.167 217.334 156.5 278.001s179.833 91 310.5 91c70 0 132.667 -9 188 -27z" />
    <glyph glyph-name="florin" unicode="&#x192;" horiz-adv-x="1180" 
d="M1104 1188c-41.333 23.333 -81.667 34.998 -121 34.998c-38 0 -70.167 -12.167 -96.5 -36.5s-44.833 -58.166 -55.5 -101.499l-32 -137h178l-51 -215h-174l-134 -583c-32 -145.333 -79.5 -252.666 -142.5 -321.999s-148.5 -104 -256.5 -104
c-26.667 0 -55.5 2.66699 -86.5 8s-56.833 12 -77.5 20l33 211c32 -17.333 60.667 -26 86 -26c42 0 75 16.667 99 50s43.667 85.333 59 156l133 590h-133l51 215h129l35 148c24.667 113.333 72.167 200 142.5 260s158.5 90 264.5 90c72.667 0 137.667 -12.333 195 -37z" />
    <glyph glyph-name="Aringacute" unicode="&#x1fa;" horiz-adv-x="1440" 
d="M985 0l-41 318.999h-512l-170 -319h-364l815 1411c-31.333 34 -47 77.667 -47 131c0 69.333 23.667 125.333 71 168s108.333 64 183 64c74 0 134.333 -20.667 181 -62s70 -96.666 70 -165.999c0 -57.333 -19 -104.333 -57 -141l201 -1405h-330zM1024 1546
c0 26.667 -9.66797 49.333 -29.001 68s-46 28 -80 28c-29.333 0 -53.666 -9.5 -72.999 -28.5s-29 -41.5 -29 -67.5c0 -28 9 -51.667 27 -71s43 -29 75 -29c30.667 0 56.5 9.5 77.5 28.5s31.5 42.833 31.5 71.5zM863.999 1084c0 36 1.33398 64.333 4.00098 85h-8
c-6.66699 -33.333 -22.334 -72 -47.001 -116l-254 -469h359l-52 465zM980 1856h-235l315 325h289z" />
    <glyph glyph-name="aringacute" unicode="&#x1fb;" horiz-adv-x="1214" 
d="M1006 0l-319.999 0.000976562c0 41.333 4.66699 99.333 14 174h-4c-42 -56.667 -77.833 -97.334 -107.5 -122.001s-61.834 -43.667 -96.501 -57s-73.667 -20 -117 -20c-100 0 -177.333 35 -232 105s-82 167 -82 291c0 84.667 16.333 171.5 49 260.5
s78.667 164.333 138 226s131 109 215 142s180.333 49.5 289 49.5c126 0 270 -18 432 -54l-140 -657c-8 -36.667 -16.333 -90.667 -25 -162s-13 -130 -13 -176zM829.001 817.001c-30.667 6.66699 -65.333 9.99902 -104 9.99902c-66 0 -124.667 -18 -176 -54
s-92.5 -89.667 -123.5 -161s-46.5 -145.666 -46.5 -222.999c0 -54.667 11.333 -97 34 -127s53 -45 91 -45c60 0 113.833 30.833 161.5 92.5s84.5 151.167 110.5 268.5zM1038 1378c0 -64.667 -23.332 -117.667 -69.999 -159s-104.667 -62 -174 -62
s-125.833 20.167 -169.5 60.5s-65.5 91.833 -65.5 154.5c0 65.333 22.667 118.5 68 159.5s102.666 61.5 171.999 61.5c71.333 0 129 -19.833 173 -59.5s66 -91.5 66 -155.5zM897.003 1376c0 25.333 -9.16797 47.333 -27.501 66s-43.5 28 -75.5 28c-28 0 -51 -9.5 -69 -28.5
s-27 -40.833 -27 -65.5c0 -26.667 8.33301 -49 25 -67s40.334 -27 71.001 -27c29.333 0 53.833 8.66699 73.5 26s29.5 40 29.5 68zM914.002 1659h-235l315 325h289z" />
    <glyph glyph-name="AEacute" unicode="&#x1fc;" horiz-adv-x="1933" 
d="M1950 1171h-504l-68 -323h467l-55 -264h-467l-70 -322h535l-55 -262h-859l68 319h-477l-229 -319h-379l1083 1434h1065zM1071 1174l-418 -588h344l125 588h-51zM1510 1567h-235l315 325h289z" />
    <glyph glyph-name="aeacute" unicode="&#x1fd;" horiz-adv-x="1761" 
d="M1747 760c0 -122 -55.999 -212.499 -167.999 -271.499s-282.667 -90.167 -512 -93.5v-18c0 -54.667 18.167 -97.667 54.5 -129s87.833 -47 154.5 -47c51.333 0 107.666 8.83301 168.999 26.5s116.333 40.167 165 67.5l-49 -236
c-47.333 -24.667 -103.333 -44.834 -168 -60.501s-130.334 -23.5 -197.001 -23.5c-96.667 0 -179 20.167 -247 60.5s-116 100.166 -144 179.499h-4c-61.333 -84 -125.5 -145 -192.5 -183s-139.5 -57 -217.5 -57c-100 0 -180 34.167 -240 102.5s-90 162.5 -90 282.5
c0 88 18.333 177.667 55 269s84.5 167.333 143.5 228s130.167 107.834 213.5 141.501s177.666 50.5 282.999 50.5c114.667 0 229.334 -21.333 344.001 -64c80 42.667 172.667 64 278 64c114.667 0 204.834 -26.167 270.501 -78.5s98.5 -122.5 98.5 -210.5zM1444 756.001
c0 24.667 -9.16602 45.167 -27.499 61.5s-43.5 24.5 -75.5 24.5c-56.667 0 -108.334 -23 -155.001 -69s-78.667 -107 -96 -183h16c112 0 196.333 14.167 253 42.5s85 69.5 85 123.5zM870.002 807.001c-33.333 13.333 -70.6699 19.999 -112.003 19.999
c-71.333 0 -134.666 -18.333 -189.999 -55s-100.666 -92.167 -135.999 -166.5s-53 -149.166 -53 -224.499c0 -50 9.33301 -89.833 28 -119.5s45.334 -44.5 80.001 -44.5c96 0 188.333 107.333 277 322l16 46c37.333 114.667 67.333 188.667 90 222zM1126 1186h-235l315 325
h289z" />
    <glyph glyph-name="Oslashacute" unicode="&#x1fe;" horiz-adv-x="1554" 
d="M1405 1221c70.667 -108 105.999 -235.668 105.999 -383.001c0 -156.667 -35.333 -303.667 -106 -441s-165 -242 -283 -314s-256.333 -108 -415 -108c-148 0 -274.333 41.667 -379 125l-166 -176l-121 119l172 178c-68 106 -102 229.667 -102 371
c0 116.667 18.833 228.334 56.5 335.001s93.5 200.5 167.5 281.5s158.833 142.5 254.5 184.5s202.834 63 321.501 63c144 0 269 -39 375 -117l148 154l118 -117zM1090 1133c-24 21.333 -54 38.833 -90 52.5s-75 20.5 -117 20.5c-84 0 -160 -25 -228 -75
s-122.833 -125.333 -164.5 -226s-62.5 -203.667 -62.5 -309c0 -46 5.33301 -89.667 16 -131zM1194 833.999c0 53.333 -7.66602 101 -22.999 143l-649 -674c54.667 -54.667 125.667 -82 213 -82c86.667 0 165.167 27 235.5 81s125.166 130.167 164.499 228.5
s59 199.5 59 303.5zM927 1567h-235l315 325h289z" />
    <glyph glyph-name="oslashacute" unicode="&#x1ff;" horiz-adv-x="1178" 
d="M1061 848c36.667 -63.333 55 -140 55 -230c0 -122 -25.833 -233.667 -77.5 -335s-123.167 -178 -214.5 -230s-196.666 -78 -315.999 -78c-120 0 -216.333 28.667 -289 86l-137 -127l-102 119l135 127c-36 64 -54 140 -54 228c0 124.667 26.667 237.167 80 337.5
s125.333 176 216 227s195.667 76.5 315 76.5c111.333 0 204.666 -28 279.999 -84l158 147l102 -121zM758 782c-26.667 28.667 -62.333 43 -107 43c-90 0 -163.667 -37.333 -221 -112s-86 -169.667 -86 -285l2 -31zM831.001 600l-0.000976562 19l-2 18l-413 -389
c30 -32.667 67.333 -49 112 -49c92.667 0 166.334 37.333 221.001 112s82 171 82 289zM716 1186h-235l315 325h289z" />
    <glyph glyph-name="Scommaaccent" unicode="&#x218;" horiz-adv-x="1100" 
d="M1067 1102c-110.667 68 -222.669 102.001 -336.002 102.001c-42 0 -78 -6.83301 -108 -20.5s-53 -32.334 -69 -56.001s-24 -49.167 -24 -76.5c0 -40 12.5 -75.333 37.5 -106s76.167 -70 153.5 -118c104 -64 177.5 -127.333 220.5 -190s64.5 -135.667 64.5 -219
c0 -88 -23 -166.833 -69 -236.5s-110.5 -121.5 -193.5 -155.5s-179.833 -51 -290.5 -51c-76 0 -151.833 9.5 -227.5 28.5s-141.167 43.167 -196.5 72.5l55 284c56 -40.667 115.833 -72.667 179.5 -96s128.167 -35 193.5 -35c67.333 0 119 13.833 155 41.5
s54 67.167 54 118.5c0 40.667 -13 75.5 -39 104.5s-81.333 67.833 -166 116.5c-95.333 53.333 -164.666 112.333 -207.999 177s-65 139.667 -65 225c0 86 21.833 163 65.5 231s106.334 120.833 188.001 158.5s177.5 56.5 287.5 56.5c137.333 0 268.333 -26 393 -78z
M674.998 -110.999l-168 -352h-195l91 352h272z" />
    <glyph glyph-name="scommaaccent" unicode="&#x219;" horiz-adv-x="899" 
d="M817 768c-34 18 -73.498 32.999 -118.498 44.999s-84.5 18 -118.5 18c-48.667 0 -83.5 -9.33301 -104.5 -28s-31.5 -41.334 -31.5 -68.001c0 -27.333 10.333 -49.666 31 -66.999s48 -34.666 82 -51.999c93.333 -45.333 156.666 -90.166 189.999 -134.499
s50 -99.833 50 -166.5s-18.667 -125.834 -56 -177.501s-91.666 -91.667 -162.999 -120s-157.666 -42.5 -258.999 -42.5c-50.667 0 -106 5 -166 15s-109.667 23 -149 39l47 241c43.333 -23.333 92.166 -42.5 146.499 -57.5s103.166 -22.5 146.499 -22.5
c50 0 87.167 8.66699 111.5 26s36.5 41 36.5 71c0 25.333 -9.33301 47.5 -28 66.5s-51 39.167 -97 60.5c-84.667 40 -144.834 82.667 -180.501 128s-53.5 101 -53.5 167c0 65.333 17.5 123.833 52.5 175.5s85.833 92 152.5 121s146.667 43.5 240 43.5
c98.667 0 194.667 -14.333 288 -43zM583.002 -111.001l-168 -352h-195l91 352h272z" />
    <glyph glyph-name="Tcommaaccent" unicode="&#x21a;" horiz-adv-x="1202" 
d="M1303 1171h-404l-248 -1171h-325l247 1171h-409l57 263h1139zM615 -111l-168 -352h-195l91 352h272z" />
    <glyph glyph-name="tcommaaccent" unicode="&#x21b;" horiz-adv-x="768" 
d="M776 791l-239 0.000976562l-87 -411c-8 -40 -12 -67 -12 -81c0 -26.667 6.66699 -46.334 20 -59.001s35.333 -19 66 -19c33.333 0 78.333 10.333 135 31l-49 -234c-27.333 -10.667 -63.333 -20.167 -108 -28.5s-85.667 -12.5 -123 -12.5c-176 0 -264 84.667 -264 254
c0 16.667 1.66699 37.167 5 61.5s37 190.5 101 498.5h-158l56 233h151l52 240l333 82l-67 -322h243zM488 -110.999l-168 -352h-195l91 352h272z" />
    <glyph glyph-name="dotlessj" unicode="&#x237;" horiz-adv-x="578" 
d="M346 53c-15.333 -72 -35.833 -140.331 -61.5 -204.998s-59.334 -121.334 -101.001 -170.001s-92.5 -87.334 -152.5 -116.001s-131.667 -43 -215 -43c-29.333 0 -58.666 3 -87.999 9s-53.333 13.667 -72 23l51 242c6 -4 13.167 -8 21.5 -12s17.333 -7.5 27 -10.5
s19.5 -5.5 29.5 -7.5s19 -3 27 -3c50 0 92.333 20.333 127 61s61.667 107 81 199l213 1004h320z" />
    <glyph glyph-name="circumflex" unicode="&#x2c6;" horiz-adv-x="899" 
d="M739 1186l-116 190l-197 -190h-211l303 327h250l168 -327h-197z" />
    <glyph glyph-name="caron" unicode="&#x2c7;" horiz-adv-x="899" 
d="M711 1186h-250l-168 327h196l117 -190l197 190h211z" />
    <glyph glyph-name="macron" unicode="&#x2c9;" horiz-adv-x="899" 
d="M869 1186h-586l37 172h586z" />
    <glyph glyph-name="breve" unicode="&#x2d8;" horiz-adv-x="899" 
d="M956 1493c-29.333 -99.333 -76 -175.333 -140 -228s-140.667 -79 -230 -79c-76.667 0 -138.5 21.5 -185.5 64.5s-70.5 101.167 -70.5 174.5c0 20 3.33301 42.667 10 68h162l-4 -35c0 -34 10.667 -59.833 32 -77.5s47.333 -26.5 78 -26.5c86.667 0 146 46.333 178 139h170
z" />
    <glyph glyph-name="dotaccent" unicode="&#x2d9;" horiz-adv-x="899" 
d="M762 1325c0 -38.667 -13.999 -71.5 -41.999 -98.5s-64.667 -40.5 -110 -40.5c-44.667 0 -81.334 13.333 -110.001 40s-43 59.667 -43 99s14.5 71.333 43.5 96s65.5 37 109.5 37c45.333 0 82 -12.333 110 -37s42 -56.667 42 -96z" />
    <glyph glyph-name="ring" unicode="&#x2da;" horiz-adv-x="899" 
d="M862 1378c0 -64.667 -23.332 -117.667 -69.999 -159s-104.667 -62 -174 -62s-125.833 20.167 -169.5 60.5s-65.5 91.833 -65.5 154.5c0 65.333 22.667 118.5 68 159.5s102.666 61.5 171.999 61.5c71.333 0 129 -19.833 173 -59.5s66 -91.5 66 -155.5zM721.001 1376
c0 25.333 -9.16797 47.333 -27.501 66s-43.5 28 -75.5 28c-28 0 -51 -9.5 -69 -28.5s-27 -40.833 -27 -65.5c0 -26.667 8.33301 -49 25 -67s40.334 -27 71.001 -27c29.333 0 53.833 8.66699 73.5 26s29.5 40 29.5 68z" />
    <glyph glyph-name="ogonek" unicode="&#x2db;" horiz-adv-x="899" 
d="M412 0c-58 -55.333 -98.5 -99.167 -121.5 -131.5s-34.5 -60.833 -34.5 -85.5c0 -48 25.333 -72 76 -72c15.333 0 32.333 2.66699 51 8s33.667 11 45 17l-29 -142c-34 -18.667 -79 -28 -135 -28c-63.333 0 -111.833 14.5 -145.5 43.5s-50.5 70.5 -50.5 124.5
c0 43.333 15.5 86 46.5 128s79.5 88 145.5 138h152z" />
    <glyph glyph-name="tilde" unicode="&#x2dc;" horiz-adv-x="899" 
d="M995 1487c-12.667 -90 -42.333 -159.668 -89 -209.001s-103.667 -74 -171 -74c-34 0 -62.833 4.33301 -86.5 13s-44.667 18 -63 28l-52 28c-16.333 8.66699 -34.5 13 -54.5 13c-29.333 0 -53.5 -9.16699 -72.5 -27.5s-30.833 -42.5 -35.5 -72.5h-154
c10 84.667 38.833 152.834 86.5 204.501s106.834 77.5 177.501 77.5c33.333 0 61 -4.33301 83 -13s42 -18 60 -28s35.667 -19.333 53 -28s37.333 -13 60 -13c27.333 0 50.166 8.83301 68.499 26.5s29.833 42.5 34.5 74.5h155z" />
    <glyph glyph-name="hungarumlaut" unicode="&#x2dd;" horiz-adv-x="899" 
d="M817 1186h-215l240 325h256zM434 1186h-215l240 325h252z" />
    <glyph glyph-name="uni037E" unicode="&#x37e;" horiz-adv-x="555" 
d="M537 879c0 -50.667 -18.502 -91.999 -55.502 -123.999s-82.833 -48 -137.5 -48c-49.333 0 -91 14.5 -125 43.5s-51 66.167 -51 111.5c0 51.333 17.833 93.166 53.5 125.499s81.834 48.5 138.501 48.5c50.667 0 92.834 -15 126.501 -45s50.5 -67.333 50.5 -112z
M118.998 -253.999h-256l229 506h299z" />
    <glyph glyph-name="tonos" unicode="&#x384;" horiz-adv-x="649" 
d="M601 1508l-280 -340h-169l168 340h281z" />
    <glyph glyph-name="dieresistonos" unicode="&#x385;" horiz-adv-x="867" 
d="M892 1311c0 -36 -12.833 -66.167 -38.5 -90.5s-60.5 -36.5 -104.5 -36.5c-42 0 -76.167 12.333 -102.5 37s-39.5 54.667 -39.5 90c0 36 13.167 65.833 39.5 89.5s60.5 35.5 102.5 35.5c40.667 0 74.667 -11.667 102 -35s41 -53.333 41 -90zM683 1584l-224 -372h-147
l106 372h265zM279 1311c0 -36.667 -13.167 -67 -39.5 -91s-60.833 -36 -103.5 -36c-40.667 0 -74.5 12 -101.5 36s-40.5 54.333 -40.5 91c0 36 13.167 65.833 39.5 89.5s60.5 35.5 102.5 35.5c42.667 0 77.167 -11.667 103.5 -35s39.5 -53.333 39.5 -90z" />
    <glyph glyph-name="Alphatonos" unicode="&#x386;" horiz-adv-x="1492" 
d="M1037 0l-41 319h-514l-168 -319h-364l827 1434h385l205 -1434h-330zM919 1087c0 44.667 1 75 3 91h-6c-6.66699 -30.667 -23.667 -71.667 -51 -123l-262 -488h369l-52 484zM533 1437l-280 -340h-169l168 340h281z" />
    <glyph glyph-name="anoteleia" unicode="&#x387;" horiz-adv-x="568" 
d="M496 682c0 -51.333 -18.499 -92.833 -55.499 -124.5s-83.5 -47.5 -139.5 -47.5c-52 0 -94.667 14.667 -128 44s-50 66 -50 110c0 51.333 18.667 93 56 125s83.666 48 138.999 48c52.667 0 95.5 -14.5 128.5 -43.5s49.5 -66.167 49.5 -111.5z" />
    <glyph glyph-name="Epsilontonos" unicode="&#x388;" horiz-adv-x="1359" 
d="M1398 1171h-501l-68 -323h467l-57 -264h-465l-70 -322h535l-56 -262h-860l305 1434h826zM533 1437l-280 -340h-169l168 340h281z" />
    <glyph glyph-name="Etatonos" unicode="&#x389;" horiz-adv-x="1839" 
d="M1563 0h-325l122 580h-589l-123 -580h-326l305 1434h326l-123 -572h590l123 572h325zM533 1437l-280 -340h-169l168 340h281z" />
    <glyph glyph-name="Iotatonos" unicode="&#x38a;" horiz-adv-x="923" 
d="M649 0h-326l303 1434h326zM533 1437l-280 -340h-169l168 340h281z" />
    <glyph glyph-name="Omicrontonos" unicode="&#x38c;" horiz-adv-x="1789" 
d="M1745 842c0 -156.667 -33.6689 -302.501 -101.002 -437.501s-160.166 -240.333 -278.499 -316s-258.5 -113.5 -420.5 -113.5c-119.333 0 -224.666 25.833 -315.999 77.5s-161.5 124.5 -210.5 218.5s-73.5 201 -73.5 321c0 162.667 34.667 310.834 104 444.501
s164 237.334 284 311.001s257.333 110.5 412 110.5c118.667 0 223.5 -24.833 314.5 -74.5s161.333 -121.334 211 -215.001s74.5 -202.5 74.5 -326.5zM1403 830.999c0 106.667 -26.167 190.833 -78.5 252.5s-124.5 92.5 -216.5 92.5c-76.667 0 -148 -25.5 -214 -76.5
s-117 -123.167 -153 -216.5s-54 -189 -54 -287c0 -108 26.167 -192 78.5 -252s122.833 -90 211.5 -90c82 0 155.167 25.167 219.5 75.5s114.833 121.5 151.5 213.5s55 188 55 288zM532.998 1437l-280 -340h-169l168 340h281z" />
    <glyph glyph-name="Upsilontonos" unicode="&#x38e;" horiz-adv-x="1641" 
d="M1064 0l-326 -0.000976562l109 514l-258 920h350l114 -545c5.33301 -22.667 8.5 -43.667 9.5 -63s2.16699 -36.666 3.5 -51.999h2c17.333 44 35 81 53 111l350 549h363l-662 -914zM533 1437l-280 -340h-169l168 340h281z" />
    <glyph glyph-name="Omegatonos" unicode="&#x38f;" horiz-adv-x="1860" 
d="M1847 898c0 -140.667 -40.335 -266.665 -121.002 -377.998s-193.667 -198 -339 -260h332l-55 -260h-600l64 306c244.667 124 367 309 367 555c0 95.333 -28.667 172.166 -86 230.499s-133.666 87.5 -228.999 87.5c-82 0 -156.167 -19.833 -222.5 -59.5
s-117.666 -96 -153.999 -169s-54.5 -158.167 -54.5 -255.5c0 -154 55.667 -283.667 167 -389l-65 -306h-599l54 260h352c-77.333 54 -139.333 124.5 -186 211.5s-70 177.833 -70 272.5c0 141.333 33.667 266.166 101 374.499s161.333 192 282 251s257.667 88.5 411 88.5
c126 0 238.833 -23.5 338.5 -70.5s176.667 -113 231 -198s81.5 -182.167 81.5 -291.5zM532.998 1437l-280 -340h-169l168 340h281z" />
    <glyph glyph-name="iotadieresistonos" unicode="&#x390;" horiz-adv-x="650" 
d="M348 -20c-84 0 -149.834 21.168 -197.501 63.501s-71.5 100.166 -71.5 173.499c0 50.667 8.66699 119 26 205s60 286.667 128 602h320l-122 -576c-17.333 -76 -26 -127.333 -26 -154c0 -25.333 8 -43 24 -53s34.333 -15 55 -15c34.667 0 68.334 6.66699 101.001 20
l-50 -237c-52 -19.333 -114.333 -29 -187 -29zM913.999 1311c0 -36 -12.833 -66.167 -38.5 -90.5s-60.5 -36.5 -104.5 -36.5c-42 0 -76.167 12.333 -102.5 37s-39.5 54.667 -39.5 90c0 36 13.167 65.833 39.5 89.5s60.5 35.5 102.5 35.5c40.667 0 74.667 -11.667 102 -35
s41 -53.333 41 -90zM704.999 1584l-224 -372h-147l106 372h265zM300.999 1311c0 -36.667 -13.167 -67 -39.5 -91s-60.833 -36 -103.5 -36c-40.667 0 -74.5 12 -101.5 36s-40.5 54.333 -40.5 91c0 36 13.167 65.833 39.5 89.5s60.5 35.5 102.5 35.5
c42.667 0 77.167 -11.667 103.5 -35s39.5 -53.333 39.5 -90z" />
    <glyph glyph-name="Alpha" unicode="&#x391;" horiz-adv-x="1440" 
d="M985 0l-41 319h-514l-168 -319h-364l827 1434h385l205 -1434h-330zM867 1087c0 44.667 1 75 3 91h-6c-6.66699 -30.667 -23.667 -71.667 -51 -123l-262 -488h369l-52 484z" />
    <glyph glyph-name="Beta" unicode="&#x392;" horiz-adv-x="1327" 
d="M1296 1110c0 -92.667 -30.168 -170.331 -90.501 -232.998s-144.833 -104.334 -253.5 -125.001v-4c84.667 -12.667 151.334 -45 200.001 -97s73 -118 73 -198c0 -138.667 -53.833 -248.834 -161.5 -330.501s-256.167 -122.5 -445.5 -122.5h-569l305 1434h508
c141.333 0 249 -28 323 -84s111 -136 111 -240zM955.999 1047c0 99.333 -64.667 149 -194 149h-133l-74 -340h152c76 0 136.5 17 181.5 51s67.5 80.667 67.5 140zM882.999 451.003c0 50 -17.332 89.999 -51.999 119.999s-86.334 45 -155.001 45h-170l-82 -378h180
c90 0 159 18.833 207 56.5s72 89.834 72 156.501z" />
    <glyph glyph-name="Gamma" unicode="&#x393;" horiz-adv-x="1085" 
d="M1152 1168h-532l-248 -1168h-323l305 1434h855z" />
    <glyph glyph-name="Delta" unicode="&#x394;" horiz-adv-x="1510" 
d="M1325 0h-1358l29 130l765 1304h395l196 -1304zM910 1103l2.00098 68.001h-8c-20 -48 -33.833 -79.833 -41.5 -95.5s-158.834 -286.834 -453.501 -813.501h605l-99 754c-3.33301 25.333 -5 54.333 -5 87z" />
    <glyph glyph-name="Epsilon" unicode="&#x395;" horiz-adv-x="1085" 
d="M1124 1171h-501l-68 -323h467l-57 -264h-465l-70 -322h535l-56 -262h-860l305 1434h826z" />
    <glyph glyph-name="Zeta" unicode="&#x396;" horiz-adv-x="1243" 
d="M440 262h701l-56 -262h-1155l39 186l922 985h-660l56 263h1102l-39 -181z" />
    <glyph glyph-name="Eta" unicode="&#x397;" horiz-adv-x="1565" 
d="M1290 0h-325l122 580h-589l-123 -580h-326l305 1434h326l-123 -572h590l123 572h325z" />
    <glyph glyph-name="Theta" unicode="&#x398;" horiz-adv-x="1554" 
d="M1511 842c0 -156.667 -33.6689 -302.501 -101.002 -437.501s-160.166 -240.333 -278.499 -316s-258.5 -113.5 -420.5 -113.5c-119.333 0 -224.666 25.833 -315.999 77.5s-161.5 124.5 -210.5 218.5s-73.5 201 -73.5 321c0 162.667 34.667 310.834 104 444.501
s164 237.334 284 311.001s257.333 110.5 412 110.5c118.667 0 223.5 -24.833 314.5 -74.5s161.333 -121.334 211 -215.001s74.5 -202.5 74.5 -326.5zM1169 830.999c0 106.667 -26.167 190.833 -78.5 252.5s-124.5 92.5 -216.5 92.5c-76.667 0 -148 -25.5 -214 -76.5
s-117 -123.167 -153 -216.5s-54 -189 -54 -287c0 -108 26.167 -192 78.5 -252s122.833 -90 211.5 -90c82 0 155.167 25.167 219.5 75.5s114.833 121.5 151.5 213.5s55 188 55 288zM1001 596.998h-436l51 239h435z" />
    <glyph glyph-name="Iota" unicode="&#x399;" horiz-adv-x="649" 
d="M375 0h-326l303 1434h326z" />
    <glyph glyph-name="Kappa" unicode="&#x39a;" horiz-adv-x="1333" 
d="M1509 1434c-41.333 -52 -149.998 -168.332 -325.998 -348.999c-176.667 -181.333 -285.667 -298 -327 -350c23.333 -59.333 88 -181.666 194 -366.999c105.333 -186 169.666 -308.667 192.999 -368h-393c-14 41.333 -64 144.666 -150 309.999
c-88.667 170 -139 272.667 -151 308c-10 21.333 -18.333 45.333 -25 72h-4l-145 -690h-326l305 1434h326l-141 -666h4c38 51.333 142 172.666 312 363.999c149.333 168 235.666 268.667 258.999 302h395z" />
    <glyph glyph-name="Lambda" unicode="&#x39b;" horiz-adv-x="1457" 
d="M967 0l-87 1019c-2.66699 33.333 -4 76.333 -4 129h-8c-11.333 -30.667 -24.5 -61.334 -39.5 -92.001s-196.833 -382.667 -545.5 -1056h-363l800 1434h407l184 -1434h-344z" />
    <glyph glyph-name="Mu" unicode="&#x39c;" horiz-adv-x="1968" 
d="M1694 0l-320 0.000976562l195 922l43 176l12 49h-6l-21 -49c-30 -70.667 -50.333 -115 -61 -133l-547 -965h-256l-145 954c-5.33301 32 -8 96.333 -8 193h-7c-16 -120 -31.667 -217 -47 -291l-182 -856h-295l303 1434h451l137 -914c4.66699 -34.667 7 -71.334 7 -110.001
l-1 -33h6c25.333 72.667 45.333 121.667 60 147l506 910h479z" />
    <glyph glyph-name="Nu" unicode="&#x39d;" horiz-adv-x="1636" 
d="M1362 0l-295 -0.000976562l-449 911c-6 12 -15.167 32.5 -27.5 61.5s-19.5 48.167 -21.5 57.5h-6c-12 -88.667 -21.333 -146.667 -28 -174l-183 -856h-303l303 1434h320l430 -877l12.5 -26.5l15 -32c5 -11 9.66699 -21.833 14 -32.5s7.5 -20 9.5 -28h4
c2.66699 40.667 9.66699 87.334 21 140.001l182 856h305z" />
    <glyph glyph-name="Xi" unicode="&#x39e;" horiz-adv-x="1143" 
d="M1192 1169h-972l56 265h973zM923 592h-678l55 262h678zM968 0h-1018l56 266h1019z" />
    <glyph glyph-name="Omicron" unicode="&#x39f;" horiz-adv-x="1554" 
d="M1511 842c0 -156.667 -33.6689 -302.501 -101.002 -437.501s-160.166 -240.333 -278.499 -316s-258.5 -113.5 -420.5 -113.5c-119.333 0 -224.666 25.833 -315.999 77.5s-161.5 124.5 -210.5 218.5s-73.5 201 -73.5 321c0 162.667 34.667 310.834 104 444.501
s164 237.334 284 311.001s257.333 110.5 412 110.5c118.667 0 223.5 -24.833 314.5 -74.5s161.333 -121.334 211 -215.001s74.5 -202.5 74.5 -326.5zM1169 830.999c0 106.667 -26.167 190.833 -78.5 252.5s-124.5 92.5 -216.5 92.5c-76.667 0 -148 -25.5 -214 -76.5
s-117 -123.167 -153 -216.5s-54 -189 -54 -287c0 -108 26.167 -192 78.5 -252s122.833 -90 211.5 -90c82 0 155.167 25.167 219.5 75.5s114.833 121.5 151.5 213.5s55 188 55 288z" />
    <glyph glyph-name="Pi" unicode="&#x3a0;" horiz-adv-x="1539" 
d="M1269 0h-326l244 1152h-570l-243 -1152h-325l303 1434h1220z" />
    <glyph glyph-name="Rho" unicode="&#x3a1;" horiz-adv-x="1290" 
d="M1317 1026c0 -105.333 -25.001 -198.168 -75.001 -278.501s-122.833 -142.666 -218.5 -186.999s-210.167 -66.5 -343.5 -66.5h-201l-104 -494h-326l305 1434h492c148.667 0 264.334 -36 347.001 -108s124 -172 124 -300zM974.999 1004c0 55.333 -18.667 99.5 -56 132.5
s-92.333 49.5 -165 49.5h-127l-95 -447h148c92 0 164.167 24.167 216.5 72.5s78.5 112.5 78.5 192.5z" />
    <glyph glyph-name="Sigma" unicode="&#x3a3;" horiz-adv-x="1185" 
d="M1236 1172h-580l291 -432l-522 -478h670l-55 -262h-1127l40 194l626 553l-356 520l34 167h1034z" />
    <glyph glyph-name="Tau" unicode="&#x3a4;" horiz-adv-x="1202" 
d="M1303 1171h-404l-248 -1171h-325l247 1171h-409l57 263h1139z" />
    <glyph glyph-name="Upsilon" unicode="&#x3a5;" horiz-adv-x="1245" 
d="M668 0l-326 -0.000976562l109 514l-258 920h350l114 -545c5.33301 -22.667 8.5 -43.667 9.5 -63s2.16699 -36.666 3.5 -51.999h2c17.333 44 35 81 53 111l350 549h363l-662 -914z" />
    <glyph glyph-name="Phi" unicode="&#x3a6;" horiz-adv-x="1690" 
d="M1685 810c0 -120 -28.833 -230.166 -86.5 -330.499s-135 -175.333 -232 -225s-208.167 -74.5 -333.5 -74.5h-115l-41 -203h-308l42 203h-53c-148 0 -265 42.5 -351 127.5s-129 200.5 -129 346.5c0 122 28.167 233.667 84.5 335s133.833 178.166 232.5 230.499
s213.667 78.5 345 78.5h115l32 157h300l-32 -157h52c149.333 0 266.333 -42.833 351 -128.5s127 -205.5 127 -359.5zM1366 804.001c0 80 -20.668 142.333 -62.001 187s-97.666 67 -168.999 67h-31l-135 -639h50c68.667 0 129.5 17.167 182.5 51.5s93.667 81 122 140
s42.5 123.5 42.5 193.5zM745.999 1058c-68.667 0 -129.167 -17 -181.5 -51s-92.833 -80.667 -121.5 -140s-43 -124 -43 -194c0 -80 20.667 -142.333 62 -187s97.333 -67 168 -67h31l136 639h-51z" />
    <glyph glyph-name="Chi" unicode="&#x3a7;" horiz-adv-x="1341" 
d="M928 709l283.999 -708.999h-366l-144 455c-4.66699 12 -8.16699 30 -10.5 54s-3.5 42.667 -3.5 56h-4c-5.33301 -11.333 -12.166 -27.333 -20.499 -48s-18.5 -39.334 -30.5 -56.001l-344 -461h-400l615 739l-277 695h377l127 -441c8 -32 12 -69.333 12 -112h5
c18 48 35 82.667 51 104l342 449h377z" />
    <glyph glyph-name="Psi" unicode="&#x3a8;" horiz-adv-x="1730" 
d="M1019 356l-48.001 0.000976562l-74 -356h-286l75 356h-36c-136.667 2.66699 -245 41 -325 115s-120 174.667 -120 302c0 47.333 4.66699 93 14 137l111 524h286l-108 -514c-8.66699 -43.333 -13 -79.333 -13 -108c0 -60 18.5 -105.833 55.5 -137.5
s88.833 -47.5 155.5 -47.5h35l173 807h286l-172 -807h44c88.667 0 158 23.5 208 70.5s86.667 124.5 110 232.5l107 504h286l-113 -536c-37.333 -178.667 -108.666 -312.334 -213.999 -401.001s-251 -135.667 -437 -141z" />
    <glyph glyph-name="Omega" unicode="&#x3a9;" horiz-adv-x="1583" 
d="M1570 898c0 -140.667 -40.335 -266.665 -121.002 -377.998s-193.667 -198 -339 -260h332l-55 -260h-600l64 306c244.667 124 367 309 367 555c0 95.333 -28.667 172.166 -86 230.499s-133.666 87.5 -228.999 87.5c-82 0 -156.167 -19.833 -222.5 -59.5
s-117.666 -96 -153.999 -169s-54.5 -158.167 -54.5 -255.5c0 -154 55.667 -283.667 167 -389l-65 -306h-599l54 260h352c-77.333 54 -139.333 124.5 -186 211.5s-70 177.833 -70 272.5c0 141.333 33.667 266.166 101 374.499s161.333 192 282 251s257.667 88.5 411 88.5
c126 0 238.833 -23.5 338.5 -70.5s176.667 -113 231 -198s81.5 -182.167 81.5 -291.5z" />
    <glyph glyph-name="Iotadieresis" unicode="&#x3aa;" horiz-adv-x="649" 
d="M375 0h-326l303 1434h326zM956 1673c0 -41.333 -14.501 -74.834 -43.501 -100.501s-65.5 -38.5 -109.5 -38.5c-45.333 0 -82.333 13.333 -111 40s-43 59.667 -43 99c0 40.667 14.833 73.334 44.5 98.001s66.167 37 109.5 37c44.667 0 81.334 -12.5 110.001 -37.5
s43 -57.5 43 -97.5zM498.999 1673c0 -40.667 -14.502 -74 -43.502 -100s-65.5 -39 -109.5 -39c-45.333 0 -82.666 13.5 -111.999 40.5s-44 59.833 -44 98.5c0 40 15 72.5 45 97.5s67 37.5 111 37.5c44.667 0 81.334 -12.5 110.001 -37.5s43 -57.5 43 -97.5z" />
    <glyph glyph-name="Upsilondieresis" unicode="&#x3ab;" horiz-adv-x="1245" 
d="M668 0l-326 -0.000976562l109 514l-258 920h350l114 -545c5.33301 -22.667 8.5 -43.667 9.5 -63s2.16699 -36.666 3.5 -51.999h2c17.333 44 35 81 53 111l350 549h363l-662 -914zM1212 1671c0 -41.333 -14.501 -74.834 -43.501 -100.501s-65.5 -38.5 -109.5 -38.5
c-45.333 0 -82.333 13.333 -111 40s-43 59.667 -43 99c0 40.667 14.833 73.334 44.5 98.001s66.167 37 109.5 37c44.667 0 81.334 -12.5 110.001 -37.5s43 -57.5 43 -97.5zM754.999 1671c0 -40.667 -14.502 -74 -43.502 -100s-65.5 -39 -109.5 -39
c-45.333 0 -82.666 13.5 -111.999 40.5s-44 59.833 -44 98.5c0 40 15 72.5 45 97.5s67 37.5 111 37.5c44.667 0 81.334 -12.5 110.001 -37.5s43 -57.5 43 -97.5z" />
    <glyph glyph-name="alphatonos" unicode="&#x3ac;" horiz-adv-x="1333" 
d="M792 510c-5.33301 110.667 -18.499 188.335 -39.499 233.002s-52.167 67 -93.5 67c-47.333 0 -92.833 -20.833 -136.5 -62.5s-78.334 -96.834 -104.001 -165.501s-38.5 -138 -38.5 -208c0 -44.667 10.5 -80.834 31.5 -108.501s49.167 -41.5 84.5 -41.5
c48 0 94.833 19.833 140.5 59.5s87.167 94.5 124.5 164.5zM814.001 245.001c-114.667 -180 -251.667 -269.999 -411 -269.999c-106 0 -189.5 34.5 -250.5 103.5s-91.5 162.833 -91.5 281.5c0 127.333 27.167 244.333 81.5 351s127 189.667 218 249s188.833 89 293.5 89
c76 0 137.833 -17.5 185.5 -52.5s84.5 -90.833 110.5 -167.5h4l98 195h323l-319 -519c4.66699 -86.667 15.5 -152.834 32.5 -198.501s44.5 -68.5 82.5 -68.5c31.333 0 59 5.33301 83 16l-56 -242c-46 -18 -98.333 -27 -157 -27c-137.333 0 -211.333 86.667 -222 260h-5z
M1041 1508l-280 -340h-169l168 340h281z" />
    <glyph glyph-name="epsilontonos" unicode="&#x3ad;" horiz-adv-x="970" 
d="M448 -25c-134.667 0 -240.331 25.833 -316.998 77.5s-115 121.167 -115 208.5c0 70 24.5 128.167 73.5 174.5s122.167 78.166 219.5 95.499l2 4c-48 18 -86.167 45.5 -114.5 82.5s-42.5 79.5 -42.5 127.5c0 98.667 43.167 174 129.5 226s208.166 78 365.499 78
c58.667 0 116.667 -4.5 174 -13.5s104 -20.167 140 -33.5l-44 -218c-44 18.667 -88.5 32.5 -133.5 41.5s-85.833 13.5 -122.5 13.5c-55.333 0 -101 -10.167 -137 -30.5s-54 -48.166 -54 -83.499c0 -36 16.5 -63.5 49.5 -82.5s79.5 -28.5 139.5 -28.5
c32.667 0 75.667 2.66699 129 8l-40 -200c-44.667 4.66699 -93.334 7 -146.001 7c-84 0 -147.667 -11.333 -191 -34s-65 -56 -65 -100c0 -71.333 62 -107 186 -107c95.333 0 202 22.333 320 67l-46 -227c-120.667 -35.333 -240.667 -53 -360 -53zM1022 1508l-280 -340h-169
l168 340h281z" />
    <glyph glyph-name="etatonos" unicode="&#x3ae;" horiz-adv-x="1259" 
d="M537 809c52 74.667 112.5 133.333 181.5 176s141.833 64 218.5 64c81.333 0 143 -22.333 185 -67s63 -109 63 -193c0 -42 -9.66699 -109 -29 -201l-223 -1062h-319l220 1047c13.333 66.667 20 112.667 20 138c0 30 -7.66699 53.333 -23 70s-36.666 25 -63.999 25
c-62 0 -121 -30.667 -177 -92s-93.667 -134.333 -113 -219l-104 -495h-320l136 633c10.667 56.667 16 91 16 103c0 37.333 -20 56 -60 56c-20 0 -39.333 -3.33301 -58 -10l48 228c39.333 18.667 100.666 28 183.999 28c142.667 0 214 -71 214 -213v-16h4zM1071 1508
l-280 -340h-169l168 340h281z" />
    <glyph glyph-name="iotatonos" unicode="&#x3af;" horiz-adv-x="650" 
d="M348 -20c-84 0 -149.834 21.168 -197.501 63.501s-71.5 100.166 -71.5 173.499c0 50.667 8.66699 119 26 205s60 286.667 128 602h320l-122 -576c-17.333 -76 -26 -127.333 -26 -154c0 -25.333 8 -43 24 -53s34.333 -15 55 -15c34.667 0 68.334 6.66699 101.001 20
l-50 -237c-52 -19.333 -114.333 -29 -187 -29zM728.999 1508l-280 -340h-169l168 340h281z" />
    </font>
</defs>
</svg>
